<svg width="51" height="51" viewBox="0 0 51 51" fill="none" xmlns="http://www.w3.org/2000/svg">
<circle cx="25.543" cy="25.6782" r="25" fill="#B5C3CD"/>
<path fill-rule="evenodd" clip-rule="evenodd" d="M13.043 25.6782C13.043 25.8992 13.1323 26.1111 13.2914 26.2674C13.4504 26.4237 13.6662 26.5114 13.8911 26.5114L33.8958 26.5114L26.8612 31.754C26.7019 31.9105 26.6125 32.1227 26.6125 32.344C26.6125 32.5652 26.7019 32.7774 26.8612 32.9339C27.0205 33.0903 27.2365 33.1782 27.4617 33.1782C27.6869 33.1782 27.9029 33.0903 28.0622 32.9339L36.5438 26.2681C36.6228 26.1907 36.6854 26.0988 36.7282 25.9976C36.771 25.8963 36.793 25.7878 36.793 25.6782C36.793 25.5686 36.771 25.4601 36.7282 25.3589C36.6854 25.2577 36.6228 25.1657 36.5438 25.0883L28.0622 18.4226C27.9833 18.3451 27.8897 18.2837 27.7867 18.2417C27.6836 18.1998 27.5732 18.1782 27.4617 18.1782C27.2365 18.1782 27.0205 18.2661 26.8612 18.4226C26.7019 18.579 26.6125 18.7912 26.6125 19.0125C26.6125 19.2338 26.7019 19.446 26.8612 19.6024L33.8958 24.845L13.8911 24.845C13.6662 24.845 13.4504 24.9328 13.2914 25.0891C13.1323 25.2453 13.043 25.4572 13.043 25.6782Z" fill="white"/>
</svg>
