<svg width="257" height="297" viewBox="0 0 257 297" fill="none" xmlns="http://www.w3.org/2000/svg">
<g clip-path="url(#clip0_1754_41410)">
<path d="M157.998 152.293C155.7 151.43 154.314 148.773 152.093 147.66C150.213 146.728 148.105 146.569 146.093 146.842C141.972 147.387 137.833 149.363 134.586 152.475C133.865 153.156 134.89 154.36 135.592 153.679C138.668 150.749 142.789 148.818 146.7 148.5C148.599 148.341 150.593 148.545 152.283 149.681C154.2 150.953 155.454 153.156 157.637 153.974C158.511 154.315 158.89 152.657 158.017 152.339L157.998 152.293Z" fill="#B5C3CD" fill-opacity="0.5"/>
<path d="M139.312 154.088C129.496 147.841 121.654 161.242 112.995 164.059C107.755 165.762 101.982 164.876 96.6278 165.899C91.2733 166.921 85.7288 168.988 80.6211 171.781C79.7857 172.236 80.5072 173.712 81.3427 173.258C86.2035 170.6 91.3112 168.692 96.5898 167.625C101.868 166.557 106.748 167.17 111.761 166.126C120.59 164.286 129.135 149.545 138.61 155.564C139.426 156.086 140.148 154.61 139.331 154.088H139.312Z" fill="#B5C3CD" fill-opacity="0.5"/>
<path d="M76.6353 172.395C72.2681 172.69 66.1541 173.916 65.6224 180.367C65.2806 184.455 67.4073 187.817 69.2301 190.997C71.2048 194.449 72.496 198.356 74.4897 201.786C78.2683 208.282 84.838 210.871 90.9141 212.938C98.6991 215.595 106.75 216.958 114.744 218.321C115.636 218.48 116.035 216.822 115.123 216.686C108.706 215.595 102.288 214.505 95.9838 212.756C90.2116 211.144 83.6798 209.304 78.8948 204.92C76.4834 202.694 74.9834 199.741 73.5783 196.562C72.1732 193.382 70.6921 190.724 69.0972 187.84C67.1414 184.296 65.6794 179.095 69.2681 176.233C71.3757 174.552 74.1669 174.28 76.6163 174.121C77.5277 174.053 77.5277 172.349 76.6163 172.417L76.6353 172.395Z" fill="#B5C3CD" fill-opacity="0.5"/>
<path d="M66.8162 175.711C60.6262 177.414 54.0944 172.44 49.1006 179.027C46.8981 181.934 44.7524 184.592 42.322 187.249C40.2523 189.498 38.3726 192.11 37.9548 195.517C37.0244 202.808 42.36 210.417 45.9107 215.686C50.1829 222.023 55.2527 227.542 60.7212 232.38C66.1896 237.218 72.5505 241.716 78.8735 245.463C85.5761 249.438 92.6206 253.322 100.026 254.935C108.172 256.706 116.355 254.708 124.558 254.844C133.501 254.98 141.571 257.479 149.736 261.658C157.901 265.837 165.932 267.632 174.819 267.132C184.35 266.587 193.73 264.225 203.224 263.202C204.136 263.112 204.136 261.408 203.224 261.499C188.091 263.112 172.255 268.699 157.255 263.271C149.907 260.613 143.356 256.048 135.723 254.367C128.09 252.686 120.817 253.14 113.26 253.731C105.285 254.367 97.9562 253.231 90.494 249.779C83.9812 246.781 77.6203 243.033 71.5822 238.831C60.1325 230.881 49.5563 220.547 42.4929 206.987C40.2334 202.649 37.9548 197.311 40.4232 192.382C42.1891 188.884 45.3411 186.681 47.6386 183.728C48.8348 182.184 49.8032 180.367 51.1323 178.981C52.8222 177.232 54.8729 176.846 57.0375 176.96C60.4743 177.142 63.7972 178.232 67.234 177.301C68.1264 177.051 67.7466 175.415 66.8542 175.665L66.8162 175.711Z" fill="#B5C3CD" fill-opacity="0.5"/>
<path d="M161.928 154.678C172.315 154.678 178.505 168.556 189.1 167.965L188.378 167.102C188.378 172.258 182.948 172.463 179.967 171.645C176.815 170.805 173.966 169.783 170.701 170.191C164.473 170.941 158.302 175.007 151.998 172.894C151.105 172.599 150.744 174.234 151.618 174.53C159.156 177.051 166.143 171.168 173.644 171.804C177.422 172.122 181.163 174.711 184.979 173.53C187.562 172.735 189.802 170.418 189.802 167.08C189.802 166.625 189.479 166.217 189.081 166.217C178.618 166.807 172.371 152.929 161.909 152.929C160.998 152.929 160.998 154.633 161.909 154.633L161.928 154.678Z" fill="#B5C3CD" fill-opacity="0.5"/>
<path d="M141.991 170.464C141.934 170.986 141.915 171.463 141.972 171.986C142.029 172.508 142.162 172.962 142.333 173.439C142.409 173.621 142.598 173.78 142.75 173.825C142.921 173.871 143.149 173.848 143.301 173.735C143.453 173.621 143.586 173.439 143.624 173.235C143.662 173.008 143.624 172.803 143.548 172.576C143.548 172.531 143.529 172.508 143.51 172.463L143.586 172.667C143.472 172.349 143.396 172.008 143.358 171.645V171.872C143.358 171.509 143.358 171.145 143.377 170.782V171.009C143.377 171.009 143.358 170.964 143.377 170.918C143.415 170.691 143.415 170.464 143.301 170.259C143.206 170.078 143.054 169.919 142.883 169.873C142.693 169.828 142.504 169.828 142.333 169.964C142.181 170.078 142.029 170.259 142.01 170.464H141.991Z" fill="#B5C3CD" fill-opacity="0.5"/>
<path d="M136.163 169.941L136.448 171.577C136.486 171.781 136.638 171.986 136.77 172.076C136.922 172.19 137.15 172.235 137.321 172.167C137.492 172.099 137.663 171.963 137.739 171.781C137.834 171.577 137.853 171.35 137.815 171.122L137.53 169.487C137.492 169.283 137.34 169.078 137.207 168.987C137.055 168.874 136.827 168.828 136.657 168.897C136.486 168.965 136.315 169.101 136.239 169.283C136.144 169.487 136.125 169.714 136.163 169.941Z" fill="#B5C3CD" fill-opacity="0.5"/>
<path d="M189.043 167.625C194.91 168.783 199.98 172.508 205.372 175.256C210.765 178.005 216.271 178.3 221.436 181.253C226.601 184.205 232.734 182.229 238.297 184.66C241.183 185.909 243.386 188.089 245.968 189.952C248.399 191.701 251.114 192.223 253.772 193.2C259.336 195.244 264.234 200.604 268.45 205.238C270.766 207.782 272.855 210.553 274.488 213.778C276.197 217.162 278.988 222.25 276.083 225.612C271.981 230.336 266.513 233.993 261.367 236.855C256.222 239.717 250.354 241.92 244.544 243.078C238.734 244.237 232.886 243.237 228.215 248.121C225.822 250.619 223.847 253.436 220.98 255.23C217.79 257.229 214.202 258.115 210.708 259.023C209.815 259.25 210.195 260.886 211.088 260.659C216.936 259.159 222.214 257.342 226.62 252.3C228.822 249.756 230.854 247.144 233.93 246.236C237.006 245.327 240.519 245.531 243.747 244.941C255.652 242.806 267.443 236.719 276.595 227.293C278 225.839 279.178 224.226 278.95 221.864C278.646 218.571 276.747 214.8 275.285 212.097C271.924 205.874 266.893 201.195 262.032 196.743C260.038 194.926 257.968 193.223 255.614 192.155C252.519 190.724 249.215 190.383 246.348 188.248C243.917 186.431 241.753 184.433 239.038 183.183C235.905 181.752 232.734 181.366 229.411 181.412C227.436 181.434 225.537 181.434 223.658 180.594C222.025 179.867 220.525 178.731 218.892 177.982C215.626 176.506 212.075 176.324 208.771 175.006C202.144 172.372 196.353 167.329 189.366 165.967C188.473 165.785 188.074 167.443 188.986 167.602L189.043 167.625Z" fill="#B5C3CD" fill-opacity="0.5"/>
<path d="M206.377 260.75L207.421 262.294C207.535 262.453 207.763 262.544 207.934 262.544C208.105 262.544 208.314 262.453 208.446 262.294C208.579 262.135 208.655 261.908 208.655 261.681V261.454C208.598 261.317 208.541 261.181 208.446 261.068L207.402 259.523C207.288 259.364 207.06 259.273 206.889 259.273C206.719 259.273 206.51 259.364 206.377 259.523C206.244 259.682 206.168 259.909 206.168 260.136V260.363C206.225 260.5 206.282 260.636 206.377 260.75Z" fill="#B5C3CD" fill-opacity="0.5"/>
<path d="M44.4694 185.545C45.077 192.382 47.2226 198.674 50.0898 204.579C52.9569 210.485 56.0709 216.367 59.7925 221.387C63.704 226.679 69.0965 228.724 74.6979 230.291C81.1158 232.085 87.6665 233.016 94.1604 234.356C100.654 235.697 106.825 237.627 112.939 240.535C118.712 243.283 124.275 245.645 130.522 246.281C137.395 246.985 144.117 247.167 150.915 248.802C157.712 250.438 163.864 252.391 170.491 253.118C177.593 253.89 184.713 253.027 191.681 251.369C195.384 250.483 199.049 249.37 202.694 248.166C204.441 247.576 206.188 246.985 207.935 246.349C208.77 246.054 209.682 245.577 210.536 245.418C212.093 245.123 212.15 245.463 213.138 246.94C213.309 247.212 213.764 247.28 213.992 247.076C219.518 242.011 226.467 240.989 233.075 239.24C240.024 237.4 246.727 234.447 253.24 231.063C256.563 229.337 259.848 227.497 263.132 225.635C265.753 224.135 268.924 222.818 270.595 219.774C273.747 213.96 270.025 206.578 267.139 201.808C266.607 200.922 265.373 201.786 265.905 202.671C267.671 205.556 269.379 208.736 270.063 212.256C271.012 217.14 269.019 220.297 265.468 222.432C259.487 226.021 253.316 229.382 247.088 232.29C241.164 235.038 235.163 237.014 228.935 238.536C223.41 239.876 217.847 241.42 213.271 245.6L214.125 245.736C213.612 244.941 213.081 244.169 212.568 243.374C212.416 243.147 212.093 243.078 211.884 243.147C199.637 247.576 187.029 252.164 174.08 251.687C161.13 251.21 150.041 245.872 137.737 245.077C131.224 244.668 124.996 244.169 118.825 241.488C113.167 239.013 107.737 236.128 101.85 234.47C95.9642 232.812 90.3438 231.949 84.5715 230.836C78.7993 229.723 71.9637 228.61 66.4003 225.385C60.4951 221.955 56.8874 214.232 53.4316 207.873C49.767 201.081 46.615 193.768 45.8935 185.614C45.7985 184.523 44.3744 184.523 44.4694 185.614V185.545Z" fill="#B5C3CD" fill-opacity="0.5"/>
<path d="M53.6587 178.391C52.4245 184.75 54.76 190.679 57.5322 195.971C59.0512 198.855 60.6652 201.672 61.9374 204.738C63.0577 207.464 64.026 210.371 65.9248 212.483C67.6337 214.391 69.7983 215.459 71.9439 216.481C74.4503 217.685 76.8048 219.116 79.1213 220.751C83.3556 223.704 87.5899 226.816 92.6406 226.997C93.552 227.02 93.552 225.317 92.6406 225.294C87.8747 225.112 83.8303 222.091 79.8428 219.275C77.9631 217.957 76.0833 216.708 74.0706 215.686C71.849 214.573 69.4945 213.687 67.5767 211.916C65.5451 210.03 64.5387 207.282 63.4564 204.579C62.3741 201.876 61.0829 199.401 59.7348 196.925C56.8297 191.542 53.7537 185.523 55.0448 178.845C55.2537 177.777 53.8866 177.323 53.6777 178.391H53.6587Z" fill="#B5C3CD" fill-opacity="0.5"/>
<path d="M146.663 237.991C161.284 243.26 176.797 243.987 191.721 240.126C192.614 239.899 192.234 238.24 191.341 238.49C176.664 242.283 161.417 241.534 147.043 236.355C146.17 236.037 145.79 237.673 146.663 237.991Z" fill="#B5C3CD" fill-opacity="0.5"/>
<path d="M205.96 235.901C209.492 236.128 212.473 233.789 215.682 232.426C217.505 231.654 219.385 231.517 221.264 231.018C223.144 230.518 224.758 229.382 226.353 228.179C227.132 227.588 226.41 226.112 225.632 226.702C224.018 227.929 222.423 229.019 220.505 229.451C218.739 229.859 216.992 230.041 215.283 230.768C212.207 232.063 209.302 234.402 205.941 234.175C205.03 234.107 205.03 235.81 205.941 235.878L205.96 235.901Z" fill="#B5C3CD" fill-opacity="0.5"/>
<path d="M253.39 219.275C255.554 218.525 257.453 216.685 258.459 214.255C258.63 213.846 258.554 213.324 258.213 213.097C257.89 212.87 257.415 212.983 257.244 213.392C256.789 214.505 256.257 215.277 255.459 216.072C255.421 216.118 255.364 216.163 255.327 216.208C255.232 216.299 255.327 216.208 255.27 216.254C255.175 216.345 255.061 216.436 254.947 216.526C254.738 216.685 254.529 216.844 254.32 216.981C254.206 217.049 254.092 217.117 253.978 217.185C253.94 217.208 253.902 217.231 253.845 217.253C253.845 217.253 253.637 217.367 253.751 217.299C253.504 217.412 253.257 217.526 253.01 217.594C252.649 217.73 252.402 218.185 252.516 218.639C252.63 219.093 253.029 219.366 253.39 219.229V219.275Z" fill="#B5C3CD" fill-opacity="0.5"/>
<path d="M136.084 221.296C140.11 220.615 143.945 222.091 147.781 223.341C151.275 224.476 154.654 225.044 158.281 224.999C162.174 224.953 165.971 224.772 169.864 225.317C173.756 225.862 177.497 226.725 181.351 226.861C184.902 226.997 188.149 226.293 191.472 224.772C195.06 223.113 198.706 223.023 202.428 222.114C209.624 220.32 216.592 215.618 224.131 217.163C225.023 217.344 225.403 215.709 224.51 215.527C217.618 214.096 211.295 217.526 204.782 219.661C200.966 220.91 196.921 220.797 193.162 222.205C191.206 222.932 189.383 224.022 187.389 224.567C185.396 225.112 183.364 225.226 181.351 225.158C177.497 225.021 173.68 224.158 169.864 223.613C165.838 223.045 161.87 223.272 157.825 223.295C153.781 223.318 149.775 222.205 145.749 220.888C142.407 219.82 139.16 219.07 135.705 219.638C134.793 219.797 135.192 221.433 136.084 221.274V221.296Z" fill="#B5C3CD" fill-opacity="0.5"/>
<path d="M231.82 214.846C235.048 215.027 238.504 215.141 241.371 213.097C243.099 211.87 244.371 210.757 246.441 210.508C248.245 210.28 250.03 210.099 251.795 209.576C254.568 208.781 257.947 207.805 258.783 204.102C259.618 200.4 258.859 196.289 257.055 193.154C256.542 192.269 255.308 193.109 255.821 194.018C257.454 196.857 258.422 201.081 257.188 204.398C256.523 206.215 254.72 206.76 253.257 207.305C251.663 207.918 249.992 208.35 248.321 208.577C246.935 208.759 245.491 208.759 244.162 209.258C242.909 209.713 241.922 210.667 240.839 211.484C238.143 213.483 234.877 213.324 231.82 213.142C230.909 213.097 230.909 214.8 231.82 214.846Z" fill="#B5C3CD" fill-opacity="0.5"/>
<path d="M76.7477 179.118C78.1907 180.39 78.7983 182.525 79.1971 184.546C79.6148 186.727 79.8996 188.907 80.6212 190.974C81.8934 194.563 84.0769 197.606 86.8302 199.673C87.6087 200.264 88.3302 198.787 87.5517 198.197C84.6846 196.016 82.463 192.678 81.4566 188.771C80.4503 184.864 80.4883 180.321 77.4692 177.641C76.7287 176.983 76.0261 178.459 76.7477 179.118Z" fill="#B5C3CD" fill-opacity="0.5"/>
<path d="M108.742 206.396C113.261 209.031 118.065 210.939 123.002 212.029C123.894 212.234 124.274 210.576 123.381 210.394C118.558 209.326 113.868 207.509 109.463 204.943C108.647 204.466 107.925 205.942 108.742 206.419V206.396Z" fill="#B5C3CD" fill-opacity="0.5"/>
<path d="M144.689 215.641C148.809 216.958 152.948 218.298 157.183 218.889C161.417 219.479 165.651 218.889 169.923 218.094C174.936 217.162 179.36 217.708 184.354 218.48C187.867 219.025 191.379 219.116 194.721 217.48C198.576 215.572 201.956 212.483 205.81 210.507C209.665 208.531 214.051 207.032 218.38 206.305C222.709 205.579 226.545 206.01 230.703 206.056C232.545 206.078 233.722 205.442 235.336 204.443C237.159 203.33 239.134 202.944 241.032 202.081C247.412 199.219 248.305 188.884 241.906 185.25C241.089 184.773 240.368 186.25 241.184 186.727C244.963 188.884 246.349 194.699 243.273 198.492C241.07 201.24 237.349 201.24 234.615 202.967C231.102 205.192 227.076 203.898 223.241 204.08C219.861 204.239 216.5 204.806 213.215 205.76C209.931 206.714 206.987 207.964 204.044 209.576C200.646 211.439 197.626 214.21 194.171 215.89C190.278 217.798 186.234 217.094 182.189 216.39C178.601 215.777 175.164 215.504 171.537 216.095C167.322 216.776 163.24 217.753 158.967 217.39C154.239 216.981 149.625 215.482 145.068 214.005C144.176 213.71 143.796 215.368 144.689 215.641Z" fill="#B5C3CD" fill-opacity="0.5"/>
<path d="M88.4264 170.555C89.2619 179.549 92.8316 187.999 98.4709 194.063C99.1545 194.79 100.161 193.586 99.4773 192.859C94.1417 187.113 90.648 179.118 89.8505 170.555C89.7556 169.487 88.3315 169.465 88.4264 170.555Z" fill="#B5C3CD" fill-opacity="0.5"/>
<path d="M110.869 197.493C126.439 202.24 142.256 206.396 158.338 207.373C166.161 207.85 173.965 207.464 181.712 206.215C186.041 205.51 190.352 204.67 194.738 204.602C198.08 204.534 201.383 204.874 204.554 203.285C208.447 201.331 211.732 197.992 215.7 196.153C219.897 194.199 224.34 193.291 228.84 193.291C229.751 193.291 229.751 191.587 228.84 191.587C221.928 191.587 215.15 193.768 209.244 198.106C205.599 200.763 202.58 202.898 198.156 202.921C194.244 202.944 190.409 203.126 186.535 203.716C178.484 204.965 170.566 206.056 162.44 205.851C154.313 205.647 146.167 204.556 138.135 202.921C129.097 201.081 120.154 198.583 111.268 195.857C110.375 195.585 109.995 197.22 110.888 197.493H110.869Z" fill="#B5C3CD" fill-opacity="0.5"/>
<path d="M101.794 168.442C104.149 172.894 107.566 176.506 111.573 178.709C112.408 179.163 113.13 177.687 112.294 177.232C108.497 175.143 105.269 171.781 103.028 167.579C102.535 166.648 101.3 167.511 101.794 168.442Z" fill="#B5C3CD" fill-opacity="0.5"/>
<path d="M125.965 184.842C129.686 185.318 133.161 186.818 136.712 188.135C140.263 189.452 143.547 190.338 147.041 190.997C154.01 192.291 161.073 192.382 168.061 191.292C168.953 191.156 168.972 189.452 168.061 189.589C160.674 190.747 153.193 190.611 145.864 189.043C139.123 187.613 132.762 184.001 125.965 183.138C125.053 183.024 125.053 184.728 125.965 184.842Z" fill="#B5C3CD" fill-opacity="0.5"/>
<path d="M176.187 186.022C185.624 185.386 195.916 184.137 202.884 175.62C203.53 174.825 202.523 173.621 201.878 174.416C195.194 182.615 185.245 183.706 176.187 184.319C175.276 184.387 175.276 186.091 176.187 186.022Z" fill="#B5C3CD" fill-opacity="0.5"/>
<path d="M230.379 116.588C222.992 115.974 216.897 121.153 210.973 125.696C207.631 128.262 204.27 130.261 200.454 131.647C198.004 132.532 195.289 133.532 193.637 136.008C189.289 142.504 195.764 149.113 199.998 152.248C206.207 156.836 213.195 159.675 220.334 161.31C227.473 162.946 234.708 163.468 241.942 163.468C250.031 163.468 258.253 162.832 265.981 159.834C272.531 157.29 279.101 153.065 284.095 147.296C285.88 145.229 287.722 142.118 286.677 139.006C285.633 135.894 282.576 135.144 280.089 134.668C277.601 134.191 275.759 133.214 273.785 131.397C272.436 130.148 271.126 128.83 269.569 127.967C267.784 126.99 265.81 126.786 263.949 126.173C261.727 125.469 259.677 124.219 257.721 122.788C251.227 118.041 244.657 110.841 236.436 113.362C235.543 113.635 235.923 115.27 236.815 114.998C243.993 112.795 250.05 118.882 255.67 123.243C257.911 124.992 260.265 126.604 262.829 127.558C264.12 128.035 265.449 128.262 266.74 128.648C268.924 129.284 270.557 130.511 272.304 132.124C274.24 133.941 276.006 135.44 278.475 136.053C280.145 136.462 281.987 136.416 283.525 137.416C286.165 139.119 285.842 142.254 284.133 144.775C280.259 150.476 273.538 154.633 267.898 157.199C255.423 162.878 240.746 162.605 227.625 160.879C221.397 160.061 215.207 158.517 209.359 155.836C206.492 154.519 203.701 152.906 201.08 150.998C197.985 148.75 193.903 145.683 193.751 140.823C193.599 135.962 197.985 134.304 201.175 133.146C204.194 132.055 206.967 130.602 209.663 128.671C216.138 124.038 222.385 117.587 230.398 118.268C231.309 118.337 231.309 116.633 230.398 116.565L230.379 116.588Z" fill="#B5C3CD" fill-opacity="0.5"/>
<path d="M232.049 115.18C232.163 115.452 232.315 115.702 232.485 115.952C232.656 116.202 232.846 116.383 233.055 116.565C233.131 116.633 233.226 116.656 233.321 116.656C233.416 116.679 233.511 116.656 233.606 116.656C233.701 116.633 233.777 116.588 233.853 116.497C233.929 116.429 233.985 116.361 234.042 116.247C234.137 116.043 234.175 115.816 234.118 115.588L234.042 115.384C233.985 115.248 233.891 115.157 233.796 115.089C233.777 115.066 233.739 115.043 233.72 115.021L233.872 115.157C233.72 115.021 233.568 114.839 233.454 114.657L233.568 114.839C233.473 114.68 233.378 114.521 233.321 114.339C233.283 114.248 233.207 114.157 233.131 114.089C233.055 114.021 232.979 113.953 232.884 113.93C232.789 113.885 232.694 113.885 232.599 113.93C232.504 113.93 232.409 113.976 232.334 114.021C232.182 114.135 232.049 114.316 232.011 114.521V114.748C231.992 114.907 232.011 115.043 232.087 115.18H232.049Z" fill="#B5C3CD" fill-opacity="0.5"/>
<path d="M197.777 135.076C200.986 137.03 202.524 141.005 205.031 143.912C207.879 147.251 211.961 147.932 215.55 149.613C219.879 151.635 224.075 153.542 228.689 154.474C233.304 155.405 237.975 155.7 242.627 155.995C243.538 156.041 243.538 154.337 242.627 154.292C237.956 153.997 233.266 153.724 228.652 152.747C224.037 151.771 220.126 149.931 215.93 147.978C211.999 146.138 207.917 145.411 205.05 141.413C203.018 138.574 201.385 135.372 198.518 133.6C197.701 133.1 196.98 134.577 197.796 135.076H197.777Z" fill="#B5C3CD" fill-opacity="0.5"/>
<path d="M249.328 155.382C255.461 155.291 261.822 155.11 267.404 151.635C268.221 151.135 267.499 149.658 266.683 150.158C261.347 153.474 255.195 153.588 249.328 153.679C248.417 153.679 248.417 155.405 249.328 155.382Z" fill="#B5C3CD" fill-opacity="0.5"/>
<path d="M206.36 129.625C204.917 136.439 210.272 141.027 215.322 141.663C216.993 141.868 218.626 141.89 220.202 142.64C221.588 143.276 222.861 144.207 224.247 144.82C227.304 146.206 230.645 146.16 233.873 146.092C234.785 146.092 234.785 144.366 233.873 144.389C231.082 144.434 228.234 144.525 225.519 143.548C223.05 142.663 220.962 140.777 218.379 140.3C215.797 139.823 213.291 139.982 210.974 138.347C208.658 136.712 207.025 133.441 207.727 130.102C207.955 129.035 206.588 128.58 206.36 129.648V129.625Z" fill="#B5C3CD" fill-opacity="0.5"/>
<path d="M247.488 147.16C251.286 147.546 255.064 146.774 258.558 144.979C258.919 144.798 258.995 144.185 258.805 143.821C258.596 143.39 258.178 143.344 257.837 143.526C254.571 145.184 251.001 145.82 247.488 145.456C246.577 145.366 246.577 147.069 247.488 147.16Z" fill="#B5C3CD" fill-opacity="0.5"/>
<path d="M222.993 135.008C226.145 136.53 229.487 137.371 232.886 137.507C233.797 137.552 233.797 135.849 232.886 135.803C229.62 135.667 226.411 134.827 223.373 133.373C223.012 133.191 222.594 133.555 222.499 133.964C222.385 134.441 222.651 134.849 222.993 135.008Z" fill="#B5C3CD" fill-opacity="0.5"/>
<path d="M247.64 139.119C251.95 139.642 255.938 137.393 260.039 136.212C261.995 135.644 264.083 135.531 265.887 134.418C267.501 133.418 268.754 131.737 269.495 129.761C269.856 128.762 268.641 127.899 268.261 128.898C267.52 130.874 266.267 132.487 264.558 133.259C262.849 134.032 260.78 134.191 258.919 134.781C255.197 135.962 251.552 137.87 247.621 137.393C246.71 137.28 246.71 138.983 247.621 139.097L247.64 139.119Z" fill="#B5C3CD" fill-opacity="0.5"/>
<path d="M220.144 120.404C219.631 123.402 220.694 126.377 222.669 128.285C224.91 130.443 227.929 130.943 230.72 130.738C234.062 130.488 237.328 129.58 240.669 129.262C243.594 128.989 246.556 128.626 249.062 126.65C249.822 126.059 249.119 124.583 248.341 125.173C246.157 126.877 243.651 127.263 241.106 127.513C238.562 127.763 236.131 128.149 233.625 128.603C230.929 129.103 228.062 129.466 225.46 128.262C222.859 127.059 220.941 124.174 221.492 120.858C221.663 119.79 220.296 119.336 220.125 120.404H220.144Z" fill="#B5C3CD" fill-opacity="0.5"/>
<path d="M241.106 124.06C244.657 124.333 248.112 122.334 250.239 118.95C250.467 118.586 250.296 117.996 249.992 117.791C249.631 117.542 249.252 117.723 249.024 118.087C247.201 120.994 244.125 122.561 241.125 122.334C240.214 122.266 240.214 123.97 241.125 124.038L241.106 124.06Z" fill="#B5C3CD" fill-opacity="0.5"/>
<path d="M135.935 152.066C136.542 143.072 136.637 134.032 136.22 125.037C136.163 123.947 134.739 123.947 134.796 125.037C135.213 134.054 135.118 143.072 134.511 152.066C134.435 153.156 135.859 153.156 135.935 152.066Z" fill="#B5C3CD" fill-opacity="0.5"/>
<path d="M129.46 154.065C127.808 151.634 127.694 148.318 127.505 145.343C127.277 141.64 127.03 137.938 126.802 134.259C126.726 133.168 125.302 133.168 125.378 134.259C125.644 138.324 125.872 142.367 126.156 146.433C126.365 149.59 126.745 152.747 128.454 155.268C129.024 156.109 130.03 154.905 129.46 154.065Z" fill="#B5C3CD" fill-opacity="0.5"/>
<path d="M119.928 160.879V152.429C119.928 151.339 118.504 151.339 118.504 152.429V160.879C118.504 161.969 119.928 161.969 119.928 160.879Z" fill="#B5C3CD" fill-opacity="0.5"/>
<path d="M130.616 125.355C131.014 118.496 130.711 111.636 129.742 104.868C129.59 103.8 128.223 104.254 128.375 105.322C129.324 111.931 129.59 118.677 129.211 125.355C129.154 126.445 130.578 126.445 130.635 125.355H130.616Z" fill="#B5C3CD" fill-opacity="0.5"/>
<path d="M170.529 155.473V149.386C170.529 148.932 170.206 148.523 169.807 148.523C169.409 148.523 169.086 148.909 169.086 149.386V155.473C169.086 155.927 169.409 156.336 169.807 156.336C170.206 156.336 170.529 155.95 170.529 155.473Z" fill="#B5C3CD" fill-opacity="0.5"/>
<path d="M164.11 153.429C163.996 148.932 163.882 144.412 163.749 139.914C163.711 138.824 162.287 138.824 162.325 139.914C162.439 144.412 162.553 148.932 162.686 153.429C162.724 154.519 164.148 154.519 164.11 153.429Z" fill="#B5C3CD" fill-opacity="0.5"/>
<path d="M125.149 254.526C124.959 257.683 125.035 260.863 125.376 264.02C125.433 264.474 125.661 264.883 126.098 264.883C126.44 264.883 126.857 264.497 126.82 264.02C126.497 260.863 126.421 257.683 126.592 254.526C126.649 253.436 125.225 253.436 125.168 254.526H125.149Z" fill="#B5C3CD" fill-opacity="0.5"/>
<path d="M115.407 255.752C116.166 264.838 116.451 273.832 115.692 282.94C115.597 284.031 117.021 284.031 117.116 282.94C117.875 273.832 117.59 264.838 116.831 255.752C116.736 254.662 115.312 254.662 115.407 255.752Z" fill="#B5C3CD" fill-opacity="0.5"/>
<path d="M123.384 274.968C123.725 276.354 124.048 277.716 124.39 279.102C124.485 279.533 124.903 279.829 125.263 279.692C125.624 279.556 125.871 279.102 125.757 278.648L124.751 274.514C124.656 274.082 124.238 273.787 123.877 273.923C123.516 274.059 123.27 274.514 123.384 274.968Z" fill="#B5C3CD" fill-opacity="0.5"/>
<path d="M106.844 265.247V268.131C106.844 268.586 107.167 268.994 107.565 268.994C107.964 268.994 108.287 268.631 108.287 268.131V265.247C108.287 264.792 107.964 264.384 107.565 264.384C107.167 264.384 106.844 264.747 106.844 265.247Z" fill="#B5C3CD" fill-opacity="0.5"/>
<path d="M174.363 268.131C174.515 274.718 174.667 281.328 174.819 287.915C174.838 289.005 176.262 289.005 176.243 287.915C176.091 281.328 175.939 274.718 175.788 268.131C175.769 267.041 174.344 267.041 174.363 268.131Z" fill="#B5C3CD" fill-opacity="0.5"/>
<path d="M187.145 265.656C187.05 269.471 187.297 273.265 187.866 277.012C188.037 278.08 189.404 277.626 189.233 276.558C188.683 272.969 188.474 269.312 188.569 265.656C188.588 264.565 187.164 264.565 187.145 265.656Z" fill="#B5C3CD" fill-opacity="0.5"/>
<path d="M181.521 280.079L182.338 294.91C182.395 296.001 183.819 296.001 183.762 294.91L182.945 280.079C182.888 278.988 181.464 278.988 181.521 280.079Z" fill="#B5C3CD" fill-opacity="0.5"/>
<path d="M165.441 290.39V296.16C165.441 296.614 165.764 297.023 166.163 297.023C166.562 297.023 166.884 296.637 166.884 296.16V290.39C166.884 289.936 166.562 289.527 166.163 289.527C165.764 289.527 165.441 289.913 165.441 290.39Z" fill="#B5C3CD" fill-opacity="0.5"/>
<path d="M223.088 118.223V113.385C223.088 112.931 222.765 112.522 222.366 112.522C221.967 112.522 221.645 112.885 221.645 113.385V118.223C221.645 118.677 221.967 119.086 222.366 119.086C222.765 119.086 223.088 118.723 223.088 118.223Z" fill="#B5C3CD" fill-opacity="0.5"/>
<path d="M218.74 113.771V110.069C218.74 109.615 218.417 109.206 218.018 109.206C217.62 109.206 217.297 109.569 217.297 110.069V113.771C217.297 114.225 217.62 114.634 218.018 114.634C218.417 114.634 218.74 114.271 218.74 113.771Z" fill="#B5C3CD" fill-opacity="0.5"/>
<path d="M234.252 105.981V99.3028C234.252 98.2125 232.828 98.2125 232.828 99.3028V105.981C232.828 107.071 234.252 107.071 234.252 105.981Z" fill="#B5C3CD" fill-opacity="0.5"/>
<path d="M248.228 115.27V109.706C248.228 109.251 247.905 108.843 247.507 108.843C247.108 108.843 246.785 109.206 246.785 109.706V115.27C246.785 115.725 247.108 116.134 247.507 116.134C247.905 116.134 248.228 115.77 248.228 115.27Z" fill="#B5C3CD" fill-opacity="0.5"/>
<path d="M254.435 97.077V91.126C254.435 90.6718 254.112 90.2629 253.714 90.2629C253.315 90.2629 252.992 90.6491 252.992 91.126V97.077C252.992 97.5312 253.315 97.9401 253.714 97.9401C254.112 97.9401 254.435 97.5539 254.435 97.077Z" fill="#B5C3CD" fill-opacity="0.5"/>
<path d="M243.879 88.5366C243.784 85.8792 243.879 83.2217 244.183 80.587C244.24 80.1327 244.088 79.6784 243.689 79.5421C243.347 79.4286 242.873 79.6784 242.816 80.1327C242.493 82.9264 242.36 85.7202 242.474 88.5139C242.512 89.6042 243.936 89.6042 243.898 88.5139L243.879 88.5366Z" fill="#B5C3CD" fill-opacity="0.5"/>
<path d="M219.328 161.606V166.284C219.328 166.739 219.651 167.148 220.05 167.148C220.448 167.148 220.771 166.784 220.771 166.284V161.606C220.771 161.151 220.448 160.742 220.05 160.742C219.651 160.742 219.328 161.106 219.328 161.606Z" fill="#B5C3CD" fill-opacity="0.5"/>
<path d="M226.051 168.874V172.258C226.051 172.712 226.374 173.121 226.772 173.121C227.171 173.121 227.494 172.758 227.494 172.258V168.874C227.494 168.42 227.171 168.011 226.772 168.011C226.374 168.011 226.051 168.374 226.051 168.874Z" fill="#B5C3CD" fill-opacity="0.5"/>
<path d="M254.266 168.102V172.508C254.266 172.962 254.588 173.371 254.987 173.371C255.386 173.371 255.709 173.008 255.709 172.508V168.102C255.709 167.647 255.386 167.239 254.987 167.239C254.588 167.239 254.266 167.602 254.266 168.102Z" fill="#B5C3CD" fill-opacity="0.5"/>
<path d="M246.898 171.986V176.392C246.898 176.846 247.221 177.255 247.62 177.255C248.019 177.255 248.341 176.892 248.341 176.392V171.986C248.341 171.531 248.019 171.123 247.62 171.123C247.221 171.123 246.898 171.486 246.898 171.986Z" fill="#B5C3CD" fill-opacity="0.5"/>
<path d="M62.1674 37.2046C58.5977 35.5465 54.3635 37.1138 52.0659 40.7252C51.8381 41.0886 52.028 41.6792 52.3128 41.8836C52.6735 42.1334 53.0533 41.9517 53.2811 41.5883C55.2179 38.5674 58.8446 37.4999 61.7687 38.8627C62.1294 39.0217 62.5472 38.681 62.6421 38.2721C62.756 37.7952 62.5092 37.3863 62.1484 37.2273L62.1674 37.2046Z" fill="#B5C3CD" fill-opacity="0.5"/>
<path d="M52.1581 41.8835C47.582 43.0419 43.9554 46.4262 40.3477 49.7878C38.4489 51.5594 36.5312 53.3538 34.4045 54.7393C31.7842 56.4882 28.974 57.1469 26.0689 57.851C23.4676 58.4643 21.1321 59.3274 18.7776 60.781C15.7586 62.6435 13.2142 63.5748 9.85337 63.9382C6.11278 64.347 1.8975 65.0739 0.454428 69.8891C-1.15953 75.2949 1.84054 80.3599 4.51781 84.3575C8.54321 90.3538 12.5876 96.3274 16.651 102.278C20.0878 107.298 23.7334 111.318 29.2589 112.454C31.8412 112.976 34.4615 113.022 37.0628 113.203C40.4616 113.408 43.8225 114.021 47.1833 114.748C53.0315 116.02 58.8228 117.337 64.785 117.723C71.2218 118.132 77.6966 117.769 84.0955 116.792C96.0958 114.975 108.305 111.386 119.47 105.776C128.451 101.256 137.508 93.3747 139.521 81.2231C140.375 76.1125 139.559 72.0014 135.268 70.0027C132.837 68.867 130.293 68.072 127.862 66.8909C126.248 66.1187 124.634 65.301 123.096 64.347C121.293 63.2114 120.647 61.6214 119.584 59.6908C118.046 56.897 115.216 55.4888 112.786 54.1487C109.957 52.6042 107.033 51.3095 104.147 49.9467C101.26 48.5839 96.2477 46.8123 94.3109 43.7233C93.5704 42.5422 93.2666 41.1112 92.4691 39.9756C91.7476 38.9535 90.8552 38.1585 89.8868 37.4771C87.5133 35.819 84.874 34.8424 82.5005 33.1389C80.1271 31.4354 77.6966 29.2549 74.8865 28.4599C69.342 26.8927 64.5571 31.3672 60.5887 35.4102C59.8861 36.1143 60.8925 37.3181 61.595 36.614C65.9242 32.2076 70.975 27.8239 76.8042 31.0947C78.9119 32.2757 80.7537 33.9793 82.7854 35.3193C84.817 36.6594 86.9247 37.4544 88.8994 38.7718C89.9248 39.4532 90.8742 40.2709 91.5957 41.4065C92.2413 42.4286 92.4691 43.6779 93.0767 44.7C94.3109 46.7669 96.7983 47.9025 98.6401 48.9701C103.387 51.673 108.457 53.49 113.204 56.2611C114.286 56.897 115.406 57.533 116.413 58.3507C117.856 59.5091 118.444 60.9173 119.318 62.5754C120.438 64.7332 122.223 65.778 124.103 66.8228C126.286 68.0266 128.527 69.0941 130.786 70.0481C133.35 71.1156 137.261 71.6607 138.23 75.2267C139.692 80.5871 136.502 87.6282 133.843 91.6939C130.616 96.6227 126.248 100.166 121.558 102.846C111.78 108.456 100.672 111.773 90.0387 114.021C78.627 116.429 66.8736 117.042 55.386 114.816C50.1074 113.794 44.9048 112.272 39.5692 111.704C34.2337 111.137 28.3285 111.863 23.6195 108.116C19.1574 104.572 15.9484 98.5079 12.6256 93.6018C10.9167 91.0807 9.20779 88.5368 7.49889 86.0156C5.78999 83.4944 3.72032 80.8142 2.46713 77.7479C1.00507 74.1365 0.929122 69.2985 4.214 67.0726C6.51152 65.5281 9.37868 65.7098 11.923 65.3691C14.1446 65.0511 16.1383 64.2789 18.132 63.0751C20.8853 61.417 23.4296 60.1905 26.4487 59.4636C31.5374 58.2598 35.4489 56.3519 39.5882 52.6042C43.7275 48.8565 47.4491 44.7908 52.5189 43.4962C53.4113 43.269 53.0315 41.6337 52.1391 41.8608L52.1581 41.8835Z" fill="#B5C3CD" fill-opacity="0.5"/>
<path d="M12.208 64.3924C8.01174 71.479 14.4106 78.1795 18.0942 82.9493C20.7146 86.3563 22.0627 90.8762 24.9868 93.9652C27.7021 96.8271 31.1199 98.894 34.3098 100.893C37.4997 102.892 40.9555 104.413 44.6391 104.913C49.1013 105.526 53.6014 105.049 58.0445 105.958C62.1269 106.798 66.0573 108.479 70.1587 109.251C73.5765 109.91 76.9563 109.796 80.3551 108.956C88.7667 106.866 96.4188 101.234 105.191 101.075C106.103 101.075 106.103 99.3483 105.191 99.371C98.6593 99.4846 92.6782 102.528 86.5831 105.027C83.2982 106.389 79.9184 107.593 76.4436 107.911C72.5891 108.275 68.8295 107.298 65.1079 106.162C61.842 105.163 58.5951 104.141 55.2153 103.777C51.1709 103.346 47.0886 103.732 43.0821 102.892C39.0757 102.051 35.8098 99.9616 32.468 97.713C29.1261 95.4643 25.7463 93.2157 23.5247 89.309C21.4361 85.6294 19.6133 82.3133 16.993 79.1334C14.0499 75.5901 10.4991 70.2071 13.4422 65.2101C13.9739 64.3243 12.7397 63.4612 12.208 64.347V64.3924Z" fill="#B5C3CD" fill-opacity="0.5"/>
<path d="M98.8111 97.8719C101.716 97.1223 104.659 96.7362 107.64 96.8043C110.033 96.8725 112.406 97.1905 114.799 97.1223C119.451 97.0088 122.888 95.01 126.002 90.9443C127.672 88.7638 129.4 86.6969 131.166 84.6073C132.685 82.8129 134.128 80.8596 134.869 78.4292C136.084 74.5225 134.888 69.5029 131.128 68.5716C130.236 68.3445 129.856 69.9799 130.748 70.207C133.046 70.7748 134.185 73.4323 133.881 76.0898C133.578 78.7472 132.135 80.9958 130.597 82.8583C129.21 84.5618 127.71 86.1063 126.381 87.878C125.052 89.6496 123.761 91.5576 122.128 92.9431C118.843 95.7368 114.742 95.5324 110.925 95.2826C106.691 95.01 102.59 95.1236 98.4503 96.2138C97.5579 96.4409 97.9376 98.099 98.83 97.8492L98.8111 97.8719Z" fill="#B5C3CD" fill-opacity="0.5"/>
<path d="M88.4275 100.915C89.7566 100.847 91.0668 100.688 92.3769 100.484C92.7377 100.416 92.9845 99.8252 92.8706 99.4391C92.7377 98.9621 92.3959 98.7804 91.9972 98.8485C91.9972 98.8485 91.7693 98.894 91.8833 98.8485C91.7883 98.8485 91.7124 98.8713 91.6174 98.894C91.4655 98.894 91.3136 98.9394 91.1807 98.9621C90.8769 99.0075 90.5731 99.053 90.2503 99.0757C89.6427 99.1438 89.0161 99.1892 88.3895 99.212C88.0098 99.212 87.668 99.5981 87.668 100.075C87.668 100.529 87.9908 100.938 88.3895 100.938L88.4275 100.915Z" fill="#B5C3CD" fill-opacity="0.5"/>
<path d="M23.0906 59.1684C20.4702 62.9389 20.5652 68.9125 23.5652 72.3422C25.3121 74.341 27.6856 75.3631 28.9957 77.907C30.192 80.2464 31.0654 83.0175 33.4958 83.8124C34.3883 84.1077 34.768 82.4496 33.8756 82.1771C31.673 81.4502 31.0464 78.4294 29.8882 76.4306C28.7299 74.4318 27.1349 73.4551 25.5969 72.1378C22.4829 69.4576 21.5525 64.0518 24.0969 60.3722C24.6855 59.5318 23.6792 58.328 23.0906 59.1684Z" fill="#B5C3CD" fill-opacity="0.5"/>
<path d="M26.5058 80.9505C31.6325 95.6687 46.6708 94.7829 57.7027 94.8965C61.3294 94.9419 64.9181 95.6688 68.5447 95.646C72.1714 95.6233 75.2474 94.1242 78.6652 93.4428C84.5134 92.2845 90.8743 93.4883 95.9441 89.0819C96.6846 88.4459 95.9631 86.9695 95.2225 87.6055C90.5895 91.6258 84.7413 90.7627 79.3677 91.6031C76.1398 92.1255 73.0638 93.6245 69.8169 93.8971C66.57 94.1697 63.5509 93.4201 60.4369 93.2611C49.6139 92.7387 33.1325 95.5098 27.9109 80.4735C27.5691 79.4741 26.183 79.9057 26.5438 80.9278L26.5058 80.9505Z" fill="#B5C3CD" fill-opacity="0.5"/>
<path d="M91.6717 85.2887C94.2161 82.2905 98.1086 82.6766 101.393 81.9952C105.153 81.223 108.058 78.2475 111.647 76.9756C114.837 75.8399 118.558 76.9074 120.894 73.4096C122.641 70.7975 122.869 67.1407 122.033 64.0289C121.748 62.9841 120.381 63.4384 120.666 64.4832C121.634 68.0719 120.913 72.8417 117.571 74.1591C115.938 74.7951 114.172 74.6361 112.482 74.9995C110.792 75.3629 109.387 76.1352 107.944 77.021C106.387 77.975 104.868 79.0652 103.197 79.7239C101.64 80.3371 100.007 80.5416 98.3744 80.7687C95.5832 81.1548 92.773 81.6318 90.6844 84.0849C90.0388 84.8571 91.0452 86.0609 91.6907 85.2887H91.6717Z" fill="#B5C3CD" fill-opacity="0.5"/>
<path d="M126.932 72.5918C127.406 75.59 125.602 78.1566 123.818 79.9509C121.919 81.8816 119.735 83.4261 117.419 84.5163C116.583 84.9252 116.944 86.5605 117.798 86.1517C120.476 84.9025 122.944 83.1308 125.109 80.8595C127.273 78.5881 128.849 75.6127 128.299 72.1375C128.128 71.07 126.761 71.5243 126.932 72.5918Z" fill="#B5C3CD" fill-opacity="0.5"/>
<path d="M34.1571 61.3714C33.7774 64.8012 34.7837 68.3217 36.8154 70.7748C39.5117 74.0001 43.0434 73.6367 46.4232 74.9995C48.284 75.749 49.7651 77.2935 51.4929 78.3837C53.0309 79.3604 54.7019 79.951 56.4108 80.2463C60.0184 80.8595 63.6641 80.2462 67.2528 79.6103C68.1642 79.4513 67.7654 77.8159 66.873 77.9749C63.6071 78.5655 60.2653 79.1333 56.9614 78.6336C55.2145 78.3838 53.5246 77.7932 51.9866 76.7711C50.6385 75.8626 49.4043 74.6815 47.9802 73.9092C45.151 72.3647 41.6953 72.8644 39.056 70.7748C36.4167 68.6851 35.1635 65.0283 35.5812 61.3714C35.6951 60.2812 34.271 60.3039 34.1571 61.3714Z" fill="#B5C3CD" fill-opacity="0.5"/>
<path d="M68.832 82.9038C73.465 83.3354 78.136 82.177 82.2563 79.6104C83.0728 79.1107 82.3513 77.6343 81.5348 78.134C77.6233 80.5643 73.2182 81.6092 68.832 81.2003C67.9206 81.1095 67.9206 82.813 68.832 82.9038Z" fill="#B5C3CD" fill-opacity="0.5"/>
<path d="M85.0835 73.5005C86.7355 72.2513 88.5393 71.3427 90.495 70.9566C92.6027 70.525 94.6913 70.9793 96.799 70.7749C98.5269 70.5932 100.084 69.7074 101.774 69.3212C103.635 68.8897 105.457 69.5484 107.299 69.7755C108.742 69.9572 110.185 69.8663 111.42 68.8897C111.97 68.4581 112.388 67.8221 112.901 67.3452C113.622 66.6411 114.496 66.3231 115.255 65.7098C117.477 63.9382 118.369 60.5539 117.648 57.533C117.401 56.4882 116.015 56.9197 116.28 57.9873C116.717 59.8043 116.451 61.7122 115.445 63.1886C114.439 64.665 112.863 65.0738 111.723 66.3231C110.356 67.7767 109.141 68.3218 107.299 68.0947C105.742 67.8903 104.223 67.3679 102.647 67.4814C101.223 67.5723 99.894 68.2083 98.5269 68.6625C96.723 69.2531 94.9572 69.0714 93.0964 69.0487C89.9824 69.026 87.0013 70.0481 84.362 72.0468C83.5835 72.6374 84.305 74.1137 85.0835 73.5232V73.5005Z" fill="#B5C3CD" fill-opacity="0.5"/>
<path d="M39.7028 50.628C39.0193 54.8981 41.7915 57.5329 44.4308 59.6907C48.0195 62.6434 51.5512 64.9829 56.0133 65.051C58.4627 65.0737 60.7792 64.9374 63.1907 65.528C65.2414 66.0277 67.311 66.7545 69.4187 66.8226C73.9188 66.9816 77.5834 63.4384 81.9696 62.9387C82.881 62.8251 82.881 61.1216 81.9696 61.2352C78.6467 61.6213 75.8365 63.6655 72.6656 64.6649C68.7351 65.8914 65.1085 63.9381 61.235 63.4384C57.0766 62.916 53.3171 63.8245 49.4246 61.4169C46.4435 59.5771 40.3104 55.9202 41.0889 51.0823C41.2598 50.0148 39.8927 49.5605 39.7218 50.628H39.7028Z" fill="#B5C3CD" fill-opacity="0.5"/>
<path d="M78.1342 58.3506C80.6406 57.8282 83.128 58.8957 85.5964 59.2137C88.0648 59.5317 90.6471 58.9184 93.0396 57.9872C94.9004 57.2604 97.2359 56.5562 98.4321 54.5347C99.6283 52.5133 99.3245 49.9239 98.7929 47.7207C98.546 46.6759 97.1789 47.1075 97.4258 48.175C97.9384 50.3328 98.2422 53.0584 96.4574 54.4893C94.7675 55.8521 92.413 56.5335 90.4572 57.0786C88.1977 57.7146 86.0331 57.6465 83.7546 57.1468C81.7419 56.6925 79.7861 56.261 77.7354 56.6925C76.843 56.8742 77.2228 58.5323 78.1152 58.3279L78.1342 58.3506Z" fill="#B5C3CD" fill-opacity="0.5"/>
<path d="M107.51 53.4446C107.909 54.7847 108.08 56.2156 107.662 57.5784C107.377 58.5551 106.694 59.4409 105.877 59.7589C105.516 59.8952 105.27 60.3494 105.384 60.8037C105.478 61.2353 105.896 61.5533 106.257 61.3943C107.529 60.8946 108.479 59.6908 108.972 58.2144C109.523 56.5563 109.371 54.6257 108.877 52.9676C108.744 52.536 108.384 52.2408 108.004 52.3771C107.662 52.4906 107.377 52.9903 107.51 53.4219V53.4446Z" fill="#B5C3CD" fill-opacity="0.5"/>
<path d="M101.585 58.3052C99.8574 59.5317 97.8637 60.0769 95.87 59.9179C95.4902 59.8952 95.1484 60.3267 95.1484 60.781C95.1484 61.258 95.4712 61.5987 95.87 61.6441C98.1105 61.8258 100.389 61.1671 102.307 59.8043C103.085 59.2365 102.383 57.7828 101.585 58.3279V58.3052Z" fill="#B5C3CD" fill-opacity="0.5"/>
<path d="M53.0329 48.5385C56.2608 56.2384 64.4255 53.3765 69.9889 52.8768C72.1156 52.6951 74.1283 53.1721 76.2169 53.3311C78.1157 53.49 80.0335 53.1948 81.9133 52.8995C85.0272 52.4225 88.0273 51.6048 90.4577 49.1064C91.1603 48.4023 90.1539 47.1984 89.4514 47.9026C86.964 50.4465 83.6411 50.9689 80.5082 51.3777C78.9512 51.5821 77.4321 51.7411 75.8751 51.5821C74.1283 51.4004 72.4384 51.0143 70.6725 51.1051C65.5458 51.3777 57.3051 54.921 54.2861 47.6527C53.8683 46.676 52.6531 47.5391 53.0519 48.5158L53.0329 48.5385Z" fill="#B5C3CD" fill-opacity="0.5"/>
<path d="M84.2486 43.496C86.4702 42.701 88.274 40.3161 88.5778 37.5678C88.6348 37.1363 88.4829 36.6366 88.0841 36.523C87.7424 36.4321 87.2677 36.6366 87.2107 37.1136C87.1727 37.4088 87.1348 37.7268 87.0588 38.0221C87.0208 38.1584 86.9829 38.2946 86.9449 38.4309C86.9259 38.4991 86.9069 38.5672 86.8689 38.6353C86.831 38.7262 86.9069 38.5445 86.8689 38.6808C86.755 38.9533 86.6411 39.2259 86.5082 39.4985C86.4512 39.612 86.3752 39.7256 86.3183 39.8392C86.3183 39.8619 86.2803 39.9073 86.2613 39.93C86.2993 39.8619 86.2993 39.8619 86.2613 39.93C86.2233 39.9981 86.1854 40.0436 86.1474 40.1117C85.9955 40.3388 85.8056 40.5433 85.6347 40.7477C85.5778 40.7931 85.5398 40.8385 85.4828 40.9067C85.4638 40.9067 85.3119 41.0657 85.4259 40.9748C85.3309 41.0657 85.236 41.1338 85.141 41.2247C84.9322 41.3837 84.7233 41.5427 84.4955 41.6562C84.4385 41.6789 84.3815 41.7244 84.3246 41.7471C84.4385 41.6789 84.2866 41.7471 84.2486 41.7698C84.1347 41.8152 84.0018 41.8606 83.8878 41.9061C83.5271 42.0424 83.2612 42.5193 83.3942 42.9509C83.5271 43.3824 83.8879 43.6777 84.2676 43.5414L84.2486 43.496Z" fill="#B5C3CD" fill-opacity="0.5"/>
<path d="M63.4175 34.9103C65.3163 35.9779 67.1201 37.3634 69.2467 37.6814C70.2721 37.8177 71.2594 37.6587 72.2278 37.2044C73.1962 36.7501 74.1456 36.364 75.2469 36.4321C76.1583 36.5003 76.1583 34.7968 75.2469 34.7286C74.3355 34.6605 73.3671 34.8422 72.4936 35.251C71.5443 35.6826 70.7088 36.0914 69.6645 36.0233C67.6708 35.887 65.9049 34.4561 64.139 33.4567C63.3226 32.9797 62.601 34.4561 63.4175 34.9331V34.9103Z" fill="#B5C3CD" fill-opacity="0.5"/>
<path d="M72.0976 41.8153C74.9838 42.0424 77.8889 41.0884 80.2813 39.1351C80.6041 38.8852 80.7371 38.3855 80.5282 37.9767C80.3383 37.5906 79.8636 37.4089 79.5598 37.6814C77.3572 39.4758 74.7559 40.3389 72.0976 40.1345C71.1862 40.0663 71.1862 41.7698 72.0976 41.838V41.8153Z" fill="#B5C3CD" fill-opacity="0.5"/>
<path d="M79.2372 36.7275C80.3195 36.2732 81.2499 35.4328 81.8765 34.2745C82.0854 33.911 81.9525 33.3205 81.6297 33.1161C81.2689 32.8889 80.8702 33.0252 80.6613 33.4113C80.6043 33.5249 80.5284 33.6385 80.4524 33.752L80.5664 33.5703C80.3385 33.911 80.0917 34.2063 79.8069 34.4789L79.9588 34.3426C79.655 34.6152 79.3512 34.8423 79.0094 35.024L79.1803 34.9331C79.0853 34.9786 78.9904 35.024 78.8954 35.0694C78.7246 35.1376 78.5727 35.2738 78.4777 35.4556C78.3828 35.6373 78.3448 35.9098 78.4018 36.1142C78.5157 36.5231 78.8954 36.8638 79.2752 36.7048L79.2372 36.7275Z" fill="#B5C3CD" fill-opacity="0.5"/>
<path d="M25.7481 65.2783L27.0013 64.9149C27.1722 64.8695 27.3431 64.7105 27.4191 64.5288C27.495 64.3471 27.552 64.0745 27.495 63.8701C27.438 63.6657 27.3241 63.4612 27.1722 63.3704C27.0203 63.2795 26.8115 63.2341 26.6216 63.2795L25.3684 63.643C25.1975 63.6884 25.0266 63.8474 24.9507 64.0291C24.8747 64.2108 24.8177 64.4833 24.8747 64.6878C24.9317 64.8922 25.0456 65.0966 25.1975 65.1875C25.3494 65.2783 25.5583 65.3237 25.7481 65.2783Z" fill="#B5C3CD" fill-opacity="0.5"/>
<path d="M29.3752 63.2112L30.9132 62.4162C31.0651 62.3481 31.198 62.0982 31.236 61.9165C31.2739 61.7121 31.255 61.4396 31.16 61.2578C31.0651 61.0761 30.9132 60.9171 30.7423 60.8717H30.5524C30.4195 60.849 30.3056 60.8717 30.1916 60.9626L28.6536 61.7575C28.5017 61.8257 28.3688 62.0755 28.3308 62.2572C28.2929 62.4617 28.3118 62.7342 28.4068 62.9159C28.5017 63.0976 28.6536 63.2566 28.8245 63.3021H29.0144C29.1473 63.3248 29.2612 63.302 29.3752 63.2112Z" fill="#B5C3CD" fill-opacity="0.5"/>
<path d="M28.7083 67.5495C28.9931 67.4133 29.2779 67.277 29.5437 67.0726C29.8095 66.8681 30.0374 66.641 30.2652 66.3912C30.3982 66.2322 30.4741 66.005 30.4741 65.7779C30.4741 65.5508 30.3982 65.3236 30.2652 65.1646C30.1323 65.0056 29.9425 64.9148 29.7526 64.9148C29.5627 64.9148 29.3918 65.0056 29.2399 65.1646C29.145 65.2782 29.031 65.3918 28.9171 65.5053L29.069 65.3691C28.8412 65.5735 28.5753 65.7552 28.3095 65.8915L28.4804 65.8006C28.4804 65.8006 28.3855 65.846 28.3285 65.8688C28.2336 65.8915 28.1576 65.9369 28.0817 66.0277C28.0057 66.0959 27.9487 66.164 27.8918 66.2776C27.7968 66.4593 27.7589 66.7319 27.8158 66.9363C27.8728 67.1407 27.9867 67.3451 28.1386 67.436C28.2905 67.5268 28.5184 67.595 28.6893 67.5268L28.7083 67.5495Z" fill="#B5C3CD" fill-opacity="0.5"/>
<path d="M38.6017 60.8718C38.8675 60.7583 39.1334 60.622 39.3612 60.4176C39.4941 60.304 39.6271 60.1677 39.76 60.0314C39.8929 59.8951 39.9878 59.7361 40.0828 59.5544C40.1397 59.4636 40.1587 59.35 40.1587 59.2365C40.1777 59.1229 40.1587 59.0093 40.1587 58.8958C40.1207 58.6913 39.9878 58.4869 39.8359 58.3961C39.665 58.2825 39.4752 58.2371 39.2853 58.3052L39.1144 58.3961C39.0005 58.4642 38.9245 58.5778 38.8675 58.6913C38.8675 58.6913 38.8675 58.6913 38.8486 58.7141L38.9625 58.5323C38.8486 58.7141 38.7156 58.8503 38.5827 58.9866L38.7346 58.8503C38.5827 58.9866 38.4118 59.1002 38.2409 59.191L38.4118 59.1002C38.4118 59.1002 38.2979 59.1456 38.2599 59.1683C38.089 59.2365 37.9371 59.3727 37.8422 59.5544C37.7852 59.6453 37.7663 59.7589 37.7663 59.8724C37.7473 59.986 37.7663 60.0996 37.7663 60.2131C37.8232 60.4176 37.9371 60.622 38.089 60.7128C38.2409 60.8037 38.4498 60.8718 38.6397 60.8037L38.6017 60.8718Z" fill="#B5C3CD" fill-opacity="0.5"/>
<path d="M41.4689 64.4831L42.7221 63.5746C42.874 63.461 43.0069 63.2793 43.0449 63.0749C43.0829 62.8705 43.0639 62.5979 42.9689 62.4162C42.874 62.2345 42.7221 62.0755 42.5512 62.0301C42.3803 61.9847 42.1715 61.9847 42.0006 62.121L40.7474 63.0295C40.5955 63.1431 40.4626 63.3248 40.4246 63.5292C40.3866 63.7336 40.4056 64.0062 40.5005 64.1879C40.5955 64.3696 40.7474 64.5286 40.9183 64.574C41.0892 64.6194 41.298 64.6194 41.4689 64.4831Z" fill="#B5C3CD" fill-opacity="0.5"/>
<path d="M42.7795 84.857L43.2542 83.9258C43.2542 83.9258 43.3302 83.7214 43.3302 83.6078C43.3492 83.4942 43.3302 83.3807 43.3302 83.2671C43.3112 83.1535 43.2732 83.0627 43.1973 82.9718C43.1403 82.881 43.0833 82.8128 42.9884 82.7447C42.8175 82.6311 42.6276 82.5857 42.4378 82.6538L42.2669 82.7447C42.1529 82.8128 42.077 82.9264 42.02 83.04L41.5453 83.9712C41.5453 83.9712 41.4694 84.1756 41.4694 84.2892C41.4504 84.4028 41.4694 84.5163 41.4694 84.6299C41.4884 84.7435 41.5263 84.8343 41.6023 84.9252C41.6593 85.016 41.7162 85.0842 41.8112 85.1523C41.982 85.2659 42.1719 85.3113 42.3618 85.2432L42.5327 85.1523C42.6466 85.0842 42.7226 84.9706 42.7795 84.857Z" fill="#B5C3CD" fill-opacity="0.5"/>
<path d="M46.6131 85.0387L47.2777 83.9939C47.2777 83.9939 47.3916 83.8349 47.4296 83.7214C47.4676 83.6305 47.4865 83.517 47.4865 83.4034C47.4865 83.2898 47.4865 83.1763 47.4296 83.0854C47.3916 82.9718 47.3536 82.881 47.2777 82.8128C47.1448 82.6538 46.9549 82.563 46.765 82.563H46.5751C46.4612 82.6311 46.3473 82.6993 46.2523 82.8128L45.5878 83.8576C45.5878 83.8576 45.4738 84.0166 45.4359 84.1302C45.3979 84.2211 45.3789 84.3346 45.3789 84.4482C45.3789 84.5618 45.3789 84.6753 45.4359 84.7662C45.4738 84.8798 45.5118 84.9706 45.5878 85.0387C45.7207 85.1977 45.9106 85.2886 46.1004 85.2886H46.2903C46.4042 85.2205 46.5182 85.1523 46.6131 85.0387Z" fill="#B5C3CD" fill-opacity="0.5"/>
<path d="M3.83482 72.5919C4.44242 72.6373 5.08801 72.5237 5.67663 72.2739C5.84752 72.2057 5.99942 72.0922 6.09436 71.8878C6.1893 71.706 6.22727 71.4335 6.17031 71.2291C6.11335 71.0246 5.99942 70.8202 5.84752 70.7294C5.69562 70.6385 5.48675 70.5704 5.29687 70.6385C5.01206 70.7521 4.72724 70.8429 4.44242 70.8884H4.6323C4.36647 70.8884 4.10064 70.9111 3.83482 70.8884C3.66393 70.8884 3.45506 71.0019 3.32215 71.1382C3.18923 71.2745 3.11328 71.5243 3.11328 71.7515C3.11328 72.2285 3.41709 72.5692 3.83482 72.6146V72.5919Z" fill="#B5C3CD" fill-opacity="0.5"/>
<path d="M6.34161 74.9767C7.08213 74.8632 7.80366 74.5679 8.46824 74.1363C8.79103 73.9319 8.92394 73.3414 8.71508 72.978C8.50621 72.5691 8.08848 72.4556 7.7467 72.6827C7.5948 72.7735 7.42391 72.8644 7.27201 72.9552L7.4429 72.8644C6.9682 73.0915 6.47452 73.2505 5.96185 73.3414C5.79096 73.3641 5.62007 73.5685 5.54412 73.7275C5.44918 73.9092 5.41121 74.1818 5.46817 74.3862C5.52513 74.5906 5.63906 74.795 5.79096 74.8859L5.96185 74.9767C6.09477 75.0222 6.20869 75.0222 6.34161 74.9767Z" fill="#B5C3CD" fill-opacity="0.5"/>
<path d="M8.90567 78.2702C9.13353 78.2702 9.38037 78.2702 9.60822 78.1793C9.83607 78.0885 10.0639 77.9976 10.2538 77.8841C10.4057 77.7932 10.5386 77.5661 10.5766 77.3844C10.6146 77.2708 10.6146 77.1572 10.5766 77.0437C10.5766 76.9301 10.5386 76.8165 10.5006 76.7257C10.4057 76.544 10.2538 76.385 10.0829 76.3396C9.91202 76.2941 9.70316 76.3169 9.53227 76.4304C9.4753 76.4758 9.41834 76.4986 9.36138 76.5213L9.53227 76.4304C9.38037 76.4986 9.22846 76.5667 9.05757 76.5894H9.24745C9.13352 76.5894 9.0196 76.5894 8.90567 76.5894C8.81073 76.5894 8.71579 76.5894 8.63984 76.6575C8.5449 76.703 8.46895 76.7484 8.41199 76.8393C8.33604 76.9074 8.29806 76.9982 8.26009 77.1118C8.22211 77.2027 8.20312 77.3162 8.20312 77.4298C8.20312 77.6569 8.27908 77.8841 8.41199 78.0431L8.56389 78.1793C8.67782 78.2475 8.79174 78.2929 8.92466 78.2929L8.90567 78.2702Z" fill="#B5C3CD" fill-opacity="0.5"/>
<path d="M17.7909 69.2757C17.9428 69.2303 18.0947 69.1849 18.2467 69.1167C18.4555 69.0259 18.6454 68.9123 18.8353 68.776C18.9872 68.6625 19.1201 68.4807 19.1581 68.2763C19.196 68.1628 19.196 68.0492 19.1581 67.9356C19.1581 67.8221 19.1201 67.7085 19.0821 67.6176C18.9872 67.4359 18.8353 67.2769 18.6644 67.2315C18.4935 67.1861 18.2846 67.1861 18.1137 67.3224C17.9998 67.4132 17.8669 67.4814 17.734 67.5495L17.9049 67.4586C17.734 67.5495 17.5821 67.5949 17.3922 67.6404C17.2973 67.6631 17.2213 67.7085 17.1454 67.7993C17.0694 67.8675 17.0124 67.9356 16.9555 68.0492C16.8985 68.14 16.8795 68.2536 16.8795 68.3672C16.8605 68.4808 16.8795 68.5943 16.8795 68.7079C16.9365 68.9123 17.0504 69.1167 17.2023 69.2076L17.3732 69.2984C17.5061 69.3439 17.6201 69.3439 17.753 69.2984L17.7909 69.2757Z" fill="#B5C3CD" fill-opacity="0.5"/>
<path d="M116.906 68.9123L117.457 69.2984C117.457 69.2984 117.627 69.3893 117.722 69.3893C117.817 69.412 117.912 69.3893 118.007 69.3893C118.102 69.3665 118.178 69.3211 118.254 69.2303C118.33 69.1621 118.387 69.094 118.444 68.9804L118.52 68.776C118.558 68.617 118.558 68.4807 118.52 68.3217L118.444 68.1173C118.387 67.981 118.292 67.8902 118.197 67.822L117.646 67.4359C117.646 67.4359 117.476 67.3451 117.381 67.3451C117.286 67.3223 117.191 67.3451 117.096 67.3451C117.001 67.3678 116.925 67.4132 116.849 67.504C116.773 67.5722 116.716 67.6403 116.659 67.7539L116.583 67.9583C116.545 68.1173 116.545 68.2536 116.583 68.4126L116.659 68.617C116.716 68.7533 116.811 68.8441 116.906 68.9123Z" fill="#B5C3CD" fill-opacity="0.5"/>
<path d="M114.326 70.2298L115.105 71.161C115.105 71.161 115.237 71.2973 115.332 71.3427C115.408 71.3882 115.503 71.4109 115.598 71.4109C115.693 71.4109 115.788 71.4109 115.864 71.3427C115.959 71.2973 116.035 71.2519 116.092 71.161C116.225 71.002 116.301 70.7749 116.301 70.5478C116.301 70.3206 116.225 70.1162 116.092 69.9345L115.313 69.0033C115.313 69.0033 115.181 68.867 115.086 68.8216C115.01 68.7761 114.915 68.7534 114.82 68.7534C114.725 68.7534 114.63 68.7534 114.554 68.8216C114.459 68.867 114.383 68.9124 114.326 69.0033C114.193 69.1623 114.117 69.3894 114.117 69.6165C114.117 69.8437 114.193 70.0481 114.326 70.2298Z" fill="#B5C3CD" fill-opacity="0.5"/>
<path d="M110.623 60.9854L111.838 61.7576C112.009 61.8712 112.199 61.8939 112.389 61.8485C112.56 61.8031 112.731 61.6441 112.807 61.4624C112.902 61.2579 112.94 61.0308 112.883 60.8037C112.826 60.5993 112.712 60.3948 112.56 60.304L111.345 59.5317C111.174 59.4182 110.984 59.3955 110.794 59.4409C110.623 59.4863 110.452 59.6453 110.376 59.827C110.281 60.0314 110.243 60.2586 110.3 60.4857C110.357 60.6901 110.471 60.8945 110.623 60.9854Z" fill="#B5C3CD" fill-opacity="0.5"/>
<path d="M123.915 74.0228L124.902 74.2953C125.092 74.3408 125.282 74.3181 125.453 74.2045C125.529 74.1591 125.605 74.0682 125.662 73.9774C125.719 73.8865 125.776 73.7956 125.795 73.6821C125.833 73.4549 125.833 73.2278 125.719 73.0234C125.624 72.8417 125.472 72.6827 125.301 72.6373L124.314 72.3647C124.124 72.3193 123.934 72.342 123.763 72.4556C123.687 72.501 123.611 72.5918 123.554 72.6827C123.497 72.7735 123.44 72.8644 123.421 72.978C123.383 73.2051 123.383 73.4322 123.497 73.6367C123.592 73.8184 123.744 73.9774 123.915 74.0228Z" fill="#B5C3CD" fill-opacity="0.5"/>
<path d="M129.762 75.4312L130.978 75.7037C130.978 75.7037 131.168 75.7492 131.263 75.7037C131.357 75.7037 131.452 75.6583 131.528 75.6129C131.68 75.4993 131.813 75.3176 131.851 75.1132C131.889 74.8861 131.889 74.6589 131.775 74.4545C131.68 74.2728 131.528 74.1138 131.357 74.0684L130.142 73.7958C130.142 73.7958 129.952 73.7504 129.857 73.7958C129.762 73.7958 129.668 73.8412 129.592 73.8867C129.44 74.0002 129.307 74.1819 129.269 74.3864C129.231 74.6135 129.231 74.8406 129.345 75.0451C129.44 75.2268 129.592 75.3858 129.762 75.4312Z" fill="#B5C3CD" fill-opacity="0.5"/>
<path d="M88.8244 43.6324C88.8244 43.6324 88.9953 43.7005 89.0903 43.746L88.9194 43.6551C89.0713 43.7233 89.2232 43.8368 89.3561 43.9504L89.2042 43.8141C89.3371 43.9277 89.451 44.0867 89.546 44.223L89.4321 44.0412C89.4321 44.0412 89.47 44.1094 89.489 44.1321C89.6029 44.3138 89.7359 44.4728 89.9067 44.5182C90.0017 44.5637 90.0966 44.5637 90.1916 44.5182C90.2865 44.5182 90.3814 44.4728 90.4574 44.4274C90.6093 44.3138 90.7422 44.1321 90.7802 43.9277C90.8182 43.7233 90.8182 43.4507 90.7042 43.269C90.6093 43.0873 90.4954 42.9283 90.3814 42.792C90.2675 42.6557 90.1156 42.5194 89.9827 42.4059C89.8878 42.315 89.7928 42.2469 89.6789 42.2015C89.527 42.1106 89.3561 42.0198 89.1852 41.9743C89.0143 41.9289 88.8055 41.9516 88.6346 42.0652C88.4827 42.1787 88.3497 42.3605 88.3118 42.5649C88.2738 42.792 88.2738 43.0191 88.3877 43.2236C88.5017 43.428 88.6346 43.5643 88.8055 43.6097L88.8244 43.6324Z" fill="#B5C3CD" fill-opacity="0.5"/>
<path d="M87.3065 45.5176L87.6293 45.9038C87.6293 45.9038 87.7622 46.04 87.8572 46.0855C87.9331 46.1309 88.0281 46.1536 88.123 46.1536C88.2179 46.1536 88.3129 46.1536 88.3888 46.0855C88.4838 46.04 88.5597 45.9946 88.6167 45.9038L88.7306 45.722C88.7876 45.5858 88.8255 45.4495 88.8255 45.2905V45.0634C88.7686 44.9271 88.7116 44.7908 88.6167 44.6772L88.2939 44.2911C88.2939 44.2911 88.161 44.1548 88.066 44.1094C87.9901 44.064 87.8951 44.0413 87.8002 44.0413C87.7053 44.0413 87.6103 44.0413 87.5344 44.1094C87.4394 44.1548 87.3635 44.2003 87.3065 44.2911L87.1926 44.4728C87.1356 44.6091 87.0977 44.7454 87.0977 44.9044V45.1315C87.1546 45.2678 87.2116 45.4041 87.3065 45.5176Z" fill="#B5C3CD" fill-opacity="0.5"/>
<path d="M93.0984 50.4464L94.5225 50.9688C94.6934 51.037 94.9212 50.9916 95.0732 50.878C95.2251 50.7644 95.358 50.5827 95.3959 50.3783C95.4339 50.1512 95.4339 49.924 95.32 49.7196C95.2061 49.5152 95.0732 49.4016 94.9023 49.3335L93.4782 48.8111C93.3073 48.7429 93.0794 48.7884 92.9275 48.9019C92.7756 49.0155 92.6427 49.1972 92.6047 49.4016C92.5668 49.6287 92.5668 49.8559 92.6807 50.0603C92.7946 50.2647 92.9275 50.3783 93.0984 50.4464Z" fill="#B5C3CD" fill-opacity="0.5"/>
<path d="M91.5019 53.2629L92.4893 54.0578C92.4893 54.0578 92.6601 54.1487 92.7551 54.1487C92.85 54.1714 92.945 54.1487 93.0399 54.1487C93.1348 54.126 93.2108 54.0805 93.2868 53.9897C93.3627 53.9216 93.4197 53.8534 93.4766 53.7398C93.5716 53.5354 93.6095 53.3083 93.5526 53.0812L93.4766 52.8767C93.4197 52.7405 93.3247 52.6496 93.2298 52.5815L92.2424 51.7865C92.2424 51.7865 92.0715 51.6956 91.9766 51.6956C91.8817 51.6729 91.7867 51.6956 91.6918 51.6956C91.5968 51.7184 91.5209 51.7638 91.4449 51.8546C91.369 51.9228 91.312 51.9909 91.2551 52.1045C91.1601 52.3089 91.1221 52.536 91.1791 52.7632L91.2551 52.9676C91.312 53.1039 91.407 53.1947 91.5019 53.2629Z" fill="#B5C3CD" fill-opacity="0.5"/>
<path d="M55.843 45.0632C56.3746 44.8815 56.8873 44.6089 57.343 44.2001C57.419 44.1547 57.4949 44.0638 57.5519 43.973C57.6088 43.8821 57.6658 43.7913 57.6848 43.6777C57.7228 43.4733 57.7038 43.2007 57.6088 43.019C57.5139 42.8373 57.362 42.6783 57.1911 42.6329C57.0202 42.5875 56.7924 42.5875 56.6405 42.7237C56.3936 42.9509 56.1088 43.1326 55.824 43.2916L55.9949 43.2007C55.824 43.2916 55.6721 43.3597 55.5012 43.4051C55.3303 43.4506 55.1594 43.6096 55.0835 43.7913C55.0075 43.973 54.9506 44.2455 55.0075 44.45C55.0645 44.6544 55.1784 44.8588 55.3303 44.9496C55.4822 45.0405 55.6911 45.1086 55.881 45.0405L55.843 45.0632Z" fill="#B5C3CD" fill-opacity="0.5"/>
<path d="M59.5841 46.0173C60.4575 45.6993 61.293 45.0634 61.8626 44.2002C61.9765 44.0185 62.0715 43.8368 62.0715 43.587C62.0715 43.3826 61.9955 43.1327 61.8626 42.9737C61.7297 42.8147 61.5398 42.7239 61.3499 42.7239C61.1791 42.7239 60.9702 42.792 60.8373 42.9737C60.6284 43.269 60.4006 43.5416 60.1537 43.7914L60.3056 43.6551C60.0398 43.905 59.736 44.1094 59.4132 44.2684L59.5841 44.1775C59.4512 44.2457 59.3372 44.2911 59.2043 44.3365C59.0334 44.4047 58.8625 44.5409 58.7866 44.7227C58.7106 44.9044 58.6537 45.1769 58.7106 45.3813C58.8246 45.8129 59.2043 46.1082 59.5841 45.9719V46.0173Z" fill="#B5C3CD" fill-opacity="0.5"/>
<path d="M46.8049 50.9007L48.5517 49.8331C48.7036 49.7423 48.8365 49.5151 48.8745 49.3334C48.9125 49.1517 48.8935 48.8565 48.7986 48.6747C48.5707 48.2659 48.172 48.1523 47.8302 48.3795L46.0833 49.447C45.9314 49.5379 45.7985 49.765 45.7605 49.9467C45.7225 50.1284 45.7415 50.4237 45.8365 50.6054C46.0643 51.0142 46.4631 51.1278 46.8049 50.9007Z" fill="#B5C3CD" fill-opacity="0.5"/>
<path d="M57.2674 185.25L58.9953 184.569C59.1662 184.501 59.3181 184.364 59.413 184.183C59.5079 184.001 59.5459 183.728 59.489 183.524C59.432 183.32 59.3181 183.115 59.1662 183.024C59.0143 182.933 58.8054 182.865 58.6155 182.933L56.8876 183.615C56.7167 183.683 56.5648 183.819 56.4699 184.001C56.375 184.183 56.337 184.455 56.394 184.66C56.4509 184.864 56.5648 185.068 56.7167 185.159C56.8686 185.25 57.0775 185.318 57.2674 185.25Z" fill="#B5C3CD" fill-opacity="0.5"/>
<path d="M61.0255 187.34L62.6015 186.795C62.7724 186.726 62.9432 186.59 63.0192 186.409C63.0951 186.227 63.1521 185.954 63.0951 185.75C63.0382 185.545 62.9243 185.341 62.7724 185.25C62.6205 185.159 62.4116 185.091 62.2217 185.159L60.6457 185.704C60.4748 185.773 60.3039 185.909 60.228 186.091C60.152 186.272 60.0951 186.545 60.152 186.749C60.209 186.954 60.3229 187.158 60.4748 187.249C60.6267 187.34 60.8356 187.408 61.0255 187.34Z" fill="#B5C3CD" fill-opacity="0.5"/>
<path d="M49.5002 187.908L51.0761 186.681C51.228 186.567 51.361 186.386 51.3989 186.181C51.4369 185.977 51.4179 185.704 51.323 185.523C51.2281 185.341 51.0761 185.182 50.9053 185.137C50.7344 185.091 50.5255 185.091 50.3546 185.227L48.7786 186.454C48.6267 186.567 48.4938 186.749 48.4558 186.954C48.4179 187.158 48.4368 187.431 48.5318 187.612C48.6267 187.794 48.7786 187.953 48.9495 187.998C49.1204 188.044 49.3293 188.044 49.5002 187.908Z" fill="#B5C3CD" fill-opacity="0.5"/>
<path d="M42.534 197.447C42.534 197.447 42.6289 197.22 42.7049 197.129L42.5909 197.311C42.6669 197.197 42.7618 197.084 42.8758 196.97L42.7239 197.107C42.8378 197.016 42.9517 196.925 43.0656 196.857L42.8948 196.948C43.0087 196.879 43.1416 196.834 43.2745 196.811C43.3694 196.789 43.4454 196.743 43.5213 196.652C43.5973 196.584 43.6543 196.516 43.7112 196.402C43.8062 196.221 43.8441 195.948 43.7872 195.744C43.7302 195.539 43.6163 195.335 43.4644 195.244L43.2935 195.153C43.1606 195.108 43.0467 195.108 42.9137 195.153C42.7808 195.153 42.6669 195.221 42.534 195.267C42.3631 195.358 42.1922 195.448 42.0403 195.562C41.8884 195.676 41.7555 195.835 41.6416 195.994C41.5276 196.153 41.4137 196.334 41.3188 196.539C41.2618 196.63 41.2428 196.743 41.2428 196.857C41.2238 196.97 41.2428 197.084 41.2428 197.197C41.2808 197.402 41.4137 197.606 41.5656 197.697C41.7365 197.811 41.9264 197.856 42.1163 197.788C42.2871 197.72 42.458 197.584 42.534 197.402V197.447Z" fill="#B5C3CD" fill-opacity="0.5"/>
<path d="M85.5973 186.954C85.7492 186.976 85.9011 187.022 86.053 186.999C86.2049 186.976 86.3569 186.954 86.5088 186.908C86.8126 186.817 87.0594 186.636 87.3062 186.386C87.3822 186.318 87.4202 186.227 87.4581 186.113C87.4961 186.022 87.5151 185.909 87.5151 185.795C87.5151 185.591 87.4392 185.341 87.3062 185.182C87.1733 185.023 86.9834 184.932 86.7936 184.932H86.6037C86.4898 185 86.3758 185.068 86.2809 185.182C86.2809 185.182 86.2429 185.205 86.2239 185.227L86.3758 185.091C86.3758 185.091 86.2049 185.227 86.091 185.296L86.2619 185.205C86.148 185.25 86.053 185.296 85.9391 185.318H86.129C86.0151 185.318 85.9201 185.318 85.8062 185.296H85.9961C85.9961 185.296 85.9771 185.318 85.9581 185.318C85.8632 185.273 85.7682 185.273 85.6733 185.318C85.5783 185.318 85.4834 185.364 85.4075 185.409C85.3315 185.455 85.2556 185.545 85.1986 185.636C85.1416 185.727 85.0847 185.818 85.0657 185.932C85.0277 186.159 85.0277 186.386 85.1416 186.59L85.2556 186.772C85.2556 186.772 85.4454 186.954 85.5784 186.999L85.5973 186.954Z" fill="#B5C3CD" fill-opacity="0.5"/>
<path d="M87.1346 191.837L88.7106 191.11C88.8815 191.019 89.0333 190.929 89.1283 190.724C89.2232 190.542 89.2612 190.27 89.2042 190.065C89.1473 189.861 89.0334 189.657 88.8815 189.566C88.7295 189.475 88.5017 189.407 88.3308 189.475L86.7548 190.202C86.5839 190.293 86.432 190.383 86.3371 190.588C86.2422 190.77 86.2042 191.042 86.2611 191.247C86.3181 191.451 86.432 191.655 86.5839 191.746C86.7358 191.837 86.9637 191.905 87.1346 191.837Z" fill="#B5C3CD" fill-opacity="0.5"/>
<path d="M90.8768 194.222C91.4274 193.995 91.9401 193.632 92.3388 193.109C92.4717 192.95 92.5477 192.723 92.5477 192.496C92.5477 192.291 92.4717 192.042 92.3388 191.883C92.2059 191.724 92.016 191.633 91.8262 191.633C91.6363 191.633 91.4464 191.724 91.3135 191.883C91.2185 192.019 91.1046 192.132 90.9717 192.246L91.1236 192.11C90.9337 192.291 90.7249 192.428 90.497 192.541L90.6679 192.45C90.6679 192.45 90.554 192.496 90.497 192.541C90.3261 192.609 90.1742 192.746 90.0793 192.927C89.9843 193.109 89.9464 193.382 90.0033 193.586C90.0603 193.791 90.1742 193.995 90.3261 194.086C90.478 194.177 90.6869 194.245 90.8768 194.177V194.222Z" fill="#B5C3CD" fill-opacity="0.5"/>
<path d="M98.6799 181.003L100.275 180.14C100.427 180.049 100.56 179.822 100.598 179.64C100.636 179.435 100.617 179.163 100.522 178.981C100.427 178.8 100.275 178.641 100.104 178.595H99.9141C99.7811 178.572 99.6672 178.595 99.5533 178.686L97.9583 179.549C97.8064 179.64 97.6735 179.867 97.6355 180.049C97.5975 180.253 97.6165 180.526 97.7115 180.707C97.8064 180.889 97.9583 181.048 98.1292 181.094H98.3191C98.452 181.116 98.5659 181.094 98.6799 181.003Z" fill="#B5C3CD" fill-opacity="0.5"/>
<path d="M98.699 176.914C98.699 176.914 98.718 176.914 98.737 176.892L98.5851 177.028C98.737 176.892 98.8889 176.778 99.0408 176.71L98.8699 176.801C99.0408 176.71 99.2307 176.665 99.4016 176.619H99.2117C99.2117 176.619 99.2877 176.619 99.3256 176.619C99.4206 176.619 99.5155 176.619 99.5915 176.551C99.6864 176.506 99.7624 176.46 99.8193 176.369C99.9522 176.21 100.028 175.983 100.028 175.756C100.028 175.529 99.9522 175.302 99.8193 175.143C99.6864 175.006 99.4965 174.87 99.3067 174.893C99.0408 174.916 98.756 174.984 98.5092 175.097C98.3573 175.165 98.2054 175.234 98.0725 175.347C97.9395 175.461 97.7876 175.574 97.6737 175.688C97.5978 175.756 97.5598 175.847 97.5218 175.96C97.4838 176.051 97.4648 176.165 97.4648 176.278C97.4648 176.483 97.5408 176.733 97.6737 176.892C97.8066 177.051 97.9965 177.141 98.1864 177.141H98.3763C98.4902 177.073 98.6041 177.005 98.699 176.892V176.914Z" fill="#B5C3CD" fill-opacity="0.5"/>
<path d="M102.153 177.55L103.747 176.506C103.899 176.415 104.032 176.188 104.07 176.006C104.108 175.824 104.089 175.529 103.994 175.347C103.785 174.961 103.368 174.802 103.026 175.052L101.431 176.097C101.279 176.188 101.146 176.415 101.108 176.596C101.07 176.778 101.089 177.073 101.184 177.255C101.393 177.641 101.811 177.8 102.153 177.55Z" fill="#B5C3CD" fill-opacity="0.5"/>
<path d="M153.366 229.564C153.328 229.814 153.309 230.041 153.309 230.291C153.309 230.541 153.328 230.768 153.366 230.995C153.423 231.404 153.536 231.79 153.688 232.153C153.764 232.335 153.954 232.494 154.106 232.539C154.277 232.585 154.505 232.562 154.657 232.449C154.809 232.335 154.942 232.153 154.98 231.949C155.018 231.722 154.98 231.495 154.904 231.29C154.866 231.222 154.847 231.154 154.828 231.086L154.904 231.29C154.809 231.04 154.752 230.768 154.733 230.518V230.745C154.733 230.473 154.733 230.2 154.752 229.927V230.155C154.752 230.155 154.752 230.064 154.752 230.018C154.79 229.791 154.79 229.564 154.676 229.36C154.581 229.178 154.429 229.019 154.258 228.973C154.068 228.928 153.878 228.928 153.707 229.064C153.555 229.178 153.404 229.36 153.385 229.564H153.366Z" fill="#B5C3CD" fill-opacity="0.5"/>
<path d="M158.568 230.813L158.719 231.767C158.719 231.767 158.776 231.972 158.852 232.062C158.909 232.153 158.966 232.221 159.061 232.29C159.137 232.358 159.232 232.38 159.327 232.38C159.422 232.403 159.517 232.38 159.612 232.38C159.783 232.312 159.954 232.176 160.03 231.994L160.106 231.79C160.144 231.631 160.144 231.495 160.106 231.336L159.954 230.382C159.954 230.382 159.897 230.177 159.821 230.086C159.764 229.996 159.707 229.927 159.612 229.859C159.536 229.791 159.441 229.768 159.346 229.768C159.251 229.746 159.156 229.768 159.061 229.768C158.89 229.837 158.719 229.973 158.643 230.155L158.568 230.359C158.53 230.518 158.53 230.654 158.568 230.813Z" fill="#B5C3CD" fill-opacity="0.5"/>
<path d="M156.271 233.971C156.271 234.152 156.309 234.334 156.347 234.493C156.385 234.652 156.442 234.834 156.499 234.993C156.594 235.242 156.727 235.492 156.898 235.697C156.955 235.788 157.031 235.833 157.126 235.878C157.201 235.924 157.296 235.947 157.391 235.947C157.486 235.947 157.581 235.947 157.657 235.878C157.752 235.833 157.828 235.788 157.885 235.697C158.018 235.538 158.094 235.311 158.094 235.083V234.856C158.037 234.72 157.98 234.584 157.885 234.47C157.866 234.448 157.847 234.402 157.809 234.379L157.923 234.561C157.847 234.425 157.771 234.289 157.714 234.13L157.79 234.334C157.733 234.175 157.695 233.993 157.676 233.812V234.039C157.676 234.039 157.695 233.993 157.676 233.971C157.676 233.857 157.676 233.743 157.619 233.653C157.581 233.539 157.543 233.448 157.467 233.38C157.41 233.289 157.334 233.244 157.239 233.198C157.163 233.153 157.069 233.13 156.974 233.13C156.784 233.13 156.594 233.221 156.461 233.38C156.347 233.539 156.233 233.766 156.252 233.993L156.271 233.971Z" fill="#B5C3CD" fill-opacity="0.5"/>
<path d="M183.574 256.956V257.91C183.574 258.024 183.574 258.137 183.631 258.228C183.669 258.342 183.707 258.433 183.783 258.501C183.84 258.592 183.916 258.637 184.011 258.683C184.087 258.728 184.182 258.751 184.277 258.751C184.467 258.751 184.657 258.66 184.789 258.501C184.922 258.342 184.998 258.137 184.998 257.888V256.934C184.998 256.82 184.998 256.707 184.941 256.616C184.903 256.502 184.865 256.411 184.789 256.343C184.732 256.252 184.657 256.207 184.562 256.161C184.486 256.116 184.391 256.093 184.296 256.093C184.106 256.093 183.916 256.184 183.783 256.343C183.65 256.502 183.574 256.707 183.574 256.956Z" fill="#B5C3CD" fill-opacity="0.5"/>
<path d="M187.163 257.729C187.486 258.296 187.884 258.773 188.378 259.137C188.454 259.205 188.549 259.228 188.644 259.228C188.739 259.25 188.834 259.228 188.929 259.228C189.024 259.205 189.1 259.16 189.175 259.069C189.251 259.001 189.308 258.932 189.365 258.819C189.46 258.614 189.498 258.387 189.441 258.16C189.384 257.933 189.27 257.774 189.119 257.66C189.024 257.592 188.948 257.524 188.872 257.456L189.024 257.592C188.815 257.388 188.625 257.161 188.454 256.911L188.568 257.093C188.568 257.093 188.473 256.956 188.435 256.866C188.34 256.684 188.188 256.525 188.017 256.479C187.922 256.434 187.827 256.434 187.732 256.479C187.637 256.479 187.543 256.525 187.467 256.57C187.315 256.684 187.182 256.866 187.144 257.07C187.106 257.274 187.106 257.547 187.22 257.729H187.163Z" fill="#B5C3CD" fill-opacity="0.5"/>
<path d="M193.885 192.7L195.632 194.313C195.764 194.449 196.03 194.449 196.182 194.404C196.353 194.358 196.524 194.199 196.6 194.018C196.695 193.813 196.733 193.586 196.676 193.359L196.6 193.155C196.543 193.018 196.448 192.927 196.353 192.859L194.606 191.247C194.473 191.11 194.207 191.11 194.056 191.156C193.885 191.201 193.714 191.36 193.638 191.542C193.543 191.746 193.505 191.974 193.562 192.201L193.638 192.405C193.695 192.541 193.79 192.632 193.885 192.7Z" fill="#B5C3CD" fill-opacity="0.5"/>
<path d="M195.536 187.658L197.416 188.453C197.587 188.521 197.814 188.453 197.966 188.362C198.118 188.271 198.251 188.067 198.289 187.862C198.327 187.635 198.327 187.408 198.213 187.204C198.099 186.999 197.966 186.886 197.795 186.818L195.916 186.023C195.745 185.954 195.517 186.023 195.365 186.113C195.213 186.204 195.08 186.409 195.042 186.613C195.004 186.84 195.004 187.067 195.118 187.272C195.232 187.476 195.365 187.59 195.536 187.658Z" fill="#B5C3CD" fill-opacity="0.5"/>
<path d="M198.593 192.223L201.688 194.177C202.01 194.381 202.485 194.29 202.656 193.881C202.827 193.495 202.751 192.927 202.409 192.723L199.314 190.77C198.991 190.565 198.517 190.656 198.346 191.065C198.175 191.451 198.251 192.019 198.593 192.223Z" fill="#B5C3CD" fill-opacity="0.5"/>
<path d="M231.214 187.363C231.404 187.363 231.593 187.363 231.783 187.408H231.593C231.992 187.454 232.391 187.567 232.752 187.749L232.581 187.658C232.771 187.749 232.98 187.885 233.15 187.999C233.473 188.226 233.948 188.09 234.119 187.703C234.29 187.317 234.214 186.772 233.872 186.545C233.075 185.977 232.144 185.659 231.214 185.659C230.834 185.659 230.492 186.045 230.492 186.522C230.492 186.999 230.796 187.363 231.214 187.385V187.363Z" fill="#B5C3CD" fill-opacity="0.5"/>
<path d="M237.535 190.429C237.82 190.384 238.086 190.384 238.371 190.429H238.181C238.352 190.429 238.522 190.474 238.693 190.543C238.864 190.611 239.092 190.543 239.244 190.452C239.396 190.361 239.529 190.156 239.567 189.952C239.605 189.725 239.605 189.498 239.491 189.293C239.377 189.089 239.244 188.975 239.073 188.907C238.807 188.794 238.522 188.748 238.238 188.725C238.01 188.703 237.782 188.725 237.554 188.725C237.459 188.725 237.364 188.725 237.288 188.794C237.193 188.839 237.117 188.884 237.06 188.975C236.928 189.134 236.852 189.361 236.852 189.589C236.852 189.816 236.928 190.043 237.06 190.202C237.193 190.338 237.383 190.474 237.573 190.452L237.535 190.429Z" fill="#B5C3CD" fill-opacity="0.5"/>
<path d="M237.937 194.131C238.203 194.131 238.469 194.131 238.753 194.177H238.564C238.886 194.177 239.209 194.29 239.513 194.426C239.684 194.495 239.912 194.426 240.064 194.336C240.215 194.245 240.348 194.04 240.386 193.836C240.424 193.609 240.424 193.382 240.31 193.177C240.196 192.973 240.064 192.859 239.893 192.791C239.285 192.519 238.601 192.405 237.956 192.45C237.766 192.45 237.595 192.541 237.443 192.7C237.31 192.859 237.234 193.086 237.234 193.314C237.234 193.541 237.31 193.768 237.443 193.927C237.576 194.086 237.766 194.199 237.956 194.177L237.937 194.131Z" fill="#B5C3CD" fill-opacity="0.5"/>
<path d="M64.4235 32.7754C64.4995 30.5722 64.5754 28.3463 64.6514 26.1431C64.6514 25.6889 64.3096 25.28 63.9299 25.28C63.5311 25.28 63.2273 25.6662 63.2083 26.1431C63.1324 28.3463 63.0564 30.5722 62.9805 32.7754C62.9805 33.2297 63.3223 33.6385 63.702 33.6385C64.1007 33.6385 64.4046 33.2524 64.4235 32.7754Z" fill="#B5C3CD" fill-opacity="0.5"/>
<path d="M70.0471 24.3487C70.275 21.2823 70.275 18.1933 70.0471 15.127C70.0092 14.6728 69.7433 14.2639 69.3256 14.2639C68.9648 14.2639 68.5851 14.65 68.6041 15.127C68.8129 18.1933 68.8129 21.2823 68.6041 24.3487C68.5661 24.8029 68.9648 25.2118 69.3256 25.2118C69.7433 25.2118 70.0092 24.8256 70.0471 24.3487Z" fill="#B5C3CD" fill-opacity="0.5"/>
<path d="M85.0092 34.2745C84.4776 29.3457 84.0978 24.4169 83.832 19.4654C83.775 18.3751 82.351 18.3751 82.4079 19.4654C82.6737 24.4169 83.0535 29.3457 83.5852 34.2745C83.6991 35.342 85.1232 35.3647 85.0092 34.2745Z" fill="#B5C3CD" fill-opacity="0.5"/>
<path d="M89.7366 23.0314C89.148 15.6495 88.9011 8.22224 88.9961 0.817681C88.9961 -0.27256 87.591 -0.27256 87.572 0.817681C87.496 8.24495 87.7429 15.6495 88.3125 23.0314C88.3885 24.1216 89.8315 24.1216 89.7366 23.0314Z" fill="#B5C3CD" fill-opacity="0.5"/>
<path d="M44.9626 40.4298V36.8411C44.9626 36.3869 44.6398 35.978 44.2411 35.978C43.8423 35.978 43.5195 36.3414 43.5195 36.8411V40.4298C43.5195 40.8841 43.8423 41.293 44.2411 41.293C44.6398 41.293 44.9626 40.9295 44.9626 40.4298Z" fill="#B5C3CD" fill-opacity="0.5"/>
<path d="M49.427 32.5027C49.6738 28.5052 49.6738 24.4849 49.427 20.4874C49.37 19.3971 47.9459 19.3971 48.0029 20.4874C48.2497 24.4849 48.2307 28.5052 48.0029 32.5027C47.9269 33.593 49.37 33.593 49.427 32.5027Z" fill="#B5C3CD" fill-opacity="0.5"/>
<path d="M60.3047 117.95V127.081C60.3047 128.172 61.7288 128.172 61.7288 127.081V117.95C61.7288 116.86 60.3047 116.86 60.3047 117.95Z" fill="#B5C3CD" fill-opacity="0.5"/>
<path d="M69.0792 118.223C68.9842 121.994 69.0792 125.741 69.326 129.489C69.402 130.579 70.8261 130.579 70.7501 129.489C70.4843 125.741 70.4083 121.971 70.5033 118.223C70.5223 117.133 69.0982 117.133 69.0792 118.223Z" fill="#B5C3CD" fill-opacity="0.5"/>
<path d="M65.0323 134.054C64.9183 136.553 64.9943 139.074 65.2411 141.572C65.2791 142.027 65.5449 142.436 65.9627 142.436C66.3044 142.436 66.7222 142.049 66.6842 141.572C66.4374 139.074 66.3614 136.575 66.4753 134.054C66.4943 133.6 66.1336 133.191 65.7538 133.191C65.3551 133.191 65.0702 133.577 65.0323 134.054Z" fill="#B5C3CD" fill-opacity="0.5"/>
<path d="M93.3047 114.998V123.061C93.3047 124.151 94.7288 124.151 94.7288 123.061V114.998C94.7288 113.908 93.3047 113.908 93.3047 114.998Z" fill="#B5C3CD" fill-opacity="0.5"/>
<path d="M88.3682 125.469C88.2543 128.603 88.3302 131.737 88.5771 134.872C88.615 135.326 88.8809 135.735 89.2986 135.735C89.6594 135.735 90.0391 135.349 90.0201 134.872C89.7733 131.76 89.6973 128.603 89.8113 125.469C89.8492 124.378 88.4252 124.378 88.3872 125.469H88.3682Z" fill="#B5C3CD" fill-opacity="0.5"/>
<path d="M104.964 124.651C104.945 126.809 105.173 128.966 105.667 131.056C105.781 131.488 106.18 131.783 106.54 131.647C106.901 131.51 107.148 131.033 107.034 130.602C106.578 128.671 106.35 126.672 106.388 124.651C106.388 124.197 106.066 123.788 105.667 123.788C105.268 123.788 104.964 124.174 104.945 124.651H104.964Z" fill="#B5C3CD" fill-opacity="0.5"/>
<path d="M97.7864 136.734C97.7294 139.437 97.8623 142.117 98.1472 144.798C98.2041 145.252 98.432 145.661 98.8687 145.661C99.2105 145.661 99.6282 145.275 99.5902 144.798C99.3054 142.117 99.1725 139.437 99.2295 136.734C99.2484 135.644 97.8244 135.644 97.8054 136.734H97.7864Z" fill="#B5C3CD" fill-opacity="0.5"/>
<path d="M32.2617 112.567V117.928C32.2617 118.382 32.5845 118.791 32.9833 118.791C33.382 118.791 33.7048 118.427 33.7048 117.928V112.567C33.7048 112.113 33.382 111.704 32.9833 111.704C32.5845 111.704 32.2617 112.068 32.2617 112.567Z" fill="#B5C3CD" fill-opacity="0.5"/>
</g>
<defs>
<clipPath id="clip0_1754_41410">
<rect width="287" height="297" fill="white"/>
</clipPath>
</defs>
</svg>
