<svg width="107" height="124" viewBox="0 0 107 124" fill="none" xmlns="http://www.w3.org/2000/svg">
<g clip-path="url(#clip0_3033_36256)">
<path d="M62.4011 54.4828C55.9439 59.6028 50.0734 65.5799 45.5443 72.4912C41.5543 78.5871 38.9842 85.5226 37.6534 92.6662C37.1124 95.5853 36.7098 98.5261 36.2852 101.464C35.8606 104.402 35.6506 107.729 34.0179 110.332L34.518 110.432C33.8429 100.375 35.6799 90.2083 39.7451 80.9931C41.7855 76.3698 44.3704 71.978 47.4654 67.9814C50.733 63.7642 54.6146 59.986 58.3831 56.2301C59.4625 55.1493 60.5923 54.125 61.6308 53.0003C62.459 52.1087 63.5697 50.9807 63.976 49.8007C64.2291 49.055 63.8505 48.4112 63.1048 48.2052C61.903 47.8744 60.8581 48.9174 59.6846 48.5929L59.8677 48.9666C60.2369 48.0509 60.7729 47.2731 61.4916 46.6018C61.6547 46.4474 61.5 46.127 61.2768 46.1652C60.8053 46.2448 60.3558 46.2804 59.8809 46.2248C59.689 46.2 59.494 46.1658 59.3021 46.1096C58.8115 46.0855 58.5939 45.7967 58.6494 45.2589C58.9828 45.2991 59.0855 44.824 58.7489 44.743C57.8712 44.5184 57.0718 44.1837 56.3005 43.7136L56.27 44.2011C56.8669 43.9483 58.9224 43.4786 58.1844 42.4362C57.8564 41.9747 57.1232 41.6807 56.6604 41.3955C55.8354 40.8753 55.0074 40.3613 54.1825 39.8411L54.1521 40.3285C54.4443 40.2147 54.7301 40.0978 55.0223 39.984C55.1888 39.9176 55.2356 39.7446 55.1567 39.5875C54.8536 38.997 54.5568 38.4096 54.2537 37.8191L53.981 38.2253C54.9057 38.324 55.7739 38.536 56.6331 38.8927C56.7967 38.9583 56.9632 38.8762 57.0069 38.7095L57.2283 37.8538L56.8545 38.0369C58.0826 38.8519 59.4262 39.3396 60.8981 39.4906C61.1057 39.5153 61.2437 39.3483 61.2024 39.1472C60.5139 36.2055 57.0068 35.6783 55.2166 33.6571L55.1263 34.107C55.6291 33.933 56.0975 33.8754 56.6163 33.9058C56.8239 33.9148 56.9177 33.6473 56.8199 33.4966C56.2678 32.6488 55.7943 31.7693 55.3931 30.8394L55.2271 31.1731C55.4909 31.0059 55.7675 30.9864 56.0571 31.1147C56.249 31.1709 56.4152 30.9473 56.3614 30.7714C56.1494 30.1713 56.0886 29.6306 56.1658 29.0015L55.7921 29.1847C57.2837 29.7853 58.6187 30.6063 59.822 31.676C59.9418 31.7826 60.1713 31.7633 60.2306 31.5965C61.0876 29.4157 57.9689 28.1393 58.4236 26.0568L58.0498 26.24C59.01 26.8039 60.4732 27.2883 61.0427 25.9696L60.6341 26.049C60.9838 26.4036 61.3491 26.6638 61.7898 26.8987C62.0731 27.0396 62.2704 26.6745 62.0845 26.4642C61.4604 25.7612 61.3108 24.8779 61.6014 23.9938L61.1236 24.0859C61.8208 25.1944 63.315 25.49 64.3762 24.73L63.9797 24.5956L64.5672 25.8458C64.6241 25.9684 64.7532 26.0718 64.9009 26.0118L66.6068 25.3133L66.2634 25.009L65.8814 27.2612C65.8566 27.4216 65.9827 27.5943 66.1587 27.5719L67.696 27.402L67.4315 27.2233C67.7726 27.9427 67.8148 28.6155 67.5743 29.3675C67.5306 29.5028 67.6535 29.6503 67.7825 29.6752C68.2355 29.7749 68.5435 29.7239 68.9518 29.503L68.6082 29.1043C67.6456 30.361 66.9347 31.7271 66.4473 33.228C66.3754 33.4514 66.6776 33.6174 66.8535 33.5007L68.8253 32.157C69.1079 31.9678 68.8177 31.5251 68.5351 31.7143L66.5633 33.0579L66.9695 33.3306C67.4256 31.9242 68.1052 30.6367 69.0052 29.4588C69.187 29.2195 68.9286 28.9182 68.6616 29.0602L67.8851 29.153L68.0933 29.4607C68.362 28.6364 68.3069 27.8315 67.9373 27.0431C67.8868 26.9394 67.7986 26.8484 67.6728 26.8644L66.1356 27.0343L66.4129 27.345L66.795 25.0928C66.8229 24.9104 66.6464 24.7127 66.4516 24.7885L64.7457 25.487L65.0793 25.653L64.4919 24.4027C64.4224 24.2583 64.2524 24.158 64.0954 24.2684C63.2571 24.8644 62.1153 24.6498 61.5695 23.7737C61.4338 23.557 61.1542 23.6614 61.0917 23.8659C60.7481 24.9357 61.005 25.998 61.7457 26.8297L62.0403 26.3951C61.6468 26.1916 61.3162 25.9407 61.0011 25.6269C60.8876 25.5077 60.6519 25.5553 60.5925 25.7064C60.3265 26.3201 59.6348 26.3373 59.0998 26.1497C58.8135 26.0466 58.5648 25.8993 58.3035 25.7458C58.1523 25.6549 57.9608 25.7717 57.9297 25.9289C57.7303 26.8349 58.1408 27.6359 58.636 28.3769C59.188 29.209 60.2058 30.2571 59.7867 31.3365L60.1953 31.257C58.9573 30.1622 57.5846 29.3067 56.0488 28.6842C55.8978 28.6248 55.6935 28.6881 55.6751 28.8673C55.5885 29.5781 55.6559 30.232 55.8868 30.9044L56.1911 30.5611C55.7947 30.4424 55.4709 30.462 55.0908 30.642C54.9683 30.6988 54.8616 30.8343 54.9248 30.9756C55.3451 31.9464 55.8375 32.8666 56.4179 33.7521L56.6215 33.3429C56.0491 33.3095 55.5399 33.3861 54.9995 33.5727C54.7921 33.6423 54.78 33.8719 54.9092 34.0225C56.6301 35.9621 60.0963 36.4925 60.7436 39.2802L61.0478 38.9369C59.6263 38.7952 58.3298 38.3231 57.1365 37.5332C56.9822 37.4329 56.797 37.5685 56.7627 37.7164L56.5412 38.5721L56.915 38.389C56.0181 38.0135 55.0995 37.7765 54.1339 37.681C53.8949 37.6564 53.7539 37.8768 53.8612 38.0872C54.1643 38.6777 54.4611 39.2651 54.7642 39.8556L54.8986 39.4591C54.6064 39.5729 54.3205 39.6899 54.0283 39.8037C53.8021 39.8954 53.7996 40.1689 53.9979 40.2911C54.8732 40.8364 55.739 41.3849 56.6143 41.9301C56.9858 42.162 58.0306 42.556 57.5726 43.0821C57.3217 43.3656 56.5108 43.5277 56.1557 43.6731C55.9358 43.7679 55.9207 44.0352 56.1253 44.1605C56.9407 44.6525 57.7873 45.0028 58.7091 45.2336L58.8086 44.7177C58.1481 44.6405 57.7502 45.3142 58.0721 45.8827C58.6308 46.8751 60.4261 46.8179 61.3659 46.665L61.1512 46.2284C60.398 46.9374 59.8369 47.7498 59.4522 48.7128C59.3833 48.8828 59.4623 49.0398 59.6353 49.0866C60.6421 49.3675 61.3923 48.7433 62.3605 48.6438C62.6246 48.6181 63.0554 48.6046 63.2696 48.7897C63.8649 49.2979 63.3726 49.9403 63.1062 50.3497C62.6643 51.0329 62.1436 51.6692 61.6041 52.2803C59.9133 54.1799 57.9988 55.8976 56.2387 57.7313C52.7027 61.3987 49.0626 64.8966 46.0558 69.0314C40.5659 76.5642 36.789 85.326 35.0285 94.486C34.0176 99.7392 33.6831 105.117 34.0433 110.455C34.0627 110.732 34.4087 110.762 34.5434 110.555C35.9254 108.344 36.2312 105.709 36.6158 103.183C37.0004 100.657 37.3409 98.0626 37.7537 95.5116C38.6072 90.1802 39.8793 85.0333 42.114 80.0983C44.4458 74.9681 47.4076 70.3712 51.0837 66.0746C54.5842 61.9733 58.5257 58.2642 62.7447 54.9129C63.0053 54.7048 62.7245 54.2589 62.4545 54.4701L62.4011 54.4828Z" fill="#B5C3CD"/>
<path d="M69.9626 35.95C70.9747 35.7309 71.2645 36.0007 70.8416 36.772C70.7413 36.8948 70.7575 37.1149 70.9211 37.1806C71.2044 37.3058 71.497 37.4278 71.7803 37.553L71.7008 37.1444C69.7249 39.5382 68.3157 42.2925 67.5139 45.2939C67.4515 45.5298 67.738 45.6644 67.9201 45.5666C70.2694 44.2693 73.8368 42.1174 73.8241 39.0328C73.8189 36.5488 71.4917 34.8966 69.6214 33.6837L69.591 34.1711C70.122 33.9876 70.6031 33.9835 71.138 34.1396C71.4054 34.2176 71.5304 33.8557 71.3634 33.6863C70.3708 32.6665 69.6074 31.5015 69.0796 30.1788L68.7753 30.5222C69.2691 30.6187 69.7567 30.712 70.2537 30.8021C70.4173 30.8364 70.5805 30.6977 70.5644 30.5248C70.5033 29.874 70.2098 29.3432 70.001 28.7368C69.8618 28.3378 69.7161 27.857 69.948 27.454C70.3771 26.6859 71.0038 27.1311 71.4952 27.5325C72.8117 28.5957 73.8333 29.9519 74.5723 31.4659C74.7081 31.7455 75.1226 31.512 75.0403 31.2354C74.635 29.8874 74.4498 28.5231 74.4814 27.1175L74.1707 27.3949C74.5199 27.4822 74.8691 27.5695 75.2214 27.6505C75.4165 27.7004 75.5827 27.4925 75.5257 27.3071C75.2852 26.575 75.0384 25.8397 74.7979 25.1076C74.7061 24.8185 74.5923 24.5263 74.5099 24.2341C74.4403 24.011 74.3958 23.7847 74.3796 23.5489C74.5509 22.7624 74.8555 22.592 75.3061 23.0438C75.3412 23.2733 75.7094 23.4172 75.8063 23.1434C76.0938 22.3127 76.3782 21.4883 76.6595 20.6544L76.2509 20.7339C76.9311 21.2136 77.4604 21.7596 77.9021 22.4661C78.082 22.7519 78.5247 22.4617 78.3449 22.1759C77.8843 21.4443 77.3202 20.8417 76.6022 20.3433C76.4794 20.2586 76.253 20.2402 76.1936 20.4227C75.9061 21.2535 75.6217 22.0779 75.3404 22.9117L75.8406 23.0113C75.7161 22.1406 74.5399 22.0424 74.0791 22.7163C73.7374 23.2138 73.874 23.8707 74.0166 24.4049C74.3018 25.4419 74.6938 26.4536 75.0324 27.4779L75.3367 27.1346C74.9875 27.0473 74.6383 26.96 74.286 26.8789C74.1098 26.8384 73.9781 26.9928 73.9752 27.1563C73.9437 28.6091 74.1385 30.0173 74.5564 31.4031L75.0245 31.1726C74.4813 30.07 73.8 29.0559 72.9586 28.1583C72.4134 27.5809 71.4015 26.3788 70.5086 26.4215C69.8578 26.4512 69.4535 27.0903 69.351 27.6754C69.1708 28.7008 69.9556 29.5702 70.0583 30.5636L70.369 30.2862C69.8751 30.1898 69.3875 30.0965 68.8905 30.0063C68.7049 29.969 68.5135 30.1643 68.5862 30.3497C69.152 31.754 69.9627 32.9975 71.0247 34.0832L71.2501 33.6299C70.6271 33.4457 70.0423 33.469 69.4359 33.6778C69.2003 33.7569 69.2166 34.0398 69.4055 34.1652C71.1341 35.2841 73.4108 36.8641 73.3119 39.1942C73.192 41.993 69.8222 43.937 67.6551 45.1363L68.0613 45.4091C68.8381 42.5052 70.2129 39.8359 72.1229 37.5114C72.2233 37.3885 72.2071 37.1685 72.0435 37.1028C71.7602 36.9776 71.4675 36.8556 71.1843 36.7304L71.2637 37.139C72.2486 35.9641 70.6892 34.5367 69.6035 35.6143C69.3587 35.8538 69.7588 36.202 69.9941 35.9657L69.9626 35.95Z" fill="#B5C3CD"/>
<path d="M78.349 22.6098C78.5308 22.339 78.7633 22.282 79.0467 22.4386C79.327 22.6644 79.4376 22.9314 79.3722 23.2366C79.373 23.6139 79.1977 23.9664 79.0506 24.3095C78.9567 24.5298 79.2089 24.8122 79.4318 24.6483C80.0753 24.1595 80.7569 23.7996 81.5267 23.5465L81.1804 23.3114C81.3457 24.1789 81.4198 25.0403 81.3996 25.9176C81.3938 26.1188 81.6518 26.2158 81.8088 26.1211C82.4651 25.7015 82.5742 26.7452 82.5434 27.0597C82.5157 27.3365 82.3811 27.6229 82.2905 27.8841C82.1029 28.419 81.906 28.9571 81.7058 29.4858C81.3025 30.5494 80.8645 31.6037 80.4013 32.6454C80.3043 32.872 80.5028 33.0571 80.7196 33.0158C82.3414 32.676 82.9036 30.8668 83.2465 29.4511C83.8014 27.1671 83.8845 24.7898 84.7036 22.5745L84.295 22.654C84.7173 23.0996 85.1459 23.5483 85.5682 23.9939C85.6879 24.1163 85.911 24.0624 85.9768 23.9145C86.4681 22.8161 86.9626 21.7114 87.454 20.613L87.0958 20.7332C87.4893 20.9525 87.7068 21.2256 87.8492 21.6498C87.9093 21.8289 88.1736 21.8975 88.299 21.74C88.3586 21.6676 88.4839 21.4472 88.575 21.4218L89.535 21.8443L89.5044 22.2531C89.4798 22.5079 89.4331 22.7753 89.4557 23.0299C89.491 23.3851 89.5703 23.6994 89.9634 23.73C90.2716 23.7577 90.5321 23.5339 90.7487 23.3511C90.9935 23.143 91.1092 22.8315 91.4021 23.0478C91.8115 23.3457 91.5116 24.2802 91.4087 24.7238C91.3589 24.9345 91.6297 25.1321 91.8149 24.9965C92.402 24.5582 92.9356 24.0854 93.4249 23.5435L93.0098 23.5098C93.2149 23.8553 93.42 24.2007 93.6251 24.5462C93.7072 24.6812 93.9462 24.7059 94.0403 24.5799C94.5043 23.9626 95.2379 24.3981 95.3335 25.0268C95.3942 25.4575 95.1999 25.8006 94.9176 26.1156C94.8141 26.229 94.8303 26.4648 94.9971 26.5242C95.4408 26.6899 95.8782 26.8525 96.325 27.012L96.2455 26.6034C95.7029 27.2208 95.0509 28.1843 95.7442 28.9532C95.8293 29.0505 96.1818 29.1787 96.2259 29.2478C96.4405 29.5901 95.6013 29.7459 95.4347 29.8123C94.5739 30.138 93.7193 30.451 92.8552 30.7673C92.5662 30.8748 92.6614 31.2834 92.9538 31.2796C94.3184 31.2673 95.6519 31.428 96.9764 31.7491L96.7932 31.3753C96.6179 31.7279 96.4173 32.0522 96.1664 32.3671C96.0128 32.5655 96.1833 32.8859 96.4503 32.791C97.2675 32.6006 97.4286 32.987 96.9275 33.9471C96.7987 34.0008 96.7078 34.1362 96.7616 34.2808L96.9608 34.8275C96.7603 35.1518 96.4681 35.2656 96.078 35.1815C95.9113 35.1693 95.7481 35.2765 95.7673 35.4588C95.8219 36.0121 95.1748 36.3185 94.7377 36.2817C94.4484 36.2634 94.1934 36.1445 93.9322 36.0224C93.5513 35.8408 93.205 35.6057 92.821 35.4462C92.2042 35.1865 91.5468 35.0558 90.8833 35.0477C89.5092 35.0318 88.2211 35.5533 87.2168 36.483C87.0693 36.6216 87.18 36.8887 87.3624 36.9166C89.4289 37.2455 91.5008 37.1374 93.5215 36.5955L93.1781 36.2912C93.0849 36.8102 92.8844 37.1974 92.511 37.5692C92.3761 37.6984 92.4616 37.9844 92.6566 38.0029C94.0089 38.1258 95.355 38.2456 96.7073 38.3685L96.5241 37.9947L95.7406 39.2384C95.6404 39.3927 95.7791 39.5716 95.9238 39.6122C96.5909 39.8655 96.6765 40.1829 96.1774 40.5707C96.1058 40.9356 95.9237 41.0806 95.6406 41.0026C95.4267 40.9905 95.3581 41.2547 95.4371 41.4118L95.3689 41.9119C95.0707 42.1483 94.7627 42.1993 94.4543 42.0773C94.2184 42.0306 94.0011 41.9147 93.7903 41.8177C93.6014 41.7238 93.3251 41.9162 93.4199 42.1361C93.7169 42.802 93.6616 43.4499 93.2604 44.0513L93.6186 43.9311C93.1716 43.6773 92.7214 43.4141 92.2744 43.1604C92.1233 43.0695 91.9317 43.1863 91.9006 43.3435C91.4142 43.8162 90.9866 43.8391 90.6273 43.4091C90.4949 43.2805 90.3657 43.1455 90.2491 43.0011C90.1104 42.8379 89.856 42.9705 89.8155 43.1467C89.6876 43.672 90.0562 44.0046 90.0541 44.4825C90.0499 45.4699 87.7658 44.8678 87.2121 44.7023C85.384 44.1464 83.9066 42.8383 82.0817 42.2919C79.3256 41.4707 76.2741 42.2695 74.2124 44.2359C74.0774 44.3651 74.1598 44.6574 74.3579 44.6695C76.5876 44.8441 78.769 44.4685 80.7983 43.5303L80.4519 43.2952L80.4163 44.2984C80.4134 44.4304 80.5646 44.5685 80.6966 44.5399C81.5327 44.3903 82.4631 44.2092 83.2 44.7642C83.6157 45.0809 83.7988 45.4389 84.3305 45.5856C84.8213 45.7198 85.3274 45.6181 85.8242 45.6139C86.2109 45.61 86.8364 45.5049 86.6933 46.219C86.6248 46.5618 85.7455 47.0668 85.5006 47.2591C85.2306 47.4703 85.4924 47.8597 85.7908 47.7018C86.1929 47.4935 86.9731 47.7088 87.407 47.689C88.1521 47.6592 88.8999 47.4029 89.6133 47.2002L89.2796 47.0342C89.4822 47.6847 89.0148 48.1982 88.818 48.7834C88.7773 48.9124 88.9003 49.0757 89.0261 49.0911C89.5608 49.1529 90.086 49.2021 90.6176 49.3016L90.4721 48.868C89.7568 49.6745 89.0038 50.4307 88.2161 51.1618C88.0435 51.3194 88.2139 51.624 88.4308 51.5984C90.0026 51.4379 91.5554 51.1737 93.1017 50.8277L92.8178 50.4038C92.2659 51.1187 91.6541 51.7646 90.9793 52.3635C90.835 52.4958 90.9362 52.7817 91.1249 52.7971C91.6564 52.8494 91.6688 52.7613 91.8242 53.3962C91.9796 54.031 91.9732 53.965 91.3819 53.9065C91.1114 53.8819 90.98 54.162 91.1565 54.3597C91.5693 54.8242 90.7022 55.1625 90.3815 55.16C90.0608 55.1576 89.689 54.8313 89.4592 54.662C89.1537 54.4394 88.8702 54.2199 88.546 54.0351C88.3571 53.9254 88.1719 54.1082 88.1692 54.2874C88.136 54.9698 88.0997 55.6428 88.0665 56.3252L88.4433 56.0728C87.8234 55.8351 87.4514 55.3674 87.384 54.6978C87.3678 54.4935 87.0656 54.3432 86.9214 54.5384C86.5452 55.0737 86.2728 55.6214 86.0729 56.2444L86.5065 56.0989L85.3531 54.8656C85.1955 54.693 84.8971 54.8665 84.9164 55.0803C84.3576 55.4619 83.9488 55.4471 83.6869 55.0263C83.5608 54.8851 83.4379 54.7375 83.3244 54.5868C83.1762 54.4111 83.0281 54.2667 82.8612 54.113C82.7477 54.0095 82.5937 54.035 82.4902 54.1327C81.5832 54.9458 81.4466 55.7888 81.0778 56.8775C81.0349 57.3901 80.7962 57.5227 80.3618 57.2909C79.8966 57.3579 79.6729 57.1446 79.6907 56.6509C79.6429 56.3523 79.702 56.044 79.7328 55.7452C79.8129 54.9527 79.9213 54.1664 80.0171 53.3738C80.0449 53.1442 79.8151 52.9906 79.6109 53.1011C79.0016 53.4419 78.5781 53.9145 78.3059 54.5565L78.7145 54.477C78.3081 54.11 78.0746 53.7111 77.9289 53.1832C77.856 52.9035 77.4914 52.9892 77.4196 53.2126C77.2603 53.738 77.3242 54.2095 77.4636 54.7343C77.565 55.0989 77.7198 55.4507 77.7615 55.8248C77.8093 56.1234 77.7816 56.4159 77.669 56.7054C77.06 57.1878 76.6385 57.1195 76.4077 56.51C76.3254 56.2492 75.9639 56.2971 75.8984 56.5393C75.8173 56.8445 75.7709 57.2062 75.6488 57.4989C75.4173 58.0276 75.2883 58.0185 74.8853 57.7395C74.3689 57.3884 73.9246 56.9397 73.5713 56.4184C72.8522 55.3697 72.5351 54.1127 72.6771 52.8483C72.7111 52.5747 72.4184 52.4527 72.2239 52.6229C70.937 53.7418 70.0179 51.8006 70.0032 50.7881C69.9995 50.5271 69.6063 50.4494 69.5031 50.6885C69.3153 51.1134 69.052 51.5007 68.5703 51.2219C68.2398 51.0339 67.8674 50.3775 67.6309 50.0636C67.1295 49.3981 66.6847 48.6978 66.265 47.9786C66.1546 47.7902 65.8057 47.8444 65.7873 48.0708C65.5441 50.5805 64.3572 52.8564 62.4079 54.4546C62.1442 54.669 62.4344 55.1117 62.6981 54.8974C64.7572 53.2045 66.0509 50.8247 66.3031 48.1703L65.8254 48.2625C66.242 48.988 66.6899 49.682 67.1913 50.3475C67.5255 50.7965 67.9326 51.4779 68.4206 51.7913C69.1448 52.2615 69.7061 51.5434 69.9847 50.9202L69.4845 50.8206C69.502 51.6853 69.7493 52.6407 70.5333 53.1327C71.2134 53.5652 72.0276 53.4911 72.6239 52.9711L72.1707 52.7456C71.9825 54.466 72.5394 56.1722 73.7338 57.4337C74.1151 57.8354 75.01 58.7517 75.6448 58.5491C76.2324 58.3624 76.3115 57.1139 76.4331 56.6325L75.9238 56.6619C76.1833 57.482 77.2124 57.8918 77.8903 57.2709C79.0483 56.2057 77.5701 54.5203 77.948 53.3027L77.4387 53.332C77.6035 53.948 77.8937 54.4221 78.3694 54.8551C78.4892 54.9617 78.7155 54.933 78.778 54.7756C79.0158 54.2028 79.3609 53.8248 79.9011 53.5281L79.4949 53.2554C79.3713 54.2933 79.122 55.3786 79.1494 56.4288C79.1665 57.089 79.4447 57.8085 80.1401 58.0209C80.7127 58.1957 81.2025 57.874 81.4499 57.3609C81.6221 57.0147 81.6621 56.6184 81.762 56.244C81.9554 55.5236 82.3378 54.9599 82.8839 54.462L82.5129 54.4816C83.1178 55.0181 83.6232 56.149 84.5977 56.0369C85.1321 55.9729 85.4928 55.5476 85.4477 55.0226L85.0111 55.2373L86.1645 56.4706C86.3189 56.6338 86.545 56.495 86.5981 56.3251C86.77 55.7902 86.9985 55.3306 87.3214 54.8709L86.8589 54.7115C86.9424 55.554 87.4154 56.2133 88.2116 56.5229C88.4099 56.598 88.5794 56.4781 88.5884 56.2706C88.6216 55.5882 88.6579 54.9152 88.691 54.2329L88.3142 54.4852C89.1296 54.9614 90.1351 56.1133 91.1999 55.5671C91.8312 55.245 91.9711 54.4587 91.5109 53.9471L91.2855 54.4003C91.9208 54.465 92.8326 54.4317 92.9472 53.6171C93.0803 52.6389 91.9571 52.3237 91.2306 52.2529L91.3762 52.6865C92.051 52.0876 92.6565 51.4386 93.2147 50.7269C93.384 50.5127 93.1885 50.2427 92.9308 50.303C91.4348 50.6425 89.9229 50.8878 88.3919 51.0451L88.6066 51.4817C89.3943 50.7506 90.1505 49.9881 90.8626 49.1879C90.9975 49.043 90.9121 48.7885 90.7171 48.7543C90.1949 48.6516 89.6634 48.5993 89.1256 48.5438L89.3338 48.8515C89.5932 48.0932 90.0293 47.6584 89.7792 46.8351C89.738 46.6968 89.5807 46.6342 89.4455 46.6691C88.6034 46.9099 87.7863 47.1474 86.9027 47.1241C86.4625 47.1093 85.912 47.0161 85.5005 47.2277L85.7908 47.6704C86.2962 47.2857 87.477 46.5852 87.422 45.8433C87.3799 45.2805 86.7318 45.1152 86.2758 45.069C85.8198 45.0228 85.3295 45.1244 84.8578 45.094C84.1093 45.0358 83.907 44.5426 83.3309 44.1853C82.5374 43.6808 81.5378 43.8275 80.664 43.9897L80.9444 44.2312L80.98 43.2281C80.9891 43.0677 80.775 42.9298 80.6336 42.993C78.6892 43.8869 76.5927 44.2812 74.4605 44.1159L74.6061 44.5495C75.8927 43.3205 77.5734 42.5938 79.3434 42.4769C81.4561 42.3341 83.0773 43.2111 84.8685 44.2041C86.326 45.0154 88.0127 45.6502 89.7165 45.4454C90.1095 45.3974 90.5117 45.2991 90.6177 44.8649C90.7675 44.2955 90.1941 43.7905 90.3407 43.2116L89.9071 43.3572C90.3263 43.8248 90.8336 44.352 91.5157 44.2594C92.0124 44.1923 92.3262 43.8929 92.4258 43.4085L92.052 43.5916C92.4991 43.8454 92.9493 44.1086 93.3963 44.3623C93.5316 44.4375 93.673 44.3586 93.7545 44.2421C94.2341 43.5304 94.2984 42.7065 93.9414 41.9243L93.5711 42.2427C94.1817 42.5307 94.9747 42.8623 95.5901 42.3988C96.0296 42.0677 96.1417 41.5581 95.8923 41.0807L95.6888 41.4899C97.2611 41.5652 97.5051 39.48 96.0358 39.0554L96.219 39.4292L97.0025 38.1855C97.0871 38.047 96.9797 37.8208 96.8193 37.8117C95.467 37.6888 94.121 37.569 92.7686 37.4461L92.9142 37.8797C93.3535 37.4386 93.5977 36.9632 93.7034 36.3562C93.7407 36.1548 93.5485 36.0043 93.36 36.0519C91.421 36.5716 89.4466 36.6732 87.4712 36.3504L87.6168 36.784C89.3209 35.2208 91.5158 35.276 93.458 36.3127C94.0907 36.6509 94.8083 36.9607 95.512 36.6511C96.046 36.4141 96.3658 35.9607 96.3111 35.3759L96.0004 35.6533C96.6042 35.7023 97.0724 35.5504 97.5306 35.1501C97.5997 35.0903 97.6183 34.9739 97.5804 34.8922L97.2768 34.0659L97.1109 34.3995C98.5465 33.7708 97.8033 31.7285 96.2982 32.2442L96.5821 32.6681C96.8612 32.3122 97.0837 31.9596 97.2841 31.5567C97.3624 31.3993 97.2614 31.2234 97.101 31.1829C95.7293 30.8462 94.3549 30.6887 92.9431 30.7011L93.0417 31.2134C93.8994 30.894 94.7572 30.5746 95.6212 30.2584C96.0171 30.1098 96.5985 29.9828 96.8429 29.5861C96.9871 29.3594 97.0306 29.114 96.8415 28.8943C96.7532 28.7876 96.6117 28.7879 96.5172 28.7095C95.651 27.9881 96.1373 27.484 96.6581 26.8949C96.7616 26.7815 96.7454 26.5457 96.5786 26.4863C96.1349 26.3206 95.6975 26.158 95.2507 25.9986L95.3301 26.4072C95.876 25.7992 96.204 24.7923 95.5737 24.1176C95.0569 23.5621 94.1293 23.5641 93.6684 24.175L94.0835 24.2088C93.8784 23.8633 93.6733 23.5179 93.4682 23.1724C93.3767 23.0248 93.1597 23.019 93.0531 23.1387C92.5951 23.649 92.096 24.0997 91.5466 24.5096L91.9528 24.7824C92.0899 24.1909 92.4954 22.6179 91.674 22.28C91.0289 22.0141 90.8168 22.8195 90.3423 22.984C89.739 23.1865 90.1016 22.1733 90.0725 21.774C90.0497 21.4093 89.9388 21.0008 89.6333 20.7625C88.9971 20.2575 88.3129 20.8596 87.9209 21.3477L88.3707 21.438C88.184 20.8818 87.8625 20.502 87.3525 20.217C87.2297 20.1481 87.0569 20.2113 86.9943 20.3372C86.503 21.4356 86.0085 22.5403 85.5171 23.6387L85.9257 23.5593C85.5034 23.1137 85.0749 22.6649 84.6526 22.2193C84.5454 22.1032 84.2971 22.1446 84.244 22.2988C83.5937 24.0641 83.3711 25.9166 83.0511 27.7599C82.784 29.3232 82.4628 32.0688 80.5644 32.4753L80.8828 32.8457C81.3397 31.8008 81.7808 30.7559 82.1873 29.686C82.5032 28.8615 82.9039 27.9928 83.0781 27.1215C83.2524 26.2501 82.558 24.9939 81.5374 25.6406L81.9466 25.8441C81.9605 24.9637 81.8895 24.096 81.7273 23.2379C81.6987 23.0745 81.5569 22.949 81.381 23.0028C80.5734 23.2686 79.8447 23.6443 79.1635 24.1614L79.5447 24.5002C79.867 23.7575 80.2796 22.5964 79.4545 22.0132C78.8783 21.6088 78.0516 21.7552 77.855 22.4662C77.7645 22.7903 78.2804 22.8898 78.3709 22.5658L78.349 22.6098Z" fill="#B5C3CD"/>
<path d="M40.0639 57.696C41.1466 55.1877 43.8928 54.2292 46.306 53.4664C46.5291 53.3967 46.5348 53.0854 46.3365 52.9789C45.7667 52.672 45.2257 52.5756 44.5876 52.6744L44.8399 53.0512L45.5532 51.3329C45.6158 51.1913 45.5524 50.9713 45.37 50.9591C44.9329 50.9223 44.6312 50.9764 44.248 51.1942L44.5916 51.5928C44.8677 51.3061 44.9427 51.0921 44.9639 50.7022C44.9699 50.5638 44.8093 50.4446 44.6835 50.4606C44.322 50.4928 43.9573 50.5313 43.5958 50.5635L43.8105 51.0001C44.62 50.1306 45.2153 49.1546 45.6092 48.0313C45.6873 47.811 45.5234 47.6038 45.2908 47.6609L44.0086 47.9812L44.352 48.2854L44.6479 46.9799C44.6853 46.8258 44.534 46.6406 44.3706 46.6692C43.8236 46.7584 43.3739 46.6839 42.8796 46.4145C42.8041 46.3769 42.6814 46.3709 42.6187 46.4339C42.06 46.9099 41.5076 47.389 40.9489 47.8649L41.3551 48.1376C41.5729 47.0367 42.131 46.2777 42.969 45.5716C43.3771 45.2249 43.8102 44.8435 43.8373 44.268C43.8733 43.4693 42.9132 42.9368 42.3707 43.6171L42.8239 43.8425C42.9262 43.1474 42.9688 42.4619 42.9548 41.7638C42.9514 41.6601 42.8505 41.5314 42.7436 41.5253C42.3285 41.4916 42.0487 41.5488 41.6907 41.7634L42.0999 41.9669C42.0732 41.1997 41.8391 40.5336 41.3787 39.9277C41.2968 39.8241 41.1331 39.7584 41.017 39.8499C39.9497 40.7011 39.1091 41.7122 38.4639 42.9147L38.9513 42.9451C38.2643 40.6952 37.9702 38.3816 38.0627 36.0325C38.0717 35.7935 37.7508 35.7282 37.6002 35.8731C37.1986 36.2859 36.9102 36.7078 36.6849 37.2397L37.185 37.3393C37.1783 35.6005 34.5066 36.0777 35.0637 37.8468C35.1681 38.1736 35.652 38.0059 35.5633 37.6791C35.2116 36.4127 34.863 35.14 34.5114 33.8735C34.4353 33.6001 34.0739 33.6795 34.002 33.9029L33.4275 35.8159L33.8611 35.6703L32.3715 34.5761C32.2393 34.4789 32.0381 34.4887 31.9629 34.6555C31.7345 35.1622 31.5877 35.6468 31.5165 36.2003L31.8903 36.0172L30.8738 35.5665C30.773 35.5164 30.6316 35.5324 30.5595 35.6301C30.2647 36.0017 30.2718 36.3822 30.3105 36.8412C30.3202 36.9795 30.393 37.2277 30.3462 37.3693C30.2431 37.6871 29.954 37.7789 29.6587 37.9148C29.4953 37.9906 29.3444 37.9783 29.2 38.1107C28.8234 38.4416 28.9627 38.8878 29.1459 39.2773C29.547 40.1129 30.1303 40.8977 30.6947 41.6261L30.9674 41.2199C29.9012 41.1058 28.8319 40.9822 27.7657 40.8681C27.6336 40.8495 27.552 40.9032 27.4767 41.0071C27.2416 41.3535 27.104 41.709 27.1112 42.1367C27.1151 42.5077 27.7182 43.7264 27.3601 43.8938C27.1559 43.9886 27.1125 44.2654 27.3297 44.3813C29.2185 45.3992 31.0006 46.584 32.6668 47.9389L32.8923 47.4857C31.9768 47.2738 31.0708 47.0587 30.1554 46.8468C30.0704 46.8281 29.9604 46.8598 29.9103 46.9291C29.5403 47.4361 29.0819 47.742 28.4501 47.844C28.3212 47.8663 28.1799 47.9766 28.2085 48.1243C28.3105 48.7404 28.3243 49.3441 28.2155 49.9575C28.1223 50.4608 27.8779 50.9046 27.7469 51.3891C27.5971 51.9429 27.7619 52.5588 28.416 52.6015L28.2329 52.2277C27.9513 52.8886 27.6728 53.5432 27.3912 54.2041C27.3161 54.3866 27.436 54.6033 27.6435 54.5809C28.6213 54.5096 28.9027 55.2857 28.9548 56.1126C28.9712 56.427 28.9938 56.713 29.1767 56.9768C29.4574 57.3913 29.9042 57.535 30.3471 57.3076L29.9409 57.0349C29.7041 58.0636 30.0786 59.7262 31.4957 59.2453L31.1773 58.8749C30.9429 59.5515 31.2836 60.0507 31.8566 60.43C32.4738 60.8311 32.9303 61.1289 33.3027 61.7853C33.6341 62.3663 33.8273 63.0199 34.0173 63.6641C34.0553 63.7929 34.2221 63.8838 34.3509 63.83C35.1866 63.4604 35.8458 62.9402 36.3819 62.1939L35.9321 62.1036C36.2323 62.8262 36.5357 63.5425 36.8359 64.265C36.9528 64.5509 37.3363 64.4589 37.3482 64.1665C37.3543 64.0439 38.313 63.9003 38.4668 63.7963C38.7274 63.6039 38.818 63.3427 38.8268 63.0251C38.8645 61.4969 38.0347 60.134 38.934 58.6731C39.1095 58.3835 38.6374 58.1487 38.4619 58.4383C37.7286 59.6284 37.9829 60.9642 38.1901 62.2687C38.2793 62.8313 38.2897 63.2841 37.6644 63.4992C37.4947 63.5562 37.3218 63.5408 37.1584 63.6324C36.9103 63.7681 36.8383 63.9286 36.8295 64.199L37.3418 64.1005C37.0416 63.3779 36.7382 62.6616 36.438 61.9391C36.3716 61.7725 36.1167 61.6693 35.9881 61.8488C35.5085 62.5133 34.9309 62.9956 34.1833 63.3304L34.5169 63.4964C34.2762 62.6857 34.0166 61.8498 33.5247 61.1497C33.1494 60.6253 31.4432 59.6982 31.6495 59.1098C31.7214 58.9021 31.5668 58.6603 31.3311 58.7394C30.7278 58.9419 30.39 58.2792 30.3639 57.8107C30.354 57.578 30.407 57.361 30.4568 57.1345C30.5129 56.8954 30.2391 56.767 30.0506 56.8618C29.3973 57.1964 29.4724 55.5141 29.4279 55.3192C29.3676 55.0458 29.2539 54.8165 29.068 54.6062C28.6929 54.1762 28.1643 54.0075 27.6047 54.0433L27.857 54.4201C28.1386 53.7592 28.4171 53.1046 28.6987 52.4436C28.7613 52.302 28.6979 52.0821 28.5155 52.0699C27.8645 52.0209 28.4379 51.0575 28.5129 50.8278C28.6161 50.5258 28.6972 50.2206 28.7468 49.8998C28.8461 49.2896 28.8291 48.6764 28.7272 48.0604L28.4857 48.3407C29.1081 48.2419 29.4975 47.9959 29.9904 47.6364C30.3765 47.3494 30.6031 47.4622 31.0813 47.5743C31.6507 47.7084 32.2201 47.8424 32.7927 47.9701C33.0381 48.0293 33.2197 47.6799 33.0181 47.5168C31.311 46.1338 29.4942 44.9238 27.5613 43.884L27.5309 44.3714C27.889 44.204 28.074 43.9584 28.0669 43.5465C28.06 43.2446 27.8928 42.9966 27.7853 42.7232C27.5766 42.1797 27.6291 41.7111 27.9551 41.2293L27.6661 41.3683C28.7323 41.4824 29.8016 41.6059 30.8678 41.72C31.0754 41.7447 31.2856 41.5116 31.1405 41.3138C30.7023 40.7425 30.2828 40.1491 29.9168 39.5273C29.576 38.9494 29.3365 38.7047 30.0558 38.3478C30.172 38.2879 30.3135 38.2876 30.436 38.215C31.3404 37.6754 30.4295 36.6334 30.9595 35.9625L30.6452 36.0261L31.6618 36.4767C31.8097 36.5425 32.0108 36.4697 32.0356 36.2936C32.1037 35.7935 32.2317 35.3467 32.4382 34.8841L32.0296 34.9635L33.5192 36.0578C33.6924 36.1832 33.8935 36.1104 33.9528 35.9122L34.5274 33.9993L34.018 34.0286L35.0699 37.8342L35.5695 37.6665C35.3926 37.2801 35.518 37.0598 35.9423 36.996C36.3377 36.6116 36.5769 36.7305 36.6663 37.3561C36.67 37.6171 37.0632 37.6948 37.1664 37.4557C37.3729 36.9773 37.6331 36.5805 38.0002 36.2056L37.5376 36.0462C37.4389 38.4393 37.7551 40.8031 38.4548 43.0908C38.5245 43.3139 38.8358 43.3195 38.9423 43.1212C39.5437 42.0068 40.3215 41.0587 41.3134 40.2643L40.9517 40.1864C41.3647 40.7295 41.564 41.292 41.5843 41.9774C41.591 42.1849 41.827 42.2787 41.9935 42.1809L42.6535 42.0223L42.4423 41.7838C42.4625 42.4378 42.4198 43.0762 42.3237 43.7272C42.2896 43.9694 42.6076 44.1669 42.777 43.9527L43.2279 44.546L42.9582 44.883C42.7793 45.0689 42.5532 45.2077 42.3618 45.3717C42.0856 45.6112 41.8408 45.8664 41.6308 46.1624C41.2263 46.723 40.9887 47.3429 40.8517 48.0129C40.8144 48.2142 41.0727 48.437 41.2579 48.2856C41.5969 47.9988 42.4249 46.9972 42.906 47.0087C42.884 47.0056 43.5164 47.2024 43.5101 47.1993C43.8184 47.2584 44.1139 47.2326 44.4157 47.1785L44.1383 46.8678L43.8423 48.1733C43.7956 48.3778 44.0003 48.5189 44.1857 48.4776L45.4679 48.1573L45.1496 47.787C44.7714 48.8631 44.2105 49.8013 43.4262 50.6362C43.2724 50.8032 43.4083 51.0985 43.6409 51.0728C44.0024 51.0406 44.3671 51.0021 44.7286 50.9699L44.4483 50.7284L44.2009 51.2257C43.9939 51.4525 44.3027 51.7632 44.5508 51.6275L45.2799 51.4719L45.0968 51.0981L44.3835 52.8164C44.3147 52.9863 44.4221 53.2282 44.6358 53.1932C45.1796 53.1103 45.6325 53.1785 46.1142 53.4416L46.1446 52.9542C43.5994 53.7613 40.7371 54.8112 39.5981 57.4486C39.4666 57.7602 39.9388 57.995 40.0702 57.6834L40.0639 57.696Z" fill="#B5C3CD"/>
<path d="M38.5475 58.6928C39.8755 60.7276 41.6777 62.4406 42.7922 64.6204C43.9067 66.8003 44.1641 69.551 43.9115 72.0482C43.8776 72.3847 44.3935 72.4842 44.4273 72.1477C44.6799 69.6506 44.4857 67.0097 43.4118 64.7009C42.3379 62.3921 40.3846 60.5567 38.9871 58.4089C38.801 58.12 38.3645 58.4134 38.5444 58.6991L38.5475 58.6928Z" fill="#B5C3CD"/>
<path d="M39.6113 57.7067C40.7664 59.7576 42.4522 61.4362 43.6261 63.465C44.8001 65.4938 45.3297 67.6497 45.3376 69.9074C45.3414 70.2469 45.8633 70.2081 45.8657 69.8717C45.8579 67.6455 45.3062 65.4393 44.233 63.4763C43.0556 61.3124 41.2565 59.5616 40.0477 57.4134C39.8805 57.1182 39.4377 57.4084 39.605 57.7036L39.6113 57.7067Z" fill="#B5C3CD"/>
<path d="M54.0754 71.3164C55.0764 70.3773 56.1559 69.3122 56.3352 67.878C56.493 66.6294 55.7541 65.1468 56.5284 64.0321L56.1574 64.0517C56.4284 64.3279 56.6962 64.5946 56.9672 64.8707C57.0838 64.9837 57.3227 64.9454 57.3758 64.7913C57.5009 64.4608 57.6228 64.1367 57.7479 63.8063L57.4589 63.9452C57.8018 63.9823 58.0122 63.8906 58.2223 63.6103C58.3572 63.434 58.4227 63.2232 58.5261 63.0312C58.5981 62.8706 58.6827 62.7164 58.7987 62.5778C59.2607 62.4542 59.481 62.5795 59.4441 62.9538C59.41 63.1959 59.6461 63.3212 59.8503 63.2265C60.4534 62.9296 60.9274 62.545 61.3508 62.0253L60.9356 61.9916C61.311 62.5631 61.9653 62.6686 62.6031 62.4598C63.0273 62.3174 63.3443 62.0274 63.6927 61.7531C63.8842 61.605 64.0663 61.4442 64.2861 61.3337C64.5751 61.1947 65.9332 61.085 65.4633 61.9192C65.338 62.1396 65.5805 62.3309 65.7817 62.2896C66.2437 62.1974 66.7057 62.1053 67.1615 62.01L66.8151 61.7749C66.8693 62.1238 66.9235 62.4727 66.9745 62.8279C66.9937 62.9474 67.0662 63.0384 67.1857 63.0664C67.4594 63.1319 67.6732 63.1126 67.9402 63.0177C68.5309 62.8089 68.7908 62.2864 69.33 62.9865C69.434 63.1246 69.3935 63.3008 69.5793 63.4325C70.0391 63.7711 71.1924 63.4416 70.7137 64.5935C70.6449 64.7634 70.7586 65.0084 70.9661 64.9703C71.9153 64.8142 72.8398 64.85 73.7742 65.0713L73.6286 64.6377C73.2678 65.0158 73.4259 65.4242 73.6249 65.8451C73.906 66.4482 73.8403 66.6119 73.461 67.1535C73.2979 67.3865 73.2007 67.5031 73.2171 67.8018C73.2365 68.0784 73.4476 68.2698 73.5016 68.5244C73.6699 69.3384 73.0156 69.1857 72.6266 69.6047C72.2062 70.0552 72.2201 70.7061 72.5356 71.2085L72.7391 70.7993C72.0726 70.8447 71.4029 70.8807 70.7364 70.9261C70.5101 70.9392 70.4101 71.235 70.577 71.3887C71.2103 71.9628 71.8873 72.4487 72.6334 72.8591L72.5539 72.4505C71.8952 73.1908 71.2713 74.082 70.4581 74.6591C69.9401 75.0218 69.4593 75.1517 68.877 74.8856C68.6284 74.7698 68.3827 74.6005 68.0904 74.6357C67.6503 74.6838 67.4498 75.0238 67.4726 75.4357C67.4921 75.7281 67.6719 75.9824 67.7102 76.2685C67.9397 77.749 66.3758 77.1988 65.699 76.8387C65.5353 76.7572 65.3721 76.8645 65.3252 77.0218C65.244 77.2955 65.1692 77.5724 65.088 77.8461L65.4618 77.663C64.9456 77.4377 64.4985 77.1525 64.0733 76.776C63.8591 76.591 63.5985 76.8148 63.6494 77.0599C63.7574 77.5848 63.8654 78.1097 63.9734 78.6345L64.0765 78.3325C63.7687 78.5092 63.3247 78.1705 62.9976 78.1492C62.6706 78.1279 62.5703 78.2822 62.3032 78.3771C60.8485 78.9178 59.386 77.2481 58.8773 76.0449C58.754 75.7558 58.3769 75.851 58.3649 76.1434C58.3379 76.7346 58.3014 77.329 58.2743 77.9202L58.585 77.6428C57.7953 77.3992 57.0337 77.0832 56.319 76.6571C55.894 76.4064 55.352 75.8384 54.8111 75.805C54.2388 75.7716 53.831 76.2284 53.3017 75.7295C52.6085 75.0707 51.8551 74.1541 52.504 73.1969C52.6921 72.9135 52.2168 72.685 52.0318 72.962C51.64 73.5446 51.6414 74.2206 51.9352 74.8457C52.2289 75.4708 52.9414 76.3592 53.5959 76.5905C53.8162 76.6686 53.9954 76.6714 54.2153 76.5923C54.3222 76.5512 54.4414 76.4221 54.5419 76.3935C54.9505 76.2984 55.2593 76.5933 55.549 76.7845C56.4621 77.3957 57.4472 77.8307 58.4886 78.1524C58.6648 78.2086 58.7934 78.0291 58.7993 77.875C58.8264 77.2838 58.8629 76.6895 58.89 76.0983L58.3776 76.1968C58.9338 77.51 59.9957 78.5957 61.3895 78.9984C62.0345 79.1857 62.2603 78.9054 62.8512 78.7753C63.398 78.6546 63.8391 79.0625 64.3761 78.7563C64.486 78.6932 64.5046 78.5611 64.4793 78.4543C64.3712 77.9294 64.2632 77.4045 64.1552 76.8796L63.7313 77.1635C64.1944 77.5744 64.673 77.8753 65.2395 78.1257C65.4063 78.2008 65.5696 78.1092 65.6133 77.9425C65.6945 77.6688 65.7693 77.3919 65.8505 77.1182L65.4767 77.3013C66.2291 77.6991 67.211 78.1089 67.9516 77.4408C68.1839 77.2265 68.3154 76.9621 68.3304 76.6476C68.3515 76.1948 67.8946 75.7398 68.2524 75.4152C68.56 75.1441 68.9885 75.5614 69.4193 75.5794C69.7966 75.5943 70.1517 75.4647 70.472 75.2785C71.477 74.7104 72.2137 73.6398 72.9634 72.7955C73.0826 72.6663 73.0319 72.4684 72.8839 72.3869C72.1756 71.9954 71.5458 71.5407 70.9441 70.998L70.7847 71.4606C71.4512 71.4152 72.1209 71.3792 72.7874 71.3338C72.9886 71.3239 73.095 71.0941 72.9909 70.9246C72.3189 69.86 73.8283 69.8726 74.1067 69.1865C74.335 68.6327 73.7525 68.2094 73.8929 67.706C74.0208 67.2435 74.4985 67.0884 74.4596 66.5351C74.4368 66.1704 73.7589 65.3072 74.0382 65.0141C74.1825 64.8661 74.0814 64.6273 73.8926 64.5805C72.9111 64.3436 71.9394 64.3079 70.9462 64.4735L71.1985 64.8503C71.3674 64.4475 71.3792 64.0607 71.152 63.6807C70.8365 63.1468 70.1008 63.2207 69.8578 62.7621C69.6652 62.4072 69.7118 62.1399 69.2023 62.0592C68.504 61.9474 67.9679 62.7252 67.301 62.5662L67.5122 62.8048C67.458 62.4559 67.4038 62.107 67.3527 61.7518C67.3272 61.5663 67.1792 61.4848 67.0064 61.5167C66.5443 61.6088 66.0823 61.701 65.6266 61.7963L65.9449 62.1666C66.324 61.4992 65.7503 60.7898 65.0614 60.6592C63.973 60.4476 62.2016 62.9354 61.3973 61.7108C61.3089 61.5726 61.0856 61.5479 60.9821 61.6771C60.5933 62.159 60.1412 62.5152 59.5821 62.7868L59.9883 63.0595C60.0689 62.5185 59.6936 61.9628 59.0992 61.942C58.2565 61.9155 58.1026 63.488 57.5805 63.4325C57.4767 63.4201 57.3384 63.4613 57.2915 63.5714C57.1664 63.9018 57.0445 64.226 56.9194 64.5564L57.328 64.4769C57.057 64.2008 56.7892 63.9341 56.5182 63.6579C56.4237 63.5638 56.2256 63.5674 56.1472 63.6776C55.5108 64.5939 55.6795 65.5652 55.7918 66.6183C55.9907 68.5234 55.031 69.7108 53.6942 70.9619C53.4462 71.192 53.8432 71.5464 54.0848 71.3132L54.0754 71.3164Z" fill="#B5C3CD"/>
<path d="M53.8427 71.0117C51.2702 70.8158 48.8914 71.5094 47.0243 73.3371C45.1572 75.1647 43.8766 77.7552 41.8492 79.5737C41.595 79.8007 41.9951 80.1488 42.2398 79.9251C44.0727 78.2767 45.2346 76.0827 46.8627 74.2618C48.6791 72.2362 51.0197 71.3194 53.7368 71.5244C54.0702 71.5489 54.1791 71.0298 53.8364 71.0085L53.8427 71.0117Z" fill="#B5C3CD"/>
<path d="M52.2859 72.688C46.1391 72.8424 44.8946 80.665 40.3158 83.3661C40.0237 83.5428 40.3171 83.9793 40.606 83.8089C43.0085 82.3889 44.3743 79.9428 45.9135 77.7166C47.4527 75.4903 49.4573 73.2913 52.3216 73.2161C52.6643 73.206 52.6255 72.6841 52.2859 72.688Z" fill="#B5C3CD"/>
<path d="M52.4045 43.7944L51.8221 44.9653C51.7594 45.0912 51.8101 45.2578 51.9423 45.3235C52.0745 45.3893 52.2316 45.3418 52.3005 45.2033L52.8829 44.0324C52.9455 43.9065 52.8949 43.7399 52.7627 43.6742C52.6305 43.6084 52.4733 43.6559 52.4045 43.7944Z" fill="#B5C3CD"/>
<path d="M50.0118 44.9912L50.8237 45.3165C50.8867 45.3478 50.9559 45.3508 51.0282 45.3318C51.0941 45.3096 51.1506 45.2592 51.182 45.1962C51.2414 45.0766 51.197 44.8975 51.0617 44.838L50.2498 44.5127C50.1868 44.4814 50.1177 44.4784 50.0454 44.4974C49.9794 44.5196 49.9229 44.57 49.8916 44.633C49.8321 44.7526 49.8765 44.9317 50.0118 44.9912Z" fill="#B5C3CD"/>
<path d="M51.2365 46.0009L50.7637 46.9515C50.7011 47.0774 50.7517 47.244 50.8839 47.3097C51.0161 47.3755 51.1732 47.328 51.2421 47.1895L51.7149 46.2389C51.7775 46.113 51.7269 45.9465 51.5947 45.8807C51.4625 45.8149 51.3054 45.8624 51.2365 46.0009Z" fill="#B5C3CD"/>
<path d="M52.2468 46.3856C52.4671 46.4637 52.6717 46.5734 52.8669 46.7019L52.804 46.6706C52.8606 46.6987 52.9079 46.7301 52.9583 46.7709C53.0654 46.8555 53.2352 46.8615 53.3293 46.7512C53.4139 46.6441 53.423 46.468 53.3096 46.3802C53.0608 46.1858 52.7806 46.0229 52.4817 45.9134C52.4156 45.8884 52.3527 45.8728 52.2773 45.8982C52.2113 45.9203 52.1548 45.9707 52.1235 46.0337C52.0922 46.0966 52.086 46.1721 52.1082 46.2381C52.1335 46.2978 52.1776 46.3669 52.2437 46.3919L52.2468 46.3856Z" fill="#B5C3CD"/>
<path d="M99.6097 35.5955L100.22 35.8992C100.346 35.9618 100.513 35.9112 100.578 35.779C100.644 35.6468 100.597 35.4896 100.458 35.4208L99.8476 35.117C99.7217 35.0544 99.5552 35.1051 99.4894 35.2373C99.4237 35.3695 99.4712 35.5266 99.6097 35.5955Z" fill="#B5C3CD"/>
<path d="M101.31 35.4755L101.849 34.3927C101.911 34.2668 101.861 34.1003 101.728 34.0345C101.596 33.9688 101.439 34.0163 101.37 34.1547L100.832 35.2375C100.769 35.3634 100.82 35.53 100.952 35.5957C101.084 35.6615 101.241 35.614 101.31 35.4755Z" fill="#B5C3CD"/>
<path d="M100.272 36.5532L99.8333 37.4345C99.7707 37.5604 99.8213 37.727 99.9535 37.7927C100.086 37.8585 100.243 37.811 100.312 37.6725L100.75 36.7912C100.813 36.6652 100.762 36.4987 100.63 36.4329C100.498 36.3672 100.341 36.4147 100.272 36.5532Z" fill="#B5C3CD"/>
<path d="M101.435 36.5037L102.379 36.9733C102.505 37.036 102.672 36.9853 102.737 36.8531C102.803 36.7209 102.756 36.5638 102.617 36.4949L101.673 36.0252C101.547 35.9626 101.38 36.0133 101.315 36.1455C101.249 36.2777 101.296 36.4348 101.435 36.5037Z" fill="#B5C3CD"/>
<path d="M42.93 88.4358L43.4965 88.7176C43.5595 88.7489 43.635 88.755 43.701 88.7329C43.7669 88.7107 43.8234 88.6603 43.8547 88.5974C43.9174 88.4715 43.873 88.3081 43.7345 88.2392L43.1679 87.9574C43.105 87.9261 43.0295 87.9199 42.9635 87.9421C42.8975 87.9642 42.841 88.0146 42.8097 88.0776C42.7471 88.2035 42.7915 88.3669 42.93 88.4358Z" fill="#B5C3CD"/>
<path d="M45.0597 87.0918L44.4711 88.2753C44.4084 88.4012 44.4591 88.5677 44.5913 88.6335C44.7235 88.6992 44.8806 88.6517 44.9495 88.5132L45.5382 87.3297C45.6008 87.2038 45.5501 87.0373 45.4179 86.9715C45.2857 86.9058 45.1286 86.9533 45.0597 87.0918Z" fill="#B5C3CD"/>
<path d="M44.8443 89.5288C45.2158 89.7292 45.6092 89.8856 46.0119 90.0231C46.0717 90.045 46.1566 90.0165 46.2037 89.985C46.2602 89.9503 46.3104 89.881 46.3196 89.815C46.3289 89.7489 46.3193 89.6735 46.2815 89.6232C46.2342 89.5604 46.1839 89.5354 46.1115 89.5072C46.0517 89.4854 46.1429 89.5229 46.0926 89.4979C46.0674 89.4853 46.0422 89.4728 46.0139 89.4666C45.9698 89.4447 45.9289 89.4322 45.8817 89.4165C45.7905 89.379 45.6992 89.3415 45.608 89.3039C45.4254 89.2288 45.2492 89.1412 45.076 89.0472C44.9501 88.9846 44.7804 89.0415 44.7178 89.1674C44.6552 89.2933 44.7027 89.4505 44.8381 89.5256L44.8443 89.5288Z" fill="#B5C3CD"/>
<path d="M43.8537 89.5151L43.3214 90.5853C43.2588 90.7112 43.3094 90.8777 43.4416 90.9435C43.5738 91.0093 43.7309 90.9618 43.7998 90.8233L44.3321 89.7531C44.3947 89.6272 44.3441 89.4606 44.2119 89.3949C44.0797 89.3291 43.9226 89.3766 43.8537 89.5151Z" fill="#B5C3CD"/>
</g>
<defs>
<clipPath id="clip0_3033_36256">
<rect width="65.5637" height="105.218" fill="white" transform="translate(47.8418) rotate(26.4449)"/>
</clipPath>
</defs>
</svg>
