<svg width="163" height="262" viewBox="0 0 163 262" fill="none" xmlns="http://www.w3.org/2000/svg">
<g clip-path="url(#clip0_2998_31248)">
<path d="M158.661 92.12C158.871 94.6493 159.068 97.2229 158.672 99.7384C158.482 100.932 158.164 102.112 157.644 103.204C157.149 104.244 156.528 105.499 155.025 105.272C154.59 105.205 154.189 104.928 153.736 104.858C151.5 104.521 148.157 107.197 146.556 104.749C145.99 103.892 145.939 103.122 145.01 102.537C144.357 102.131 143.563 101.986 142.803 101.862C141.51 101.65 140.285 101.566 139.153 100.829C137.936 100.027 137.042 98.8198 136.025 97.7921C134.63 96.3712 133.032 95.1943 131.247 94.2816C127.2 92.2084 122.469 91.6876 118.077 92.8171C117.594 92.937 117.491 93.7634 118.098 93.7773C118.3 93.7819 117.102 95.4137 116.937 95.6437C116.599 96.1117 116.321 96.6142 116.122 97.1533C115.766 98.0983 115.649 99.1349 115.897 100.112C116.572 102.851 119.774 103.695 122.174 104.217C124.808 104.784 127.189 104.328 129.663 103.385C132.349 102.356 135.022 100.957 137.98 101.515C138.602 101.632 138.703 100.658 138.089 100.551C132.786 99.5596 128.433 104.249 123.103 103.411C121.456 103.15 119.153 102.666 117.873 101.534C116.257 100.107 116.551 97.8378 117.718 96.2301C118.209 95.5584 119.255 94.9408 119.304 94.0253C119.335 93.3381 118.868 92.8335 118.207 92.8134L118.227 93.7736C122.39 92.7101 126.826 93.1513 130.696 95.0845C132.719 96.0888 134.431 97.4722 135.958 99.1199C137.18 100.447 138.421 101.842 140.203 102.376C140.942 102.599 141.716 102.678 142.478 102.783C143.963 103.007 144.762 103.347 145.491 104.72C146.219 106.092 147.115 106.802 148.791 106.726C149.624 106.692 150.4 106.422 151.191 106.189C152.582 105.777 153.469 105.832 154.851 106.238C156.392 106.699 157.271 105.768 158.042 104.493C160.279 100.76 159.964 96.1461 159.607 91.9792C159.558 91.3565 158.593 91.4952 158.643 92.1179L158.661 92.12Z" fill="#B5C3CD"/>
<path d="M162.932 85.3091C160.528 88.6456 157.057 90.9117 153.029 91.7512L153.553 92.4096C153.836 91.7879 154.007 91.1718 154.111 90.493C154.162 90.2041 153.858 89.8838 153.555 89.9598C142.666 92.5868 131.383 93.1611 120.285 91.6196L120.305 92.5798C127.949 92.3368 135.557 91.1962 142.946 89.2201C146.45 88.2841 149.911 87.1681 153.317 85.8801C155.079 85.2059 156.826 84.4933 158.562 83.7241C159.347 83.3807 160.13 82.9726 160.973 82.7648C161.758 82.5871 162.926 82.6834 163.342 83.5598C163.551 83.989 163.048 85.0184 162.875 85.404C162.626 85.9834 163.526 86.3255 163.784 85.7563C164.257 84.6681 164.727 83.202 163.701 82.2652C162.767 81.4035 161.325 81.6076 160.217 81.9602C158.189 82.6315 156.248 83.663 154.262 84.4497C152.063 85.3227 149.846 86.1107 147.591 86.83C138.723 89.669 129.486 91.2961 120.178 91.589C119.614 91.6076 119.663 92.479 120.198 92.5492C131.377 94.1091 142.751 93.5452 153.716 90.89L153.16 90.3569C153.059 90.9994 152.915 91.4618 152.657 92.0311C152.519 92.3561 152.823 92.7592 153.181 92.6895C157.463 91.7962 161.169 89.4094 163.727 85.8511C164.088 85.3488 163.315 84.7726 162.944 85.2829L162.932 85.3091Z" fill="#B5C3CD"/>
<path d="M153.215 105.719C152.907 109.654 151.737 113.398 149.697 116.776L150.462 116.762C149.681 115.531 148.194 116.384 147.462 117.231C146.603 118.229 146.059 119.622 145.413 120.764C144.606 122.201 143.78 123.636 142.936 125.068C141.251 127.916 139.523 130.731 137.742 133.521C136.734 135.101 135.923 136.408 134.002 136.945C132.851 137.265 132.159 138.015 131.371 138.874C126.999 143.644 123.418 149.158 118.596 153.508C116.648 155.257 113.499 158.26 110.615 157.627C107.253 156.894 107.132 152.109 107.009 149.378C106.738 142.909 108.055 136.483 110.748 130.6C110.921 130.215 110.469 129.813 110.101 129.974C109.051 130.462 108.064 130.635 106.924 130.533L107.319 131.195C108.846 127.15 111.016 123.437 113.796 120.116C113.989 119.88 113.86 119.47 113.575 119.382L111.354 118.668L111.633 119.289C112.24 118.161 112.839 117.023 113.456 115.887C113.9 115.053 114.541 114.196 114.686 113.236C114.832 112.276 114.47 111.241 113.358 111.381L113.824 112.152C115.921 109.324 118.324 106.817 121.061 104.605C121.547 104.218 120.942 103.459 120.456 103.845C117.658 106.105 115.183 108.688 113.033 111.574C112.783 111.905 113.087 112.391 113.498 112.345C114.256 112.238 112.545 115.553 112.415 115.805C111.855 116.846 111.303 117.898 110.733 118.947C110.615 119.173 110.78 119.505 111.012 119.569L113.234 120.282L113.013 119.548C110.181 122.928 107.973 126.719 106.418 130.853C106.313 131.135 106.504 131.48 106.813 131.515C108.116 131.636 109.299 131.439 110.485 130.893L109.837 130.266C107.498 135.388 106.16 140.936 106.019 146.575C105.921 150.359 105.736 158.664 111.285 158.698C113.577 158.711 115.66 157.152 117.387 155.811C119.861 153.891 122.028 151.587 124.056 149.212C126.212 146.685 128.235 144.033 130.383 141.496C131.509 140.17 132.661 138.459 134.338 137.885C135.717 137.416 136.467 137.134 137.371 135.901C139.662 132.754 141.604 129.273 143.585 125.925C144.531 124.329 145.46 122.713 146.371 121.094C146.592 120.687 148.867 116.046 149.727 117.397C149.893 117.646 150.345 117.633 150.493 117.383C152.615 113.857 153.866 109.966 154.193 105.868C154.245 105.247 153.281 105.137 153.229 105.758L153.215 105.719Z" fill="#B5C3CD"/>
<path d="M110.093 157.114C120.207 138.888 132.12 121.697 145.616 105.809C146.019 105.339 145.228 104.761 144.833 105.241C131.329 121.118 119.424 138.32 109.31 156.546C109.009 157.083 109.79 157.669 110.093 157.114Z" fill="#B5C3CD"/>
<path d="M121.417 150.882C122.645 146.794 122.782 142.417 121.75 138.274C121.598 137.667 120.633 137.806 120.786 138.413C121.771 142.394 121.699 146.604 120.509 150.53C120.332 151.117 121.23 151.478 121.417 150.882Z" fill="#B5C3CD"/>
<path d="M135.802 136.588C137.219 130.745 136.78 124.542 134.587 118.941C134.358 118.362 133.468 118.739 133.697 119.318C135.841 124.776 136.218 130.796 134.838 136.478C134.695 137.088 135.651 137.188 135.802 136.588Z" fill="#B5C3CD"/>
<path d="M142.309 126.71C143.511 121.303 143.321 115.663 141.815 110.342C141.653 109.744 140.752 110.129 140.925 110.72C142.375 115.886 142.508 121.373 141.345 126.601C141.202 127.211 142.176 127.312 142.309 126.71Z" fill="#B5C3CD"/>
<path d="M107.386 141.663C110.995 138.906 115.592 137.68 120.095 138.249C120.721 138.33 120.831 137.366 120.204 137.285C115.456 136.679 110.591 138.004 106.781 140.903C106.295 141.29 106.892 142.04 107.386 141.663Z" fill="#B5C3CD"/>
<path d="M108.351 130.789C113.244 122.228 123.256 117.917 132.82 120.398C133.42 120.549 133.771 119.641 133.171 119.489C123.213 116.908 112.701 121.254 107.56 130.21C107.26 130.747 108.033 131.323 108.343 130.778L108.351 130.789Z" fill="#B5C3CD"/>
<path d="M155.708 105.176C151.616 113.247 147.239 122.622 151.172 131.636C151.317 131.984 151.782 132.028 152.009 131.731C153.16 130.269 154.765 131.705 155.299 132.769C155.623 133.405 155.783 134.105 155.991 134.783C156.443 136.326 156.914 137.854 157.463 139.353C158.54 142.368 159.847 145.298 161.33 148.138C161.566 148.58 162.148 148.48 162.258 147.996C162.423 147.268 162.581 146.531 162.746 145.804L161.88 146.046C166.125 150.361 170.36 154.685 174.605 159C174.746 159.136 174.98 159.264 175.179 159.139C176.263 158.508 176.871 157.61 176.915 156.335L176.253 156.729C179.007 158.029 181.562 159.618 183.957 161.485C184.219 161.69 184.559 161.535 184.691 161.265C185.014 160.611 185.073 160.083 184.887 159.371L184.116 159.836C190.802 163.499 197.668 166.787 204.727 169.674C205.175 169.863 205.581 169.292 205.282 168.917L204.331 167.722C204.181 167.99 204.041 168.251 203.901 168.511C207.098 168.747 210.286 168.972 213.483 169.207C213.812 169.227 214.175 168.872 213.984 168.528C213.293 167.307 212.595 166.076 211.904 164.855L211.278 165.502C218.264 167.653 225.85 166.942 232.301 163.496C232.536 163.376 232.676 163.115 232.557 162.862C229.266 155.653 225.536 148.661 221.412 141.9C221.211 141.564 220.705 141.718 220.587 142.027C220.232 142.889 220.238 143.645 220.63 144.491L221.46 143.996C217.392 138.117 212.414 132.962 206.692 128.681C206.191 128.302 205.654 129.06 206.124 129.464C206.953 130.194 207.832 130.321 208.867 130.043C209.162 129.957 209.25 129.507 209.053 129.3C205.341 125.156 201.192 121.459 196.643 118.279L196.658 119.045C197.486 118.32 197.351 117.402 196.853 116.507C195.954 114.857 194.182 113.504 192.887 112.168C189.568 108.704 186.249 105.24 182.912 101.774C179.775 98.4969 176.698 95.1711 173.467 91.9844C170.569 89.112 167.458 86.4916 163.739 84.769C163.17 84.5106 162.828 85.4112 163.388 85.6775C170.335 88.9011 175.406 95.3554 180.604 100.765C183.339 103.619 186.065 106.463 188.799 109.316C189.713 110.277 197.329 117.187 196.033 118.301C195.798 118.505 195.783 118.881 196.048 119.068C200.535 122.213 204.62 125.829 208.275 129.902L208.461 129.159C207.713 129.341 207.113 129.189 206.671 128.697L206.104 129.48C211.757 133.716 216.651 138.806 220.681 144.616C220.989 145.066 221.74 144.617 221.51 144.121C221.186 143.569 221.169 142.987 221.476 142.395L220.651 142.522C224.747 149.206 228.42 156.128 231.665 163.258L231.921 162.624C225.695 165.958 218.389 166.709 211.636 164.622C211.28 164.508 210.788 164.866 211.01 165.269C211.7 166.49 212.399 167.721 213.09 168.942L213.59 168.262C210.394 168.026 207.205 167.801 204.008 167.565C203.598 167.528 203.304 168.01 203.578 168.355L204.529 169.55C204.724 169.296 204.9 169.04 205.085 168.793C198.114 165.936 191.307 162.7 184.7 159.074C184.387 158.909 183.814 159.083 183.929 159.538C184.124 160.012 184.08 160.477 183.788 160.941L184.522 160.72C182.059 158.809 179.417 157.173 176.592 155.847C176.322 155.715 175.945 155.948 175.931 156.241C175.898 157.094 175.549 157.819 174.78 158.265L175.354 158.404C171.109 154.089 166.874 149.765 162.63 145.45C162.315 145.138 161.858 145.27 161.764 145.692C161.599 146.419 161.442 147.156 161.276 147.884L162.204 147.741C159.972 143.461 158.23 139.007 156.875 134.377C156.43 132.862 155.907 131.061 154.315 130.392C153.173 129.911 151.974 130.171 151.22 131.135L152.056 131.23C148.241 122.469 152.639 113.327 156.611 105.5C156.895 104.942 155.986 104.59 155.702 105.147L155.708 105.176Z" fill="#B5C3CD"/>
<path d="M231.37 162.035C219.21 155.648 208.112 147.438 197.916 138.262C187.719 129.087 178.202 119.123 169.512 108.6C165.065 103.22 161.101 97.0764 159.113 90.3195C158.933 89.7187 158.051 90.1063 158.223 90.697C161.931 103.25 171.903 113.183 180.602 122.491C190.046 132.613 200.13 142.208 211.25 150.467C217.519 155.123 224.109 159.31 231.029 162.936C231.576 163.228 231.927 162.32 231.38 162.027L231.37 162.035Z" fill="#B5C3CD"/>
<path d="M187.511 159.781C181.23 147.34 177.996 133.534 178.138 119.605C178.143 118.989 177.171 118.869 177.174 119.495C177.022 133.598 180.256 147.57 186.611 160.167C186.889 160.723 187.779 160.346 187.501 159.789L187.511 159.781Z" fill="#B5C3CD"/>
<path d="M162.107 145.995C159.147 131.473 159.604 116.384 163.463 102.078C163.622 101.488 162.723 101.127 162.554 101.725C158.641 116.191 158.147 131.442 161.142 146.134C161.266 146.746 162.231 146.608 162.107 145.995Z" fill="#B5C3CD"/>
<path d="M157.509 90.9011C156.514 97.1704 151.432 101.463 146.36 104.689C145.834 105.025 146.438 105.785 146.965 105.449C152.283 102.076 157.436 97.5611 158.473 91.011C158.572 90.3867 157.608 90.2768 157.509 90.9011Z" fill="#B5C3CD"/>
<path d="M143.987 91.8995C141.594 93.92 139.882 97.4828 136.508 98.0008C135.889 98.096 136.029 99.0606 136.647 98.9653C140.295 98.3956 142.006 94.8328 144.583 92.6491C145.061 92.2522 144.457 91.4925 143.979 91.8893L143.987 91.8995Z" fill="#B5C3CD"/>
<path d="M131.612 95.5287C126.76 95.998 122.239 98.2733 118.933 101.848C118.503 102.305 119.304 102.876 119.715 102.416C122.843 99.033 127.171 96.929 131.753 96.4751C132.378 96.4082 132.228 95.4517 131.614 95.5106L131.612 95.5287Z" fill="#B5C3CD"/>
<path d="M111.205 119.415C102.624 124.672 92.031 126.154 82.3239 123.472L82.4514 124.297L84.3852 122.593C84.6707 122.349 84.5932 121.732 84.1425 121.727C76.8388 121.649 69.6757 120.087 63.0128 117.117L63.1404 117.942L65.4982 116.396C65.8463 116.169 65.6576 115.558 65.2555 115.53C55.9496 115.16 46.9057 112.315 39.0691 107.267L38.9743 108.104C39.9109 107.723 40.758 107.561 41.7664 107.603C42.1968 107.624 42.562 107.002 42.1139 106.73C39.9986 105.485 37.8934 104.232 35.7781 102.987C34.7689 102.384 33.7576 101.799 32.7484 101.196C32.1954 100.875 31.6423 100.554 31.0913 100.215L30.5382 99.8936C30.0778 99.7306 29.8663 99.4026 29.8876 98.8892C30.4145 99.1979 30.9982 98.4355 30.4552 98.1065C26.5759 95.767 22.8608 93.1974 19.3221 90.3716C17.5144 88.9314 15.7594 87.4326 14.049 85.8653C13.1897 85.0765 12.3406 84.2797 11.5118 83.4668C10.9733 82.9357 9.34484 81.783 9.13425 81.0406C8.58085 79.0156 19.244 76.9984 20.7563 76.7379C24.9838 76.0041 29.2708 75.802 33.5546 76.1154C33.9466 76.1508 34.1616 75.7977 34.0553 75.4356C33.612 73.9022 32.7495 72.7354 31.4338 71.8302L31.2157 72.6987C39.546 70.9497 48.0577 70.3635 56.5446 70.9718C56.9468 70.9992 57.2772 70.5211 56.9748 70.1827C56.0514 69.1472 55.1382 68.1036 54.2067 67.058L53.8979 67.8333C63.3279 65.9702 73.0123 66.0887 82.3994 68.1812C82.8478 68.2875 83.0431 67.7019 82.8295 67.392C82.058 66.2357 81.2945 65.0894 80.5331 63.925L80.2242 64.7003C86.9233 64.018 93.6952 64.2374 100.332 65.4084C101.93 65.6919 103.522 66.0299 105.107 66.4225C105.537 66.5268 106.024 66.7849 106.479 66.671C107.132 66.5152 107.8 65.9835 108.467 65.7832C111.55 64.8359 114.915 65.6156 117.317 67.7408C117.442 67.8564 117.646 67.8428 117.79 67.7947C124.469 65.2588 130.406 68.2106 135.618 72.3691C141.107 76.7528 146.256 81.5398 151.418 86.3005C151.876 86.7303 152.445 85.9295 151.985 85.5179C147.342 81.2215 142.689 76.9332 137.805 72.8948C133.839 69.6151 129.515 66.2393 124.181 65.8522C123.122 65.7683 122.041 65.8016 120.983 65.9482C120.057 66.0729 118.4 66.8788 117.534 66.6418C117.122 66.5396 116.642 65.9783 116.244 65.7488C115.881 65.5416 115.516 65.3526 115.12 65.1877C114.118 64.7604 113.024 64.5066 111.936 64.4287C111.005 64.3594 110.033 64.4051 109.119 64.5865C108.092 64.7917 106.899 65.6413 105.907 65.6203C104.842 65.591 103.631 65.0661 102.578 64.8448C101.148 64.5436 99.7036 64.2868 98.2529 64.0846C92.2282 63.2043 86.1149 63.1061 80.0768 63.7256C79.6766 63.7629 79.5785 64.2215 79.7679 64.5009C80.5394 65.6573 81.3029 66.8036 82.0643 67.968L82.4945 67.1789C73.0347 65.0781 63.2492 64.9573 53.7525 66.8404C53.4128 66.9122 53.1815 67.3279 53.4436 67.6157C54.367 68.6512 55.2802 69.6948 56.2117 70.7404L56.6419 69.9513C48.064 69.3327 39.4614 69.9085 31.0643 71.6775C30.668 71.7613 30.4789 72.2924 30.8462 72.5461C32.0166 73.3519 32.7459 74.3929 33.1452 75.7463L33.6459 75.0666C28.9235 74.7216 24.1877 74.983 19.5354 75.8895C17.2851 76.3238 15.0627 76.9178 12.8885 77.6554C11.7782 78.0262 10.6739 78.4253 9.59972 78.8831C9.00903 79.1381 8.21626 79.3886 7.98236 80.0711C7.46584 81.5411 9.90363 83.1914 10.7325 84.0043C12.6302 85.8693 14.5928 87.6496 16.6182 89.3634C20.7718 92.8579 25.2052 95.9975 29.8514 98.8022L30.419 98.0195C29.8135 97.6742 29.1382 97.7814 28.8012 98.4798C28.2856 99.5355 29.442 100.303 30.2009 100.758C33.9308 103.034 37.7276 105.208 41.4899 107.442L41.8374 106.57C40.6734 106.52 39.6322 106.687 38.55 107.135C38.2223 107.263 38.1464 107.77 38.4552 107.971C46.429 113.108 55.6304 116.026 65.1 116.415L64.8573 115.549L62.4995 117.095C62.1717 117.306 62.3202 117.784 62.6271 117.92C69.3707 120.909 76.6227 122.5 83.9992 122.585L83.7565 121.72L81.8228 123.424C81.5676 123.644 81.5746 124.151 81.9503 124.249C92.023 127.037 102.879 125.511 111.777 120.051C112.312 119.725 111.697 118.973 111.173 119.291L111.205 119.415Z" fill="#B5C3CD"/>
<path d="M129.806 90.0991C97.7446 92.7993 65.3116 90.8979 33.7818 84.4391C29.4709 83.5516 25.2535 82.4076 20.9793 81.3586C17.2162 80.4322 13.4081 79.7402 9.52323 79.9697C8.89259 80.0083 9.04209 80.9648 9.6626 80.9342C17.1716 80.5008 24.4792 83.4707 31.7292 84.9972C39.6075 86.669 47.5471 88.0438 55.5277 89.1378C71.299 91.295 87.2142 92.3449 103.138 92.2628C112.085 92.2236 121.029 91.8063 129.945 91.0636C130.568 91.0148 130.428 90.0503 129.806 90.0991Z" fill="#B5C3CD"/>
<path d="M37.4166 84.4592C33.9912 80.6332 29.6179 77.7767 24.7284 76.2246C24.1326 76.037 23.781 76.9456 24.3768 77.1332C29.1067 78.6303 33.355 81.3712 36.6655 85.0735C37.0828 85.5356 37.842 84.9314 37.4246 84.4693L37.4166 84.4592Z" fill="#B5C3CD"/>
<path d="M60.2403 88.9937C51.9478 98.4562 38.4665 99.0101 27.0847 95.9902C26.4949 95.8308 26.1331 96.7475 26.7331 96.8988C38.5714 100.035 52.4025 99.4014 61.0131 89.57C61.4163 89.1001 60.6334 88.5319 60.2302 89.0018L60.2403 88.9937Z" fill="#B5C3CD"/>
<path d="M98.1299 92.0803C81.0038 106.108 57.7321 105.122 36.9223 103.947C36.2999 103.913 36.1907 104.877 36.8131 104.911C57.8876 106.107 81.404 107.047 98.7346 92.84C99.2205 92.4533 98.6078 91.6834 98.1299 92.0803Z" fill="#B5C3CD"/>
<path d="M118.331 92.2018C101.428 107.59 78.3876 115.62 55.582 114.015C54.9515 113.971 54.8423 114.935 55.4728 114.979C73.3459 116.225 91.4053 111.679 106.628 102.261C111.015 99.5466 115.127 96.4233 118.946 92.9534C119.407 92.5363 118.803 91.7766 118.341 92.1937L118.331 92.2018Z" fill="#B5C3CD"/>
<path d="M141.35 87.6116C123.411 75.5641 102.63 68.0463 81.1451 65.8365C80.5167 65.7741 80.4075 66.7379 81.0359 66.8004C102.357 68.9915 122.971 76.4441 140.782 88.3943C141.305 88.7394 141.873 87.9567 141.35 87.6116Z" fill="#B5C3CD"/>
<path d="M114.993 90.2922C110.837 87.0645 106.241 84.3853 101.73 81.6882C97.677 79.2551 93.5491 76.9148 89.3217 74.8026C80.8225 70.564 71.8098 67.28 62.3255 66.208C61.7073 66.1375 61.5981 67.1014 62.2164 67.1719C71.6097 68.2335 80.5415 71.4991 88.962 75.7011C93.2762 77.86 97.4808 80.2551 101.61 82.743C105.964 85.3669 110.397 87.9445 114.408 91.0728C114.898 91.4603 115.475 90.6696 114.975 90.2902L114.993 90.2922Z" fill="#B5C3CD"/>
<path d="M97.9375 91.1734C82.5233 77.1663 61.3406 73.6738 41.5091 70.6117C40.8848 70.5129 40.7837 71.4869 41.3999 71.5755C61.0779 74.6109 82.0727 78.0543 97.3699 91.956C97.8378 92.3778 98.3973 91.585 97.9375 91.1734Z" fill="#B5C3CD"/>
<path d="M70.4142 89.0225C61.3684 77.7401 46.3427 75.6679 32.8861 74.1339C32.2678 74.0634 32.1586 75.0273 32.7769 75.0977C45.9688 76.6108 60.7785 78.557 69.655 89.6268C70.042 90.113 70.8012 89.5088 70.4142 89.0225Z" fill="#B5C3CD"/>
<path d="M113.925 110.118C105.492 117.492 94.5854 121.655 83.3728 121.694C82.7564 121.688 82.6371 122.66 83.2636 122.658C94.7248 122.62 105.892 118.431 114.53 110.877C115 110.471 114.395 109.711 113.925 110.118Z" fill="#B5C3CD"/>
<path d="M182.98 160.026C184.019 165.404 184.212 170.86 183.567 176.304L184.342 175.968L181.883 173.772C181.641 173.551 181.253 173.728 181.149 173.993C179.533 177.612 178.358 181.393 177.622 185.288L178.397 184.952C176.938 183.929 175.587 185.535 175.062 186.829C173.683 190.227 172.913 194.017 171.87 197.527L172.491 197.247C171.706 196.863 171.179 196.389 170.688 195.688C170.466 195.368 169.999 195.508 169.863 195.815C168.22 199.422 166.63 203.054 165.084 206.7L165.909 206.573C165.351 205.81 164.45 206.195 163.912 206.806C163.16 207.669 162.698 208.897 162.143 209.902C161.518 211.028 160.883 212.162 160.258 213.288C157.748 217.801 155.23 222.303 152.72 226.816L153.396 226.708C151.011 224.751 148.745 230.443 147.888 231.671C145.104 235.674 141.465 239.017 137.28 241.487L137.914 241.743C134.898 236.582 133.084 230.812 132.737 224.851C132.67 223.811 132.912 222.411 132.297 221.494C131.439 220.208 129.482 220.823 129.172 218.918C128.919 217.415 129.076 215.785 129.045 214.271C129.018 212.637 129 211.014 128.963 209.389C128.959 209.177 128.729 209.012 128.539 208.981C127.535 208.821 126.662 208.97 125.761 209.438L126.427 209.818C125.872 204.072 125.678 198.303 125.871 192.541C125.894 192.092 125.448 191.884 125.082 192.11L121.886 194.057L122.662 194.367C121.797 189.479 121.804 184.543 122.671 179.65C122.733 179.27 122.319 179.02 121.991 179.148L119.689 180.037L120.369 180.539C120.382 176.524 120.878 172.556 121.862 168.661C121.948 168.312 121.626 167.824 121.215 168.035L119.173 169.147L119.853 169.648C119.979 163.178 121.205 156.825 123.502 150.777C123.715 150.194 122.825 149.844 122.593 150.425C120.27 156.543 119.015 162.986 118.89 169.538C118.881 169.86 119.207 170.229 119.57 170.04L121.611 168.928L120.964 168.301C119.943 172.274 119.421 176.313 119.408 180.41C119.403 180.778 119.722 181.054 120.088 180.912L122.389 180.023L121.709 179.522C120.834 184.487 120.835 189.516 121.709 194.479C121.775 194.874 122.187 194.976 122.485 194.789L125.68 192.841L124.891 192.41C124.698 198.256 124.882 204.116 125.447 209.937C125.479 210.226 125.858 210.453 126.113 210.317C126.868 209.915 127.553 209.799 128.404 209.933L127.98 209.526C128.005 211.26 128.039 212.986 128.056 214.711C128.079 216.214 127.934 217.819 128.218 219.297C128.388 220.155 128.772 220.991 129.622 221.373C130.472 221.756 131.224 221.703 131.648 222.838C131.881 223.464 131.697 224.603 131.742 225.262C132.137 231.202 133.968 236.992 136.968 242.133C137.082 242.339 137.355 242.536 137.602 242.389C140.633 240.589 143.384 238.416 145.771 235.805C146.99 234.47 148.101 233.04 149.101 231.533C149.522 230.9 151.535 226.469 152.781 227.495C152.967 227.645 153.339 227.614 153.457 227.388C155.398 223.906 157.33 220.433 159.272 216.952C160.209 215.263 161.156 213.566 162.094 211.876C162.567 211.037 163.031 210.187 163.514 209.34C163.654 209.079 164.865 206.841 165.113 207.173C165.337 207.475 165.8 207.371 165.938 207.046C167.484 203.4 169.074 199.768 170.717 196.161L169.892 196.288C170.495 197.149 171.171 197.686 172.113 198.144C172.331 198.252 172.671 198.097 172.734 197.865C173.423 195.53 174.121 193.187 174.809 190.853C175.035 190.077 176.171 184.606 177.775 185.729C178.082 185.948 178.472 185.753 178.55 185.393C179.277 181.571 180.431 177.89 182.013 174.331L181.279 174.551L183.738 176.747C184.023 177 184.466 176.747 184.513 176.412C185.166 170.895 184.965 165.346 183.926 159.886C183.802 159.273 182.848 159.403 182.962 160.024L182.98 160.026Z" fill="#B5C3CD"/>
<path d="M137.899 241.873C140.583 236.063 141.507 229.454 142.739 223.212C144.027 216.644 145.207 210.046 146.359 203.453C148.646 190.267 150.806 177.047 153.499 163.935C155.049 156.347 156.797 148.8 158.822 141.331C158.981 140.742 158.083 140.381 157.914 140.979C150.948 166.693 147.481 193.146 142.514 219.271C141.806 222.995 141.071 226.724 140.272 230.437C139.474 234.15 138.607 237.984 136.982 241.51C136.724 242.08 137.625 242.422 137.891 241.863L137.899 241.873Z" fill="#B5C3CD"/>
<path d="M121.551 173.277C124.421 170.132 124.971 165.774 126.252 161.858C127.632 157.65 129.532 153.639 131.883 149.882C136.592 142.378 143.064 136.051 150.71 131.572C151.242 131.264 150.866 130.355 150.331 130.681C142.852 135.079 136.437 141.145 131.69 148.414C129.327 152.031 127.359 155.915 125.884 159.983C124.41 164.052 123.912 169.264 120.778 172.701C120.357 173.169 121.15 173.729 121.561 173.269L121.551 173.277Z" fill="#B5C3CD"/>
<path d="M150.498 171.881C144.231 174.85 140.399 180.713 137.007 186.507C135.258 189.503 133.542 192.541 131.424 195.302C129.306 198.063 127.022 200.262 125.59 203.304C125.324 203.863 126.233 204.215 126.499 203.656C127.894 200.693 130.249 198.438 132.207 195.87C134.165 193.302 135.836 190.417 137.492 187.594C140.875 181.79 144.581 175.747 150.876 172.771C151.441 172.504 151.063 171.613 150.498 171.881Z" fill="#B5C3CD"/>
<path d="M145.778 197.859C138.457 203.951 132.835 211.867 129.504 220.79C129.29 221.373 130.189 221.733 130.412 221.142C133.689 212.379 139.193 204.606 146.383 198.619C146.86 198.222 146.256 197.463 145.778 197.859Z" fill="#B5C3CD"/>
<path d="M150.947 178.095C154.597 184.323 156.817 191.309 157.402 198.504C157.689 202.065 157.576 205.662 157.037 209.202C156.477 212.924 155.455 216.583 155.459 220.369C155.453 220.986 156.425 221.106 156.422 220.479C156.421 216.592 157.488 212.864 158.04 209.049C158.551 205.515 158.645 201.916 158.358 198.355C157.763 191.085 155.517 184.004 151.829 177.707C151.52 177.175 150.622 177.542 150.938 178.085L150.947 178.095Z" fill="#B5C3CD"/>
<path d="M155.647 152.774C158.186 156.462 159.604 160.695 160.72 164.985C161.764 169.019 162.695 173.076 163.598 177.139C165.395 185.256 166.84 193.471 166.964 201.811C166.977 202.43 167.941 202.291 167.928 201.672C167.793 192.944 166.215 184.355 164.304 175.866C162.502 167.868 161.143 159.056 156.407 152.17C156.05 151.659 155.291 152.264 155.647 152.774Z" fill="#B5C3CD"/>
<path d="M170.024 154.883C174.707 163.218 177.383 172.522 177.849 182.062C177.88 182.683 178.844 182.544 178.813 181.923C178.337 172.309 175.635 162.91 170.914 154.506C170.616 153.965 169.708 154.341 170.024 154.883Z" fill="#B5C3CD"/>
<path d="M86.9067 194.712C88.1169 193.947 89.1781 192.954 90.0092 191.796C90.37 191.294 89.5972 190.718 89.2263 191.228C88.4296 192.325 87.4333 193.234 86.302 193.952C86.0834 194.093 86.0705 194.451 86.2237 194.643C86.4011 194.866 86.678 194.861 86.9147 194.722L86.9067 194.712Z" fill="#B5C3CD"/>
<path d="M97.1342 195.245L95.1033 192.361C94.9522 192.15 94.6148 192.121 94.4123 192.282C94.1997 192.451 94.1849 192.744 94.334 192.973L96.3649 195.857C96.516 196.068 96.8535 196.097 97.0559 195.936C97.2685 195.767 97.2833 195.474 97.1342 195.245Z" fill="#B5C3CD"/>
<path d="M93.8422 187.722C95.1053 186.816 96.2615 185.797 97.329 184.666C97.5073 184.474 97.4171 184.132 97.2214 183.99C96.9833 183.816 96.7244 183.906 96.5461 184.098C95.5333 185.152 94.4217 186.103 93.2376 186.962C92.7356 187.329 93.3402 188.089 93.8422 187.722Z" fill="#B5C3CD"/>
<path d="M88.0783 185.672L85.5146 182.451C85.1276 181.964 84.3684 182.569 84.7554 183.055L87.3191 186.276C87.7061 186.762 88.4653 186.158 88.0783 185.672Z" fill="#B5C3CD"/>
<path d="M123.106 57.46L126.284 54.9302C126.77 54.5435 126.165 53.7838 125.679 54.1705L122.501 56.7003C122.015 57.087 122.62 57.8467 123.106 57.46Z" fill="#B5C3CD"/>
<path d="M134.523 58.9452L132.112 55.9164C131.725 55.4302 130.966 56.0345 131.353 56.5207L133.763 59.5494C134.15 60.0356 134.91 59.4314 134.523 58.9452Z" fill="#B5C3CD"/>
<path d="M130.683 50.6514L134.347 47.7349C134.833 47.3482 134.228 46.5885 133.742 46.9752L130.078 49.8917C129.592 50.2784 130.197 51.0381 130.683 50.6514Z" fill="#B5C3CD"/>
<path d="M126.013 48.5414C124.886 47.2708 123.842 45.9176 122.907 44.494C122.766 44.2753 122.409 44.2621 122.216 44.4152C121.994 44.5924 121.989 44.8774 122.138 45.1063C123.073 46.5299 124.109 47.873 125.244 49.1537C125.661 49.6157 126.42 49.0115 126.003 48.5494L126.013 48.5414Z" fill="#B5C3CD"/>
</g>
<defs>
<clipPath id="clip0_2998_31248">
<rect width="224.021" height="138.597" fill="white" transform="translate(139.506 261.59) rotate(-128.516)"/>
</clipPath>
</defs>
</svg>
