<svg width="164" height="262" viewBox="0 0 164 262" fill="none" xmlns="http://www.w3.org/2000/svg">
<g clip-path="url(#clip0_2741_41160)">
<path d="M158.661 92.1188C158.871 94.648 159.068 97.2217 158.672 99.7371C158.482 100.931 158.164 102.111 157.644 103.203C157.149 104.242 156.528 105.498 155.025 105.271C154.59 105.203 154.189 104.927 153.736 104.857C151.5 104.519 148.157 107.196 146.556 104.748C145.99 103.891 145.939 103.121 145.01 102.536C144.357 102.13 143.563 101.984 142.803 101.861C141.51 101.649 140.285 101.565 139.153 100.828C137.936 100.026 137.042 98.8186 136.025 97.7909C134.63 96.37 133.032 95.193 131.247 94.2804C127.2 92.2071 122.469 91.6863 118.077 92.8159C117.594 92.9358 117.491 93.7622 118.098 93.7761C118.3 93.7807 117.102 95.4125 116.937 95.6425C116.599 96.1105 116.321 96.613 116.122 97.1521C115.766 98.0971 115.649 99.1337 115.897 100.111C116.572 102.849 119.774 103.693 122.174 104.216C124.808 104.783 127.189 104.327 129.663 103.384C132.349 102.355 135.022 100.955 137.98 101.514C138.602 101.631 138.703 100.657 138.089 100.55C132.786 99.5584 128.433 104.248 123.103 103.41C121.456 103.148 119.153 102.665 117.873 101.533C116.257 100.106 116.551 97.8365 117.718 96.2289C118.209 95.5572 119.255 94.9396 119.304 94.0241C119.335 93.3369 118.868 92.8323 118.207 92.8122L118.227 93.7724C122.39 92.7089 126.826 93.15 130.696 95.0833C132.719 96.0876 134.431 97.471 135.958 99.1187C137.18 100.446 138.421 101.84 140.203 102.375C140.942 102.597 141.716 102.676 142.478 102.782C143.963 103.006 144.762 103.346 145.491 104.719C146.219 106.091 147.115 106.801 148.791 106.725C149.624 106.691 150.4 106.42 151.191 106.188C152.582 105.776 153.469 105.831 154.851 106.237C156.392 106.698 157.271 105.767 158.042 104.492C160.279 100.758 159.964 96.1449 159.607 91.9779C159.558 91.3552 158.593 91.494 158.643 92.1167L158.661 92.1188Z" fill="#B5C3CD"/>
<path d="M162.931 85.3111C160.527 88.6475 157.056 90.9136 153.028 91.7532L153.552 92.4116C153.835 91.7898 154.006 91.1738 154.11 90.4949C154.162 90.206 153.857 89.8858 153.554 89.9617C142.665 92.5888 131.382 93.1631 120.284 91.6216L120.304 92.5818C127.948 92.3387 135.556 91.1981 142.945 89.2221C146.449 88.2861 149.91 87.17 153.316 85.882C155.078 85.2079 156.825 84.4953 158.561 83.7261C159.346 83.3827 160.129 82.9746 160.972 82.7667C161.757 82.5891 162.925 82.6854 163.341 83.5618C163.55 83.9909 163.047 85.0203 162.874 85.4059C162.625 85.9853 163.525 86.3275 163.783 85.7582C164.256 84.6701 164.726 83.2039 163.7 82.2672C162.766 81.4054 161.324 81.6095 160.216 81.9621C158.188 82.6335 156.247 83.6649 154.261 84.4516C152.062 85.3246 149.845 86.1127 147.59 86.8319C138.722 89.6709 129.485 91.2981 120.177 91.591C119.613 91.6096 119.662 92.4809 120.197 92.5512C131.376 94.1111 142.75 93.5471 153.715 90.892L153.159 90.3588C153.058 91.0013 152.914 91.4638 152.656 92.0331C152.518 92.3581 152.822 92.7612 153.18 92.6915C157.462 91.7981 161.168 89.4114 163.726 85.853C164.087 85.3508 163.314 84.7745 162.943 85.2848L162.931 85.3111Z" fill="#B5C3CD"/>
<path d="M153.216 105.719C152.908 109.653 151.738 113.398 149.697 116.776L150.463 116.762C149.682 115.53 148.195 116.383 147.463 117.23C146.604 118.228 146.06 119.621 145.414 120.764C144.607 122.2 143.781 123.635 142.937 125.068C141.252 127.915 139.524 130.73 137.743 133.521C136.735 135.1 135.924 136.408 134.003 136.944C132.852 137.264 132.16 138.014 131.372 138.873C127 143.643 123.419 149.157 118.597 153.507C116.649 155.256 113.5 158.259 110.616 157.626C107.254 156.893 107.133 152.108 107.01 149.377C106.739 142.908 108.056 136.482 110.749 130.6C110.922 130.214 110.47 129.813 110.102 129.973C109.052 130.461 108.065 130.635 106.925 130.532L107.32 131.194C108.847 127.15 111.017 123.437 113.797 120.116C113.99 119.88 113.861 119.469 113.576 119.381L111.355 118.668L111.634 119.289C112.241 118.161 112.84 117.022 113.457 115.886C113.901 115.053 114.542 114.195 114.687 113.236C114.833 112.276 114.471 111.24 113.359 111.38L113.825 112.152C115.922 109.324 118.325 106.816 121.062 104.605C121.548 104.218 120.943 103.458 120.457 103.845C117.659 106.105 115.184 108.687 113.034 111.574C112.784 111.904 113.088 112.39 113.499 112.345C114.257 112.238 112.546 115.552 112.416 115.804C111.856 116.846 111.304 117.897 110.734 118.947C110.616 119.173 110.781 119.505 111.013 119.568L113.235 120.282L113.014 119.548C110.182 122.927 107.974 126.719 106.419 130.852C106.314 131.135 106.505 131.479 106.814 131.514C108.117 131.635 109.3 131.438 110.486 130.892L109.838 130.266C107.499 135.387 106.161 140.936 106.02 146.575C105.922 150.359 105.737 158.664 111.286 158.698C113.578 158.71 115.661 157.152 117.388 155.81C119.862 153.891 122.029 151.587 124.057 149.211C126.213 146.685 128.236 144.033 130.384 141.496C131.51 140.169 132.662 138.458 134.339 137.885C135.718 137.416 136.468 137.133 137.372 135.901C139.663 132.754 141.605 129.273 143.586 125.925C144.532 124.329 145.461 122.712 146.372 121.094C146.593 120.686 148.868 116.046 149.728 117.396C149.894 117.645 150.346 117.632 150.494 117.382C152.616 113.857 153.867 109.965 154.194 105.867C154.245 105.247 153.282 105.137 153.23 105.757L153.216 105.719Z" fill="#B5C3CD"/>
<path d="M110.092 157.116C120.206 138.89 132.119 121.698 145.615 105.811C146.018 105.341 145.227 104.762 144.832 105.242C131.328 121.12 119.423 138.322 109.309 156.547C109.009 157.084 109.789 157.671 110.092 157.116Z" fill="#B5C3CD"/>
<path d="M121.418 150.882C122.646 146.794 122.783 142.416 121.751 138.274C121.599 137.667 120.634 137.805 120.786 138.412C121.772 142.393 121.7 146.603 120.51 150.529C120.332 151.117 121.231 151.477 121.418 150.882Z" fill="#B5C3CD"/>
<path d="M135.802 136.587C137.219 130.744 136.78 124.541 134.587 118.94C134.358 118.361 133.468 118.738 133.697 119.317C135.841 124.775 136.218 130.795 134.838 136.477C134.695 137.087 135.651 137.187 135.802 136.587Z" fill="#B5C3CD"/>
<path d="M142.309 126.71C143.511 121.302 143.321 115.662 141.815 110.342C141.653 109.743 140.752 110.128 140.925 110.719C142.375 115.886 142.508 121.372 141.345 126.6C141.202 127.21 142.176 127.312 142.309 126.71Z" fill="#B5C3CD"/>
<path d="M107.386 141.665C110.995 138.908 115.592 137.682 120.095 138.251C120.721 138.331 120.831 137.367 120.204 137.287C115.456 136.681 110.591 138.005 106.781 140.905C106.295 141.292 106.892 142.041 107.386 141.665Z" fill="#B5C3CD"/>
<path d="M108.351 130.787C113.244 122.226 123.256 117.915 132.82 120.396C133.42 120.547 133.771 119.639 133.171 119.488C123.213 116.906 112.701 121.253 107.56 130.209C107.26 130.745 108.033 131.322 108.343 130.777L108.351 130.787Z" fill="#B5C3CD"/>
<path d="M155.709 105.174C151.617 113.246 147.24 122.62 151.173 131.634C151.318 131.982 151.783 132.026 152.01 131.73C153.161 130.268 154.766 131.703 155.3 132.768C155.624 133.404 155.784 134.103 155.992 134.781C156.444 136.325 156.915 137.852 157.464 139.351C158.541 142.366 159.848 145.297 161.331 148.137C161.567 148.578 162.149 148.479 162.259 147.994C162.424 147.267 162.582 146.53 162.747 145.802L161.881 146.044C166.126 150.36 170.361 154.683 174.606 158.999C174.747 159.135 174.981 159.263 175.18 159.138C176.264 158.506 176.872 157.609 176.916 156.333L176.254 156.728C179.008 158.027 181.563 159.617 183.958 161.483C184.22 161.688 184.56 161.534 184.692 161.263C185.015 160.609 185.074 160.082 184.888 159.37L184.117 159.834C190.803 163.498 197.669 166.786 204.728 169.672C205.176 169.862 205.582 169.291 205.283 168.916L204.332 167.721C204.182 167.989 204.042 168.249 203.902 168.51C207.099 168.745 210.287 168.971 213.484 169.206C213.813 169.225 214.176 168.87 213.985 168.526C213.294 167.305 212.596 166.074 211.905 164.854L211.279 165.501C218.265 167.651 225.851 166.941 232.302 163.495C232.537 163.374 232.677 163.114 232.558 162.861C229.267 155.651 225.537 148.659 221.413 141.898C221.212 141.562 220.706 141.716 220.588 142.025C220.233 142.887 220.239 143.643 220.631 144.489L221.461 143.995C217.393 138.115 212.415 132.961 206.692 128.679C206.192 128.3 205.655 129.059 206.125 129.462C206.954 130.192 207.833 130.32 208.868 130.042C209.163 129.956 209.251 129.505 209.054 129.299C205.342 125.155 201.193 121.458 196.644 118.277L196.659 119.044C197.487 118.318 197.352 117.4 196.854 116.505C195.955 114.855 194.183 113.502 192.888 112.166C189.569 108.703 186.25 105.239 182.913 101.773C179.776 98.4954 176.699 95.1697 173.468 91.983C170.57 89.1105 167.459 86.4901 163.74 84.7675C163.171 84.5092 162.829 85.4097 163.389 85.6761C170.336 88.8996 175.407 95.354 180.605 100.764C183.34 103.617 186.066 106.461 188.8 109.315C189.714 110.276 197.33 117.186 196.034 118.3C195.799 118.504 195.784 118.879 196.048 119.066C200.536 122.212 204.621 125.828 208.276 129.901L208.462 129.158C207.714 129.339 207.114 129.188 206.672 128.696L206.105 129.478C211.758 133.715 216.652 138.804 220.682 144.615C220.99 145.065 221.741 144.616 221.511 144.12C221.187 143.567 221.17 142.985 221.477 142.394L220.652 142.521C224.748 149.205 228.421 156.126 231.666 163.256L231.922 162.622C225.696 165.956 218.39 166.707 211.637 164.62C211.281 164.506 210.789 164.865 211.011 165.267C211.701 166.488 212.4 167.719 213.091 168.94L213.591 168.26C210.394 168.025 207.206 167.799 204.009 167.564C203.599 167.526 203.305 168.009 203.579 168.353L204.53 169.548C204.725 169.294 204.901 169.038 205.086 168.792C198.115 165.934 191.308 162.699 184.701 159.072C184.388 158.907 183.815 159.082 183.93 159.537C184.125 160.01 184.081 160.475 183.789 160.939L184.523 160.719C182.06 158.808 179.418 157.171 176.593 155.845C176.323 155.713 175.946 155.946 175.932 156.24C175.899 157.092 175.55 157.817 174.781 158.264L175.355 158.403C171.11 154.087 166.875 149.764 162.631 145.448C162.316 145.136 161.859 145.268 161.765 145.69C161.6 146.418 161.442 147.155 161.277 147.882L162.205 147.739C159.973 143.46 158.231 139.006 156.876 134.375C156.431 132.86 155.908 131.06 154.316 130.39C153.174 129.91 151.975 130.169 151.221 131.133L152.057 131.229C148.242 122.467 152.64 113.325 156.612 105.498C156.896 104.941 155.987 104.589 155.703 105.146L155.709 105.174Z" fill="#B5C3CD"/>
<path d="M231.371 162.035C219.211 155.647 208.113 147.437 197.917 138.262C187.72 129.086 178.203 119.123 169.513 108.599C165.066 103.22 161.102 97.0759 159.114 90.319C158.934 89.7182 158.052 90.1058 158.224 90.6965C161.932 103.249 171.904 113.182 180.603 122.491C190.047 132.612 200.131 142.208 211.251 150.466C217.52 155.123 224.11 159.31 231.03 162.935C231.577 163.228 231.928 162.319 231.381 162.027L231.371 162.035Z" fill="#B5C3CD"/>
<path d="M187.511 159.779C181.23 147.339 177.996 133.532 178.138 119.603C178.143 118.987 177.171 118.867 177.174 119.494C177.022 133.596 180.256 147.568 186.611 160.165C186.889 160.722 187.779 160.344 187.501 159.788L187.511 159.779Z" fill="#B5C3CD"/>
<path d="M162.108 145.997C159.148 131.475 159.605 116.385 163.464 102.079C163.623 101.489 162.724 101.129 162.555 101.727C158.642 116.192 158.148 131.444 161.143 146.135C161.267 146.748 162.232 146.609 162.108 145.997Z" fill="#B5C3CD"/>
<path d="M157.509 90.9006C156.514 97.1699 151.432 101.463 146.36 104.689C145.834 105.025 146.438 105.784 146.965 105.448C152.283 102.076 157.436 97.5606 158.473 91.0105C158.572 90.3862 157.608 90.2763 157.509 90.9006Z" fill="#B5C3CD"/>
<path d="M143.987 91.9012C141.594 93.9218 139.882 97.4845 136.508 98.0025C135.889 98.0977 136.029 99.0623 136.647 98.967C140.295 98.3973 142.006 94.8345 144.583 92.6508C145.061 92.2539 144.457 91.4942 143.979 91.8911L143.987 91.9012Z" fill="#B5C3CD"/>
<path d="M131.613 95.5285C126.761 95.9978 122.24 98.2731 118.934 101.847C118.504 102.305 119.305 102.875 119.716 102.416C122.844 99.0328 127.172 96.9288 131.754 96.4749C132.379 96.4079 132.229 95.4514 131.615 95.5103L131.613 95.5285Z" fill="#B5C3CD"/>
<path d="M111.205 119.415C102.624 124.672 92.031 126.154 82.3239 123.473L82.4514 124.298L84.3852 122.593C84.6707 122.349 84.5932 121.733 84.1425 121.727C76.8388 121.65 69.6757 120.087 63.0128 117.117L63.1404 117.942L65.4982 116.397C65.8463 116.169 65.6576 115.558 65.2555 115.531C55.9496 115.161 46.9057 112.315 39.0691 107.268L38.9743 108.104C39.9109 107.723 40.758 107.562 41.7664 107.603C42.1968 107.624 42.562 107.003 42.1139 106.731C39.9986 105.486 37.8934 104.233 35.7781 102.987C34.7689 102.384 33.7576 101.799 32.7484 101.196C32.1954 100.875 31.6423 100.554 31.0913 100.215L30.5382 99.8941C30.0778 99.7311 29.8663 99.403 29.8876 98.8897C30.4145 99.1984 30.9982 98.436 30.4552 98.107C26.5759 95.7674 22.8608 93.1979 19.3221 90.3721C17.5144 88.9319 15.7594 87.4331 14.049 85.8658C13.1897 85.077 12.3406 84.2802 11.5118 83.4673C10.9733 82.9362 9.34484 81.7835 9.13425 81.041C8.58085 79.0161 19.244 76.9989 20.7563 76.7384C24.9838 76.0045 29.2708 75.8025 33.5546 76.1158C33.9466 76.1513 34.1616 75.7982 34.0553 75.4361C33.612 73.9027 32.7495 72.7359 31.4338 71.8307L31.2157 72.6992C39.546 70.9502 48.0577 70.364 56.5446 70.9723C56.9468 70.9997 57.2772 70.5216 56.9748 70.1832C56.0514 69.1477 55.1382 68.1041 54.2067 67.0584L53.8979 67.8338C63.3279 65.9707 73.0123 66.0892 82.3994 68.1817C82.8478 68.288 83.0431 67.7024 82.8295 67.3925C82.058 66.2362 81.2945 65.0899 80.5331 63.9255L80.2242 64.7008C86.9233 64.0185 93.6952 64.2379 100.332 65.4089C101.93 65.6924 103.522 66.0304 105.107 66.423C105.537 66.5273 106.024 66.7854 106.479 66.6715C107.132 66.5157 107.8 65.984 108.467 65.7837C111.55 64.8364 114.915 65.6161 117.317 67.7413C117.442 67.8569 117.646 67.8433 117.79 67.7952C124.469 65.2592 130.406 68.2111 135.618 72.3696C141.107 76.7533 146.256 81.5403 151.418 86.301C151.876 86.7308 152.445 85.93 151.985 85.5183C147.342 81.222 142.689 76.9336 137.805 72.8953C133.839 69.6156 129.515 66.2398 124.181 65.8527C123.122 65.7688 122.041 65.8021 120.983 65.9487C120.057 66.0734 118.4 66.8792 117.534 66.6423C117.122 66.5401 116.642 65.9788 116.244 65.7493C115.881 65.5421 115.516 65.353 115.12 65.1882C114.118 64.7609 113.024 64.5071 111.936 64.4292C111.005 64.3599 110.033 64.4056 109.119 64.587C108.092 64.7922 106.899 65.6418 105.907 65.6208C104.842 65.5915 103.631 65.0666 102.578 64.8453C101.148 64.5441 99.7036 64.2873 98.2529 64.0851C92.2282 63.2048 86.1149 63.1066 80.0768 63.7261C79.6766 63.7634 79.5785 64.2219 79.7679 64.5014C80.5394 65.6578 81.3029 66.804 82.0643 67.9685L82.4945 67.1794C73.0347 65.0786 63.2492 64.9577 53.7525 66.8409C53.4128 66.9127 53.1815 67.3284 53.4436 67.6162C54.367 68.6517 55.2802 69.6953 56.2117 70.7409L56.6419 69.9518C48.064 69.3332 39.4614 69.909 31.0643 71.678C30.668 71.7618 30.4789 72.2929 30.8462 72.5466C32.0166 73.3524 32.7459 74.3934 33.1452 75.7468L33.6459 75.067C28.9235 74.7221 24.1877 74.9835 19.5354 75.89C17.2851 76.3242 15.0627 76.9182 12.8885 77.6559C11.7782 78.0267 10.6739 78.4258 9.59972 78.8836C9.00903 79.1386 8.21626 79.389 7.98236 80.0716C7.46584 81.5416 9.90363 83.1919 10.7325 84.0048C12.6302 85.8698 14.5928 87.6501 16.6182 89.3639C20.7718 92.8584 25.2052 95.998 29.8514 98.8027L30.419 98.02C29.8135 97.6747 29.1382 97.7819 28.8012 98.4803C28.2856 99.536 29.442 100.303 30.2009 100.758C33.9308 103.035 37.7276 105.208 41.4899 107.443L41.8374 106.57C40.6734 106.521 39.6322 106.687 38.55 107.135C38.2223 107.263 38.1464 107.771 38.4552 107.972C46.429 113.108 55.6304 116.027 65.1 116.416L64.8573 115.55L62.4995 117.095C62.1717 117.307 62.3202 117.784 62.6271 117.921C69.3707 120.909 76.6227 122.5 83.9992 122.586L83.7565 121.72L81.8228 123.425C81.5676 123.644 81.5746 124.152 81.9503 124.25C92.023 127.037 102.879 125.512 111.777 120.051C112.312 119.725 111.697 118.974 111.173 119.292L111.205 119.415Z" fill="#B5C3CD"/>
<path d="M129.805 90.1003C97.7437 92.8005 65.3106 90.8992 33.7808 84.4403C29.4699 83.5528 25.2525 82.4089 20.9783 81.3598C17.2152 80.4334 13.4071 79.7414 9.52226 79.9709C8.89162 80.0095 9.04111 80.966 9.66163 80.9354C17.1706 80.502 24.4782 83.4719 31.7283 84.9984C39.6066 86.6702 47.5461 88.0451 55.5267 89.1391C71.298 91.2962 87.2132 92.3461 103.137 92.264C112.084 92.2248 121.028 91.8076 129.944 91.0648C130.567 91.0161 130.427 90.0515 129.805 90.1003Z" fill="#B5C3CD"/>
<path d="M37.4166 84.4587C33.9912 80.6327 29.6179 77.7763 24.7284 76.2241C24.1326 76.0365 23.781 76.9451 24.3768 77.1327C29.1067 78.6298 33.355 81.3707 36.6655 85.0731C37.0828 85.5351 37.842 84.9309 37.4246 84.4688L37.4166 84.4587Z" fill="#B5C3CD"/>
<path d="M60.2413 88.9947C51.9488 98.4571 38.4674 99.011 27.0856 95.9911C26.4958 95.8318 26.1341 96.7485 26.734 96.8997C38.5723 100.036 52.4035 99.4024 61.0141 89.5709C61.4173 89.1011 60.6343 88.5329 60.2311 89.0027L60.2413 88.9947Z" fill="#B5C3CD"/>
<path d="M98.1299 92.08C81.0038 106.108 57.7321 105.122 36.9223 103.947C36.2999 103.913 36.1907 104.877 36.8131 104.911C57.8876 106.107 81.404 107.047 98.7346 92.8397C99.2205 92.453 98.6078 91.6832 98.1299 92.08Z" fill="#B5C3CD"/>
<path d="M118.331 92.2001C101.428 107.589 78.3876 115.619 55.582 114.013C54.9515 113.969 54.8423 114.933 55.4728 114.977C73.3459 116.223 91.4053 111.678 106.628 102.259C111.015 99.5449 115.127 96.4216 118.946 92.9517C119.407 92.5346 118.803 91.7749 118.341 92.192L118.331 92.2001Z" fill="#B5C3CD"/>
<path d="M141.351 87.6126C123.412 75.5651 102.631 68.0473 81.146 65.8375C80.5176 65.7751 80.4084 66.7389 81.0368 66.8014C102.358 68.9925 122.972 76.4451 140.783 88.3953C141.306 88.7404 141.874 87.9577 141.351 87.6126Z" fill="#B5C3CD"/>
<path d="M114.993 90.2905C110.837 87.0628 106.241 84.3836 101.73 81.6865C97.677 79.2534 93.5491 76.9131 89.3217 74.8009C80.8225 70.5623 71.8098 67.2783 62.3255 66.2063C61.7073 66.1358 61.5981 67.0997 62.2164 67.1701C71.6097 68.2318 80.5415 71.4974 88.962 75.6994C93.2762 77.8583 97.4808 80.2534 101.61 82.7412C105.964 85.3652 110.397 87.9428 114.408 91.0711C114.898 91.4586 115.475 90.6679 114.975 90.2884L114.993 90.2905Z" fill="#B5C3CD"/>
<path d="M97.9384 91.1738C82.5243 77.1667 61.3416 73.6743 41.5101 70.6122C40.8858 70.5134 40.7846 71.4874 41.4009 71.576C61.0789 74.6114 82.0737 78.0548 97.3708 91.9565C97.8388 92.3783 98.3983 91.5855 97.9384 91.1738Z" fill="#B5C3CD"/>
<path d="M70.4152 89.0218C61.3694 77.7394 46.3437 75.6672 32.8871 74.1331C32.2688 74.0627 32.1596 75.0265 32.7779 75.097C45.9698 76.6101 60.7795 78.5563 69.656 89.626C70.043 90.1123 70.8022 89.508 70.4152 89.0218Z" fill="#B5C3CD"/>
<path d="M113.925 110.119C105.492 117.493 94.5854 121.656 83.3728 121.695C82.7564 121.689 82.6371 122.661 83.2636 122.659C94.7248 122.621 105.892 118.432 114.53 110.878C115 110.471 114.395 109.712 113.925 110.119Z" fill="#B5C3CD"/>
<path d="M182.979 160.027C184.018 165.405 184.211 170.861 183.566 176.305L184.341 175.969L181.882 173.773C181.64 173.552 181.252 173.729 181.148 173.994C179.532 177.613 178.357 181.394 177.621 185.289L178.396 184.953C176.937 183.93 175.586 185.536 175.061 186.83C173.682 190.228 172.912 194.018 171.869 197.528L172.49 197.248C171.705 196.864 171.178 196.39 170.687 195.689C170.465 195.369 169.998 195.509 169.862 195.816C168.219 199.423 166.629 203.055 165.083 206.701L165.908 206.574C165.35 205.811 164.45 206.196 163.911 206.807C163.159 207.67 162.697 208.898 162.142 209.903C161.517 211.029 160.882 212.163 160.257 213.289C157.747 217.802 155.229 222.304 152.719 226.817L153.395 226.709C151.01 224.752 148.744 230.444 147.887 231.672C145.103 235.675 141.464 239.018 137.279 241.488L137.913 241.744C134.897 236.583 133.083 230.813 132.736 224.852C132.669 223.812 132.911 222.412 132.296 221.495C131.438 220.209 129.481 220.824 129.172 218.919C128.918 217.416 129.075 215.786 129.044 214.272C129.017 212.638 128.999 211.015 128.962 209.39C128.958 209.178 128.728 209.013 128.538 208.982C127.534 208.822 126.661 208.971 125.76 209.439L126.427 209.819C125.871 204.073 125.677 198.304 125.87 192.542C125.893 192.093 125.447 191.885 125.081 192.111L121.885 194.058L122.661 194.368C121.796 189.48 121.803 184.544 122.67 179.651C122.732 179.271 122.318 179.021 121.99 179.149L119.688 180.038L120.368 180.539C120.381 176.525 120.877 172.557 121.861 168.662C121.947 168.313 121.625 167.825 121.214 168.036L119.172 169.148L119.852 169.649C119.978 163.179 121.204 156.826 123.501 150.778C123.714 150.195 122.824 149.845 122.592 150.426C120.269 156.544 119.014 162.987 118.889 169.539C118.88 169.861 119.206 170.229 119.569 170.041L121.61 168.929L120.963 168.302C119.942 172.275 119.42 176.314 119.407 180.411C119.402 180.779 119.721 181.055 120.087 180.913L122.389 180.024L121.709 179.523C120.833 184.488 120.834 189.517 121.708 194.48C121.774 194.875 122.186 194.977 122.484 194.79L125.679 192.842L124.89 192.411C124.697 198.257 124.881 204.117 125.446 209.938C125.478 210.227 125.857 210.454 126.112 210.318C126.867 209.916 127.552 209.8 128.403 209.934L127.979 209.527C128.004 211.261 128.038 212.987 128.055 214.711C128.078 216.215 127.933 217.82 128.217 219.298C128.387 220.156 128.771 220.992 129.621 221.374C130.471 221.757 131.223 221.704 131.647 222.839C131.88 223.465 131.696 224.604 131.741 225.263C132.136 231.203 133.967 236.993 136.967 242.134C137.081 242.34 137.354 242.537 137.601 242.39C140.632 240.59 143.383 238.417 145.77 235.806C146.989 234.471 148.1 233.041 149.1 231.534C149.521 230.901 151.534 226.47 152.78 227.496C152.966 227.646 153.338 227.615 153.456 227.389C155.397 223.907 157.329 220.434 159.271 216.953C160.208 215.264 161.155 213.567 162.093 211.877C162.566 211.038 163.03 210.188 163.513 209.341C163.653 209.08 164.864 206.842 165.112 207.174C165.336 207.476 165.799 207.372 165.937 207.047C167.483 203.401 169.073 199.769 170.716 196.162L169.891 196.289C170.494 197.15 171.17 197.687 172.112 198.145C172.33 198.253 172.67 198.098 172.733 197.866C173.422 195.531 174.12 193.188 174.808 190.853C175.034 190.078 176.17 184.607 177.774 185.73C178.081 185.949 178.471 185.754 178.549 185.394C179.276 181.572 180.43 177.891 182.012 174.332L181.278 174.552L183.737 176.748C184.022 177.001 184.465 176.748 184.512 176.413C185.165 170.896 184.964 165.347 183.925 159.887C183.801 159.274 182.847 159.404 182.961 160.025L182.979 160.027Z" fill="#B5C3CD"/>
<path d="M137.9 241.872C140.584 236.062 141.508 229.453 142.74 223.21C144.028 216.643 145.208 210.044 146.36 203.452C148.647 190.266 150.807 177.046 153.499 163.933C155.05 156.346 156.798 148.799 158.823 141.33C158.982 140.74 158.084 140.38 157.915 140.978C150.949 166.691 147.482 193.145 142.515 219.27C141.807 222.993 141.072 226.723 140.273 230.436C139.475 234.148 138.608 237.982 136.983 241.509C136.725 242.078 137.626 242.421 137.892 241.861L137.9 241.872Z" fill="#B5C3CD"/>
<path d="M121.551 173.278C124.421 170.133 124.971 165.775 126.252 161.859C127.632 157.651 129.532 153.64 131.883 149.883C136.592 142.379 143.064 136.052 150.71 131.572C151.242 131.265 150.866 130.356 150.331 130.682C142.852 135.079 136.437 141.145 131.69 148.415C129.327 152.032 127.359 155.915 125.884 159.984C124.41 164.053 123.912 169.265 120.778 172.702C120.357 173.17 121.15 173.73 121.561 173.27L121.551 173.278Z" fill="#B5C3CD"/>
<path d="M150.499 171.881C144.232 174.851 140.4 180.714 137.008 186.507C135.259 189.504 133.543 192.541 131.425 195.302C129.307 198.063 127.023 200.262 125.591 203.304C125.325 203.863 126.234 204.216 126.5 203.657C127.895 200.693 130.25 198.438 132.208 195.871C134.166 193.303 135.837 190.417 137.493 187.594C140.876 181.79 144.582 175.747 150.877 172.771C151.442 172.504 151.064 171.614 150.499 171.881Z" fill="#B5C3CD"/>
<path d="M145.778 197.86C138.457 203.951 132.835 211.867 129.504 220.79C129.29 221.373 130.189 221.734 130.412 221.142C133.689 212.379 139.193 204.606 146.383 198.619C146.86 198.223 146.256 197.463 145.778 197.86Z" fill="#B5C3CD"/>
<path d="M150.947 178.094C154.597 184.322 156.817 191.308 157.402 198.503C157.689 202.063 157.576 205.661 157.037 209.201C156.477 212.923 155.455 216.582 155.459 220.368C155.453 220.985 156.425 221.105 156.422 220.478C156.421 216.591 157.488 212.863 158.04 209.048C158.551 205.514 158.645 201.915 158.358 198.354C157.763 191.084 155.517 184.003 151.829 177.706C151.52 177.174 150.622 177.541 150.938 178.084L150.947 178.094Z" fill="#B5C3CD"/>
<path d="M155.646 152.776C158.185 156.464 159.603 160.697 160.719 164.987C161.763 169.02 162.694 173.078 163.597 177.141C165.394 185.258 166.839 193.473 166.963 201.813C166.976 202.432 167.94 202.293 167.927 201.674C167.792 192.946 166.214 184.357 164.303 175.868C162.501 167.87 161.142 159.058 156.406 152.172C156.049 151.661 155.29 152.266 155.646 152.776Z" fill="#B5C3CD"/>
<path d="M170.025 154.885C174.708 163.22 177.383 172.523 177.85 182.063C177.881 182.684 178.845 182.545 178.814 181.925C178.338 172.31 175.636 162.911 170.915 154.507C170.617 153.967 169.709 154.342 170.025 154.885Z" fill="#B5C3CD"/>
<path d="M86.9076 194.713C88.1179 193.948 89.179 192.955 90.0102 191.797C90.371 191.295 89.5982 190.718 89.2272 191.229C88.4306 192.326 87.4343 193.235 86.303 193.953C86.0844 194.094 86.0715 194.452 86.2247 194.644C86.4021 194.867 86.679 194.862 86.9157 194.723L86.9076 194.713Z" fill="#B5C3CD"/>
<path d="M97.1333 195.243L95.1023 192.359C94.9512 192.148 94.6138 192.119 94.4113 192.28C94.1988 192.449 94.184 192.743 94.333 192.971L96.3639 195.855C96.5151 196.066 96.8525 196.095 97.055 195.934C97.2675 195.765 97.2823 195.472 97.1333 195.243Z" fill="#B5C3CD"/>
<path d="M93.8422 187.72C95.1053 186.814 96.2615 185.795 97.329 184.664C97.5073 184.473 97.4171 184.131 97.2214 183.989C96.9833 183.814 96.7244 183.904 96.5461 184.096C95.5333 185.15 94.4217 186.101 93.2376 186.961C92.7356 187.327 93.3402 188.087 93.8422 187.72Z" fill="#B5C3CD"/>
<path d="M88.0783 185.673L85.5146 182.452C85.1276 181.965 84.3684 182.57 84.7554 183.056L87.3191 186.277C87.7061 186.763 88.4653 186.159 88.0783 185.673Z" fill="#B5C3CD"/>
<path d="M123.107 57.4592L126.285 54.9295C126.771 54.5428 126.166 53.7831 125.68 54.1698L122.502 56.6995C122.016 57.0862 122.621 57.8459 123.107 57.4592Z" fill="#B5C3CD"/>
<path d="M134.524 58.9449L132.113 55.9162C131.726 55.43 130.967 56.0342 131.354 56.5204L133.764 59.5492C134.151 60.0354 134.911 59.4311 134.524 58.9449Z" fill="#B5C3CD"/>
<path d="M130.683 50.6506L134.347 47.7342C134.833 47.3475 134.228 46.5878 133.742 46.9745L130.078 49.8909C129.592 50.2776 130.197 51.0374 130.683 50.6506Z" fill="#B5C3CD"/>
<path d="M126.014 48.5433C124.887 47.2728 123.843 45.9196 122.908 44.4959C122.767 44.2772 122.41 44.2641 122.217 44.4171C121.995 44.5944 121.99 44.8794 122.139 45.1082C123.074 46.5318 124.11 47.8749 125.245 49.1556C125.662 49.6177 126.421 49.0134 126.004 48.5514L126.014 48.5433Z" fill="#B5C3CD"/>
</g>
<defs>
<clipPath id="clip0_2741_41160">
<rect width="224.021" height="138.597" fill="white" transform="translate(139.506 261.59) rotate(-128.516)"/>
</clipPath>
</defs>
</svg>
