<svg width="123" height="75" viewBox="0 0 123 75" fill="none" xmlns="http://www.w3.org/2000/svg">
<g clip-path="url(#clip0_3033_36278)">
<path d="M66.6987 65.2199C65.5495 64.4568 64.3862 63.6727 63.4485 62.6576C63.0043 62.1745 62.6095 61.6425 62.3204 61.0544C62.0455 60.4943 61.7212 59.8082 62.3275 59.2482C62.5038 59.0871 62.7576 59.0101 62.9409 58.8421C63.8433 58.009 63.8363 55.6917 65.4226 55.8388C65.9796 55.8878 66.3251 56.1258 66.8891 55.9298C67.2839 55.7898 67.6153 55.5027 67.9255 55.2227C68.4543 54.7466 68.9055 54.2566 69.6035 54.0255C70.3579 53.7805 71.1757 53.8085 71.9583 53.7245C73.037 53.6125 74.0805 53.3325 75.0746 52.8844C77.3307 51.8693 79.1568 50.0421 80.165 47.8018C80.2778 47.5568 79.9605 47.2347 79.749 47.4868C79.6785 47.5708 79.3894 46.5136 79.3471 46.3666C79.2625 46.0656 79.1427 45.7786 78.9805 45.5125C78.6985 45.0435 78.2966 44.6444 77.7961 44.4204C76.4001 43.7833 74.9547 44.8544 73.9183 45.6945C72.7832 46.6186 72.1698 47.7808 71.7327 49.146C71.2603 50.6301 70.9501 52.2333 69.7093 53.2975C69.4484 53.5215 69.8291 53.8925 70.0829 53.6685C72.3038 51.7573 71.7821 48.3339 73.9465 46.3596C74.6163 45.7505 75.6034 44.9384 76.5199 44.7774C77.6762 44.5744 78.5434 45.4635 78.8325 46.4996C78.9523 46.9337 78.8607 47.5848 79.2343 47.9138C79.5163 48.1588 79.89 48.1308 80.1227 47.8578L79.7067 47.5428C78.7479 49.664 77.0558 51.3932 74.9195 52.3803C73.8055 52.8984 72.6352 53.1574 71.4155 53.2484C70.4354 53.3185 69.4202 53.3745 68.5882 53.9485C68.2428 54.1866 67.9467 54.4876 67.6435 54.7746C67.0442 55.3277 66.6282 55.5517 65.7963 55.3977C64.9643 55.2437 64.358 55.3837 63.8222 56.1188C63.5543 56.4828 63.4062 56.9029 63.237 57.3159C62.9409 58.044 62.6166 58.4011 61.975 58.8491C61.2558 59.3462 61.3545 60.0323 61.6366 60.7884C62.4685 62.9936 64.5413 64.4148 66.4379 65.6679C66.7199 65.857 66.9878 65.4019 66.7058 65.2129L66.6987 65.2199Z" fill="#B5C3CD"/>
<path d="M68.1515 69.3221C67.5452 67.1799 67.7567 64.9466 68.7649 62.9584H68.3067C68.4759 63.2874 68.6803 63.5675 68.9341 63.8405C69.0399 63.9595 69.2796 63.9385 69.3501 63.7845C71.9235 58.2888 75.5051 53.3182 79.9257 49.1387L79.5097 48.8237C77.0209 52.1421 74.927 55.7475 73.2631 59.542C72.4734 61.3412 71.7755 63.1824 71.1691 65.0586C70.8589 66.0318 70.5698 67.0119 70.309 68.006C70.1891 68.454 70.0975 68.9231 69.9 69.3501C69.7097 69.7422 69.2726 70.2043 68.7579 70.0852C68.5041 70.0292 68.2361 69.4692 68.1304 69.2661C67.9682 68.9651 67.517 69.2311 67.6721 69.5322C67.9753 70.0992 68.4406 70.7923 69.188 70.6733C69.8718 70.5683 70.2737 69.8892 70.4993 69.3011C70.9012 68.216 71.1198 67.0469 71.4582 65.9407C71.8319 64.7156 72.2478 63.5115 72.7061 62.3143C74.504 57.6027 76.9434 53.1432 79.9751 49.1037C80.1584 48.8587 79.7706 48.5857 79.5591 48.7887C75.1032 52.9962 71.4864 58.0018 68.8989 63.5395L69.3149 63.4834C69.0751 63.2244 68.9271 63.0074 68.772 62.7064C68.6803 62.5383 68.4054 62.5313 68.3137 62.7064C67.242 64.8206 67.0023 67.1939 67.651 69.4762C67.7426 69.7982 68.2503 69.6652 68.1586 69.3361L68.1515 69.3221Z" fill="#B5C3CD"/>
<path d="M62.7506 58.331C61.1784 56.8748 59.9798 55.1176 59.2325 53.1153L58.9787 53.4444C59.7683 53.5284 59.9093 52.6113 59.7965 52.0162C59.6626 51.3161 59.2536 50.616 58.9857 49.958C58.6473 49.1319 58.3159 48.2988 57.9916 47.4587C57.35 45.7855 56.7367 44.1053 56.1515 42.411C55.8201 41.4519 55.5381 40.6678 55.9611 39.6737C56.2149 39.0786 56.1303 38.5326 56.0316 37.9095C55.4817 34.4511 54.3466 31.0767 54.128 27.5693C54.0434 26.1551 53.8319 23.8098 55.0798 22.8017C56.5322 21.6256 58.6121 23.1867 59.8177 24.0548C62.666 26.1201 64.9574 28.8434 66.5508 31.9658C66.6566 32.1688 66.9809 32.1128 67.0373 31.9028C67.1853 31.2937 67.4462 30.8177 67.8763 30.3696L67.4603 30.3136C68.6659 32.3228 69.512 34.4931 69.9843 36.7894C70.0196 36.9504 70.2382 37.0344 70.3721 36.9434L71.4297 36.2433L71.0701 36.1523C71.3451 36.7894 71.6271 37.4264 71.9021 38.0705C72.1065 38.5396 72.2546 39.0997 72.6141 39.4847C72.9737 39.8697 73.5377 40.0658 73.855 39.5477L73.3685 39.4847C73.8621 41.3259 74.1159 43.1881 74.13 45.0924C74.13 45.4284 74.6588 45.4284 74.6588 45.0924C74.6447 43.1461 74.3838 41.2279 73.8832 39.3447C73.8268 39.1277 73.5166 39.0926 73.3967 39.2817C73.1852 39.6387 72.3533 37.7975 72.2898 37.6575C72.036 37.0694 71.7751 36.4813 71.5213 35.8863C71.4649 35.7602 71.2675 35.7182 71.1618 35.7953L70.1042 36.4953L70.492 36.6494C70.0125 34.3111 69.1453 32.0988 67.9115 30.0476C67.8269 29.9075 67.6154 29.8725 67.4956 29.9916C67.002 30.5026 66.6848 31.0697 66.5155 31.7558L67.002 31.6928C65.6131 28.9764 63.7024 26.5401 61.3476 24.5799C59.7683 23.2638 56.2925 20.3864 54.3959 22.7247C53.6133 23.6908 53.571 25.098 53.5569 26.2811C53.5358 27.9753 53.7825 29.6695 54.1069 31.3287C54.4523 33.0929 54.8965 34.8431 55.249 36.6074C55.4323 37.5315 55.7708 38.5956 55.4464 39.4987C55.1785 40.2408 55.0446 40.6538 55.2631 41.4519C55.8272 43.4822 56.6521 45.4774 57.4064 47.4447C57.766 48.3828 58.1397 49.3209 58.5204 50.252C58.6191 50.483 59.8247 53.0103 58.9575 52.9193C58.7954 52.9053 58.6473 53.1013 58.7037 53.2483C59.4863 55.3346 60.7201 57.1758 62.3558 58.695C62.6026 58.926 62.9763 58.555 62.7295 58.324L62.7506 58.331Z" fill="#B5C3CD"/>
<path d="M55.4752 22.7525C59.8112 33.1768 63.0967 44.0141 65.2893 55.0824C65.3528 55.4115 65.8675 55.2715 65.797 54.9424C63.6113 43.8741 60.3188 33.0368 55.9828 22.6125C55.8559 22.3045 55.3412 22.4375 55.4752 22.7525Z" fill="#B5C3CD"/>
<path d="M54.2905 29.6485C55.616 31.5457 57.435 33.0789 59.5501 34.038C59.8603 34.178 60.1282 33.723 59.818 33.583C57.7875 32.6589 56.0178 31.2097 54.7488 29.3825C54.5584 29.1094 54.1001 29.3685 54.2905 29.6485Z" fill="#B5C3CD"/>
<path d="M55.5034 40.556C57.5127 43.1253 60.3047 45.0296 63.4351 45.9887C63.7594 46.0867 63.9004 45.5826 63.5761 45.4846C60.5232 44.5535 57.83 42.6843 55.877 40.185C55.6655 39.919 55.2989 40.29 55.5034 40.556Z" fill="#B5C3CD"/>
<path d="M57.5051 46.6396C59.4017 48.9709 61.8693 50.7911 64.6472 51.9462C64.9574 52.0792 65.0984 51.5682 64.7882 51.4422C62.0949 50.315 59.7119 48.5228 57.8788 46.2685C57.6673 46.0025 57.2936 46.3805 57.5051 46.6396Z" fill="#B5C3CD"/>
<path d="M62.9763 26.8131C62.927 29.2704 61.8906 31.6296 60.1209 33.3449C59.8742 33.5829 60.2478 33.9539 60.4946 33.7159C62.363 31.9097 63.4487 29.4034 63.5051 26.8131C63.5051 26.477 62.9834 26.477 62.9763 26.8131Z" fill="#B5C3CD"/>
<path d="M67.2844 30.8878C69.2726 35.8444 67.7144 41.5361 63.4137 44.7495C63.1458 44.9525 63.4137 45.4075 63.6816 45.2045C68.1586 41.8581 69.8719 35.9424 67.799 30.7478C67.6721 30.4397 67.1645 30.5728 67.2914 30.8878H67.2844Z" fill="#B5C3CD"/>
<path d="M62.1375 59.5704C60.0858 55.1179 57.5759 50.1053 52.4009 48.7331C52.2035 48.6771 52.0272 48.8591 52.0766 49.0551C52.3093 50.0352 51.153 50.2313 50.5185 50.0983C50.1377 50.0212 49.7852 49.8532 49.4256 49.7132C48.6149 49.3842 47.8041 49.0691 46.9792 48.7961C45.3294 48.236 43.6373 47.802 41.924 47.4729C41.6561 47.4239 41.501 47.704 41.6702 47.914C41.924 48.229 42.1849 48.5441 42.4387 48.8591L42.6291 48.4111C39.3506 48.7541 36.0722 49.0901 32.7938 49.4332C32.688 49.4472 32.5541 49.5032 32.54 49.6292C32.4412 50.3013 32.6175 50.8613 33.1463 51.3094L33.2027 50.8963C31.7151 51.6244 30.171 52.1705 28.5635 52.5555C28.3873 52.5976 28.3379 52.7936 28.4084 52.9406C28.5776 53.2976 28.7821 53.5007 29.1487 53.6617L29.2122 53.1786C25.3838 54.7748 21.6541 56.574 18.0302 58.5903C17.7976 58.7163 17.9033 59.0803 18.1642 59.0803H18.9962C18.9327 58.9263 18.8692 58.7793 18.8058 58.6323C17.6213 59.9064 16.4439 61.1806 15.2594 62.4547C15.1396 62.5878 15.1678 62.8608 15.3793 62.8958C16.1337 63.0148 16.8951 63.1338 17.6495 63.2528L17.5861 62.7698C14.3006 65.003 12.0304 68.4545 11.3112 72.3469C11.283 72.4869 11.3465 72.634 11.4945 72.669C15.6825 73.7051 19.9268 74.4822 24.2064 75.0142C24.4179 75.0422 24.5237 74.7762 24.432 74.6222C24.1852 74.1811 23.8609 73.9291 23.3674 73.8101L23.2969 74.3282C27.1817 74.5872 31.0664 74.2161 34.8313 73.236C35.1627 73.152 35.0217 72.669 34.6903 72.732C34.0981 72.837 33.7456 73.166 33.5129 73.6981C33.4495 73.8521 33.6116 74.0411 33.7667 74.0271C36.7913 73.8521 39.7737 73.341 42.6714 72.4869L42.34 72.2349C42.3682 72.83 42.8053 73.082 43.3553 73.173C44.3635 73.348 45.5409 73.054 46.5491 72.956C49.1507 72.718 51.7523 72.4799 54.3609 72.2349C56.8215 72.0109 59.2821 71.8289 61.7356 71.5348C63.9424 71.2758 66.1139 70.8417 68.1092 69.8476C68.4124 69.6936 68.1444 69.2456 67.8413 69.3926C64.1116 71.2478 59.6417 71.2198 55.5736 71.5978C53.4303 71.7939 51.294 71.9899 49.1507 72.1859C48.4315 72.2489 42.904 73.145 42.8688 72.2209C42.8617 72.0529 42.7066 71.9199 42.5374 71.9689C39.675 72.809 36.749 73.32 33.7738 73.4951L34.0276 73.8241C34.2038 73.4461 34.4718 73.243 34.8313 73.222L34.6903 72.718C30.9677 73.6841 27.1394 74.0411 23.2969 73.7891C23.0008 73.7681 22.9373 74.2372 23.2264 74.3072C23.5719 74.3562 23.8257 74.5452 23.9737 74.8742L24.1993 74.4822C19.9621 73.9641 15.7671 73.187 11.6285 72.1579L11.8118 72.4799C12.5027 68.7205 14.6602 65.3741 17.8399 63.2178C18.0091 63.1058 18.0232 62.7768 17.7764 62.7348C17.022 62.6158 16.2606 62.4967 15.5062 62.3777L15.6261 62.8188C16.8105 61.5446 17.9879 60.2705 19.1724 58.9963C19.3275 58.8353 19.2218 58.5483 18.9821 58.5483H18.1501C18.1924 58.7163 18.2418 58.8773 18.2841 59.0383C21.8657 57.0501 25.553 55.2579 29.3391 53.6827C29.5153 53.6057 29.6352 53.3046 29.4025 53.1996C29.1346 53.1226 28.9513 52.9476 28.8526 52.6676L28.6975 53.0526C30.3473 52.6536 31.9407 52.0865 33.4636 51.3374C33.6116 51.2674 33.6398 51.0294 33.52 50.9244C33.1674 50.6233 32.9771 50.2313 33.0476 49.7552L32.7938 49.9512C36.0722 49.6082 39.3506 49.2722 42.6291 48.9291C42.8688 48.9011 42.9675 48.6631 42.8194 48.4811C42.5656 48.166 42.3048 47.851 42.0509 47.5359L41.7971 47.977C44.3776 48.4741 46.8664 49.2371 49.2987 50.2243C50.0954 50.5463 51.0402 50.9314 51.8651 50.4833C52.4573 50.1613 52.7534 49.5662 52.5983 48.9221L52.274 49.2441C57.3009 50.5813 59.7051 55.5239 61.6933 59.8434C61.8343 60.1515 62.2926 59.8854 62.1516 59.5774L62.1375 59.5704Z" fill="#B5C3CD"/>
<path d="M12.2485 72.4448C19.0944 69.4484 26.3563 67.5162 33.724 66.291C41.0917 65.0659 48.5651 64.3938 55.9962 64.2608C59.7963 64.1908 63.7587 64.5828 67.3121 66.018C67.6293 66.144 67.7633 65.6399 67.4531 65.5139C60.8469 62.8536 53.2324 63.7287 46.316 64.2748C38.8003 64.8628 31.2916 65.899 24.0015 67.8242C19.8911 68.9093 15.8724 70.2885 11.9806 71.9967C11.6704 72.1297 11.9383 72.5848 12.2485 72.4518V72.4448Z" fill="#B5C3CD"/>
<path d="M15.0342 66.2698C19.631 65.5277 24.5734 64.7786 29.001 66.6548C29.3112 66.7878 29.5791 66.3328 29.2689 66.1998C24.6862 64.2605 19.6522 64.9886 14.8932 65.7587C14.5548 65.8147 14.7028 66.3188 15.0342 66.2628V66.2698Z" fill="#B5C3CD"/>
<path d="M28.0845 54.6344C35.5156 56.1676 42.4955 59.451 48.3825 64.2046C48.6434 64.4146 49.0241 64.0435 48.7562 63.8335C42.7986 59.0169 35.7482 55.6775 28.2255 54.1234C27.8941 54.0533 27.7531 54.5574 28.0845 54.6274V54.6344Z" fill="#B5C3CD"/>
<path d="M42.5727 48.523C49.7641 52.1635 56.039 57.4421 60.8262 63.8969C61.0236 64.1629 61.4819 63.9039 61.2845 63.6309C56.4479 57.0991 50.1166 51.7504 42.8406 48.068C42.5375 47.914 42.2696 48.369 42.5727 48.523Z" fill="#B5C3CD"/>
<path d="M31.489 66.144C29.3739 68.8183 26.9345 71.2266 24.2271 73.3058C23.9592 73.5089 24.3329 73.8799 24.6008 73.6769C27.3082 71.5976 29.7547 69.1893 31.8627 66.515C32.0672 66.249 31.7006 65.8779 31.489 66.144Z" fill="#B5C3CD"/>
<path d="M43.8631 64.7579C43.7644 65.822 42.9113 66.7461 42.2415 67.5302C41.5717 68.3143 40.9161 68.9584 40.1758 69.5955C38.6529 70.8976 36.9255 71.9548 35.0713 72.7248C34.7611 72.8509 34.895 73.3619 35.2123 73.2289C37.2005 72.4098 39.0407 71.2827 40.6622 69.8685C41.473 69.1684 42.2204 68.3913 42.9043 67.5652C43.5882 66.7391 44.3003 65.857 44.399 64.7579C44.4272 64.4218 43.8984 64.4218 43.8702 64.7579H43.8631Z" fill="#B5C3CD"/>
<path d="M56.7788 64.2326C55.6084 67.138 53.6836 69.7073 51.2301 71.6745C50.9622 71.8846 51.3429 72.2556 51.6038 72.0456C54.1278 70.0153 56.0808 67.362 57.2864 64.3727C57.4133 64.0576 56.8986 63.9246 56.7788 64.2326Z" fill="#B5C3CD"/>
<path d="M67.609 65.1426C65.2753 62.6083 65.1696 59.0099 65.515 55.7755C65.5503 55.4394 65.0215 55.4394 64.9863 55.7755C64.6196 59.1639 64.7959 62.8673 67.2353 65.5136C67.468 65.7657 67.8417 65.3946 67.609 65.1426Z" fill="#B5C3CD"/>
<path d="M71.7683 59.0799C71.719 57.3857 70.7813 55.4604 71.7049 53.8573C71.8741 53.5632 71.4158 53.2972 71.2466 53.5912C70.2525 55.3274 71.1902 57.2527 71.2466 59.0799C71.2537 59.4159 71.7824 59.4159 71.7754 59.0799H71.7683Z" fill="#B5C3CD"/>
<path d="M74.4195 52.6182C75.8648 50.406 76.4288 47.7247 76.027 45.1203C75.9776 44.7843 75.4629 44.9313 75.5193 45.2604C75.9001 47.7247 75.329 50.266 73.9683 52.3592C73.7849 52.6462 74.2432 52.9053 74.4265 52.6252L74.4195 52.6182Z" fill="#B5C3CD"/>
<path d="M71.1621 35.9281C71.8319 30.5235 74.793 25.5389 79.2277 22.3325L78.8329 22.1084L78.9034 23.5016C78.9105 23.7046 79.1995 23.8797 79.3546 23.6906C81.8646 20.6243 84.9597 18.118 88.4849 16.2978L88.0901 16.0737L87.9491 17.5929C87.9279 17.8169 88.2522 17.943 88.4003 17.7819C91.714 13.9665 95.9936 11.0961 100.802 9.47893L100.478 9.1569C100.322 9.68196 100.104 10.095 99.7444 10.5081C99.5893 10.6831 99.7303 11.0471 99.9982 10.9491C101.246 10.4731 102.494 10.004 103.742 9.52794C104.341 9.30391 104.933 9.07289 105.533 8.84886C105.857 8.72284 106.181 8.59683 106.513 8.47781L106.837 8.3518C107.063 8.21178 107.274 8.23279 107.486 8.41481C107.175 8.53382 107.302 9.03788 107.627 8.91887C109.939 8.06476 112.294 7.35768 114.698 6.81161C115.925 6.53158 117.159 6.29355 118.407 6.09753C119.034 5.99952 119.662 5.90851 120.289 5.8315C120.698 5.78249 121.742 5.48145 122.129 5.64247C123.18 6.09053 120.423 11.2852 120.021 12.0132C118.9 14.0505 117.533 15.9337 115.946 17.6419C115.798 17.7959 115.876 18.006 116.066 18.083C116.87 18.412 117.659 18.44 118.491 18.188L118.195 17.8029C116.115 21.9194 113.479 25.7209 110.341 29.1093C110.193 29.2703 110.285 29.5713 110.531 29.5573C111.286 29.5153 112.04 29.4803 112.802 29.4383L112.576 29.0463C110.172 33.6668 106.837 37.7273 102.762 40.9967C102.565 41.1507 102.748 41.4308 102.952 41.4448C103.707 41.5078 104.454 41.5708 105.208 41.6408L104.983 41.2487C103.002 44.3151 100.612 47.1084 97.8619 49.5237C97.1992 50.1048 96.5153 50.6649 95.8102 51.2039C95.6199 51.351 95.3449 51.47 95.2392 51.701C95.0841 52.03 95.0841 52.4921 94.9431 52.8421C94.3015 54.4663 92.8279 55.6285 91.1076 55.9295C91.016 55.9435 90.9525 56.0345 90.9243 56.1115C89.7399 59.794 86.4685 61.3132 82.9292 62.1183C79.1995 62.9654 75.4135 63.5324 71.6344 64.1135C71.296 64.1625 71.4441 64.6736 71.7755 64.6176C75.1808 64.0995 78.5861 63.5744 81.9633 62.8673C84.7059 62.2933 87.6106 61.6002 89.5847 59.4719C89.9796 59.0519 90.3321 58.5828 90.6282 58.0858C90.8891 57.6517 91.1076 56.6786 91.5025 56.3916C91.6858 56.2516 92.0876 56.2375 92.3203 56.1465C92.5318 56.0625 92.7363 55.9715 92.9407 55.8595C93.4625 55.5795 93.9419 55.2014 94.3438 54.7674C94.6892 54.3963 94.9994 53.9693 95.2321 53.5212C95.493 53.0172 95.5353 52.2261 95.8808 51.813C96.2544 51.372 96.889 51.0359 97.3402 50.6649C97.9536 50.1608 98.5529 49.6358 99.131 49.0897C101.549 46.8354 103.664 44.2801 105.448 41.5148C105.568 41.3328 105.406 41.1367 105.223 41.1227C104.468 41.0597 103.721 40.9967 102.966 40.9267L103.157 41.3748C107.26 38.0774 110.63 33.9749 113.048 29.3193C113.133 29.1513 113.034 28.9133 112.823 28.9273C112.068 28.9693 111.314 29.0043 110.553 29.0463L110.743 29.4943C113.916 26.0709 116.588 22.2345 118.682 18.083C118.78 17.8869 118.618 17.6279 118.386 17.6979C117.645 17.9219 116.954 17.8799 116.242 17.5929L116.362 18.034C118.111 16.1507 119.605 14.0575 120.797 11.7822C121.375 10.6831 121.876 9.54194 122.299 8.3728C122.517 7.77773 122.722 7.17566 122.891 6.56658C122.982 6.23054 123.145 5.81049 122.933 5.48145C122.482 4.76737 120.952 5.24343 120.324 5.32044C118.886 5.49546 117.462 5.72648 116.045 6.00652C113.147 6.58759 110.306 7.40669 107.535 8.42881L107.676 8.93287C108.029 8.79285 108.212 8.47081 108.029 8.09277C107.754 7.5187 107.034 7.74973 106.583 7.91775C104.348 8.72984 102.134 9.60495 99.9065 10.4451L100.16 10.8861C100.576 10.41 100.858 9.91299 101.035 9.30391C101.091 9.12189 100.901 8.91887 100.71 8.98187C95.8173 10.6271 91.4531 13.5394 88.076 17.4179L88.5272 17.6069L88.6682 16.0877C88.6894 15.8777 88.4355 15.7797 88.2734 15.8637C84.7129 17.7119 81.5755 20.2462 79.0374 23.3406L79.4886 23.5296L79.4181 22.1365C79.411 21.9544 79.1925 21.7864 79.0233 21.9124C74.4194 25.2378 71.3877 30.3484 70.6967 35.9561C70.6544 36.2922 71.1832 36.2852 71.2255 35.9561L71.1621 35.9281Z" fill="#B5C3CD"/>
<path d="M77.3454 53.6823C87.0679 39.1975 98.8773 26.1059 112.322 14.9326C114.163 13.4064 116.08 12.0062 117.977 10.5501C119.648 9.26892 121.234 7.88975 122.454 6.16755C122.651 5.88751 122.193 5.62848 121.996 5.90152C119.634 9.22691 115.89 11.3202 112.781 13.8755C109.397 16.6478 106.118 19.5462 102.945 22.5565C96.6776 28.5072 90.8328 34.892 85.4675 41.6618C82.4499 45.4633 79.5945 49.3907 76.8872 53.4162C76.6968 53.6963 77.1551 53.9623 77.3454 53.6823Z" fill="#B5C3CD"/>
<path d="M111.081 16.4661C113.873 16.3051 116.573 15.4159 118.893 13.8688C119.175 13.6797 118.907 13.2247 118.625 13.4137C116.383 14.9119 113.774 15.787 111.074 15.941C110.736 15.962 110.736 16.4871 111.074 16.4661H111.081Z" fill="#B5C3CD"/>
<path d="M101.409 24.6007C100.189 17.9009 104.525 12.0062 109.672 8.20475C109.94 8.00873 109.672 7.54667 109.404 7.74969C104.053 11.7052 99.632 17.7749 100.901 24.7337C100.965 25.0628 101.472 24.9228 101.409 24.5937V24.6007Z" fill="#B5C3CD"/>
<path d="M87.2444 39.6036C87.0752 27.6252 95.3876 18.104 102.946 9.68902C103.171 9.43699 102.798 9.06594 102.572 9.31797C94.9152 17.838 86.5394 27.4781 86.7156 39.6036C86.7156 39.9396 87.2515 39.9396 87.2444 39.6036Z" fill="#B5C3CD"/>
<path d="M80.3418 48.1169C79.5169 35.7744 83.9093 23.3129 92.3274 14.1978C92.5601 13.9458 92.1864 13.5747 91.9538 13.8268C85.3616 20.9746 81.1737 30.1527 80.0245 39.7719C79.6931 42.5442 79.6297 45.3375 79.813 48.1239C79.8341 48.4599 80.3629 48.4599 80.3418 48.1239V48.1169Z" fill="#B5C3CD"/>
<path d="M74.4899 59.4092C85.7071 55.8738 95.9584 49.6081 104.186 41.2561C104.426 41.011 104.052 40.64 103.813 40.885C95.6482 49.174 85.4815 55.3908 74.3489 58.9052C74.0246 59.0102 74.1656 59.5143 74.4899 59.4092Z" fill="#B5C3CD"/>
<path d="M82.2878 47.3467C85.0727 46.6746 87.773 45.6315 90.4521 44.6304C92.8633 43.7343 95.2605 42.7752 97.5942 41.697C102.283 39.5268 106.739 36.8174 110.412 33.163C110.651 32.925 110.278 32.5539 110.038 32.792C106.4 36.4114 101.98 39.0927 97.3333 41.242C94.9503 42.3411 92.5038 43.3142 90.0432 44.2243C87.4486 45.1834 84.847 46.1916 82.1538 46.8356C81.8224 46.9127 81.9634 47.4237 82.2948 47.3397L82.2878 47.3467Z" fill="#B5C3CD"/>
<path d="M87.6953 39.8279C98.8913 38.0217 107.563 30.2298 115.594 22.8649C115.848 22.6339 115.467 22.2628 115.22 22.4939C107.253 29.8027 98.6657 37.5317 87.5543 39.3239C87.2159 39.3799 87.3639 39.8839 87.6953 39.8279Z" fill="#B5C3CD"/>
<path d="M97.9462 28.8996C105.821 28.8716 111.8 23.2079 117.018 18.0273C117.257 17.7892 116.884 17.4182 116.644 17.6562C111.525 22.7318 105.673 28.3465 97.9462 28.3745C97.6078 28.3745 97.6078 28.8996 97.9462 28.8996Z" fill="#B5C3CD"/>
<path d="M74.2008 40.2129C73.9188 34.1572 75.8435 28.1365 79.6296 23.3759C79.8411 23.1169 79.4674 22.7388 79.2559 23.0049C75.3852 27.8704 73.3829 34.0102 73.672 40.2129C73.6861 40.549 74.2149 40.549 74.2008 40.2129Z" fill="#B5C3CD"/>
<path d="M29.5151 52.6323C26.8712 51.2602 24.4811 49.5029 22.3801 47.3957L22.2602 47.8368L24.0299 47.5357C24.2062 47.5077 24.2626 47.2837 24.185 47.1507C23.1909 45.2464 21.9782 43.4752 20.5682 41.851L20.4483 42.2921C21.3789 42.0191 21.1533 40.9059 20.7797 40.2478C19.7997 38.5186 18.446 36.9154 17.3038 35.2912L17.2122 35.6483C17.6422 35.4453 18.023 35.3823 18.4883 35.4103C18.6998 35.4243 18.7985 35.1792 18.7139 35.0182C17.7339 33.107 16.7257 31.2098 15.6963 29.3265L15.4707 29.7186C15.9854 29.7396 16.1264 29.2285 16.0489 28.7945C15.936 28.1854 15.5694 27.5763 15.3297 27.0022C15.0618 26.3582 14.7939 25.7071 14.526 25.063C13.4543 22.4797 12.3897 19.8964 11.318 17.3131L11.1347 17.6351C12.7775 17.2851 11.1206 14.4077 10.888 13.6306C10.1265 11.1033 9.93616 8.43602 10.3028 5.83171L9.97846 6.01373C13.2005 6.47578 16.2745 7.65192 18.9325 9.51415C19.3978 9.83619 19.9125 10.4103 20.5118 10.4593C21.3507 10.5293 21.7526 9.49315 22.6692 10.0042C23.3954 10.4033 24.0369 11.0193 24.6926 11.5164C25.3977 12.0555 26.0957 12.5945 26.8007 13.1266C26.8924 13.1966 27.0404 13.1546 27.118 13.0846C27.5269 12.7135 27.7596 12.2935 27.8653 11.7544L27.4775 11.9084C30.1144 13.6096 32.6384 15.4719 35.0285 17.4951C35.2118 17.6561 35.4515 17.5371 35.4797 17.3061L35.7335 15.2968L35.3387 15.5209C37.7147 16.802 39.8157 18.4682 41.6065 20.4845C41.7475 20.6385 41.9943 20.5475 42.0507 20.3655L42.4526 19.0913L42.0084 19.2103C43.7146 20.5685 45.2375 22.1157 46.563 23.8449C46.6828 23.9989 47.0001 24.0269 47.0494 23.7819L47.268 22.5427L46.8238 22.6617C49.5382 24.895 51.8296 27.5553 53.6274 30.5657C53.8037 30.8527 54.2549 30.5937 54.0857 30.2996C52.2667 27.2543 49.9471 24.552 47.1975 22.2907C47.0635 22.1787 46.7956 22.1927 46.7533 22.4097L46.5348 23.6488L47.0212 23.5858C45.6746 21.8146 44.1306 20.2324 42.3891 18.8463C42.234 18.7203 42.0084 18.7623 41.9449 18.9653L41.5431 20.2394L41.9872 20.1204C40.1682 18.0762 38.0249 16.382 35.6137 15.0798C35.4233 14.9748 35.24 15.1148 35.2189 15.3038L34.9651 17.3131L35.4163 17.1241C32.9909 15.0728 30.4317 13.1756 27.7596 11.4534C27.6256 11.3694 27.4 11.4534 27.3718 11.6074C27.2872 12.0625 27.1039 12.3915 26.7584 12.7065L27.0757 12.6645C26.3283 12.0905 25.581 11.5234 24.8407 10.9493C24.1921 10.4523 23.5575 9.85019 22.8313 9.47214C22.4083 9.25512 21.9218 9.1361 21.4706 9.36713C21.0194 9.59816 20.7867 9.9342 20.1592 9.73117C19.8138 9.61916 19.3907 9.15711 19.0946 8.95408C16.4296 7.11986 13.3415 5.94372 10.1336 5.48166C10.0067 5.46066 9.8304 5.50967 9.80925 5.66369C9.54839 7.55391 9.54134 9.45114 9.8445 11.3414C9.99961 12.3075 10.2323 13.2596 10.5354 14.1907C10.6624 14.5828 11.868 16.928 11.0078 17.1101C10.8809 17.1381 10.7681 17.3061 10.8245 17.4321C11.6494 19.4273 12.4743 21.4156 13.2992 23.4108C13.7011 24.3769 14.1029 25.35 14.5048 26.3162C14.7022 26.7992 14.9067 27.2823 15.1041 27.7723C15.1676 27.9194 15.7104 29.1865 15.4848 29.1795C15.2804 29.1725 15.1676 29.4035 15.2592 29.5716C16.2886 31.4548 17.2968 33.352 18.2768 35.2632L18.5024 34.8712C17.9313 34.8362 17.473 34.9412 16.9584 35.1862C16.8385 35.2422 16.7891 35.4383 16.8667 35.5433C17.6281 36.6214 18.3896 37.7065 19.151 38.7847C19.4048 39.1417 21.3507 41.466 20.3284 41.767C20.131 41.823 20.0817 42.0541 20.2086 42.2081C21.5905 43.8043 22.7679 45.5335 23.7479 47.4027L23.903 47.0177L22.1333 47.3187C21.9289 47.3537 21.8866 47.6267 22.0135 47.7597C24.1427 49.895 26.5751 51.6802 29.2542 53.0804C29.5574 53.2344 29.8253 52.7863 29.5222 52.6253L29.5151 52.6323Z" fill="#B5C3CD"/>
<path d="M9.92959 5.96477C11.4948 9.05914 13.9977 11.6775 16.2397 14.3028C18.6016 17.0611 21.0128 19.7844 23.4311 22.4938C28.2747 27.9054 33.1747 33.275 37.8491 38.8337C40.5565 42.0471 43.1792 45.3305 45.6751 48.7049C45.8725 48.9709 46.3308 48.7119 46.1334 48.4389C37.5389 36.8245 27.4428 26.4422 17.9952 15.5349C16.6486 13.9807 15.309 12.4125 13.9977 10.8234C12.6863 9.23416 11.3467 7.57496 10.3949 5.69874C10.2398 5.3977 9.78858 5.66373 9.93664 5.96477H9.92959Z" fill="#B5C3CD"/>
<path d="M44.7016 22.1577C45.0683 24.4329 46.7392 26.1341 47.973 27.9964C49.2985 29.9986 50.3631 32.1549 51.1668 34.4161C52.7673 38.9387 53.2679 43.8113 52.584 48.5578C52.5346 48.8869 53.0493 49.0339 53.0916 48.6978C53.7543 44.0493 53.3454 39.2887 51.8578 34.8292C51.1175 32.6099 50.1304 30.4677 48.8966 28.4724C47.6628 26.4772 45.6111 24.5099 45.2093 22.0246C45.1529 21.6886 44.6452 21.8356 44.7016 22.1647V22.1577Z" fill="#B5C3CD"/>
<path d="M35.4805 34.8851C36.3406 31.2306 35.142 27.6322 33.8236 24.2438C33.1397 22.4936 32.4276 20.7434 31.9694 18.9161C31.5111 17.0889 31.3489 15.3807 30.5381 13.7495C30.3901 13.4485 29.9318 13.7145 30.0799 14.0155C30.8695 15.6047 31.0317 17.3619 31.4617 19.0562C31.8918 20.7504 32.5545 22.4306 33.1961 24.0828C34.5216 27.4712 35.84 31.0766 34.9728 34.745C34.8953 35.0741 35.4029 35.2141 35.4805 34.8851Z" fill="#B5C3CD"/>
<path d="M26.011 24.1317C25.8982 18.979 24.4317 13.9314 21.7596 9.51391C21.5834 9.22687 21.1251 9.4859 21.3014 9.77994C23.9241 14.1205 25.3694 19.0701 25.4822 24.1317C25.4893 24.4677 26.0181 24.4677 26.011 24.1317Z" fill="#B5C3CD"/>
<path d="M32.6807 32.9808C28.7889 32.4277 25.0592 31.0136 21.7949 28.8363C20.1803 27.7582 18.6856 26.498 17.3602 25.0769C15.9642 23.5857 14.7515 21.9195 13.137 20.6453C12.8761 20.4353 12.4954 20.8063 12.7633 21.0164C14.4202 22.3255 15.6469 24.0337 17.0852 25.5529C18.4177 26.9601 19.9195 28.2132 21.534 29.2914C24.8336 31.4896 28.6126 32.9248 32.5467 33.4849C32.8781 33.5339 33.0261 33.0298 32.6877 32.9808H32.6807Z" fill="#B5C3CD"/>
<path d="M41.8744 43.5032C39.442 43.3351 37.1576 42.509 34.9509 41.5359C32.8781 40.6188 30.8334 39.6457 28.7959 38.6586C24.7278 36.6843 20.7373 34.5281 17.1416 31.7698C16.8737 31.5667 16.6058 32.0218 16.8737 32.2248C20.6386 35.1092 24.8336 37.3354 29.0991 39.3867C33.1178 41.3189 37.3339 43.7132 41.8744 44.0282C42.2128 44.0492 42.2128 43.5242 41.8744 43.5032Z" fill="#B5C3CD"/>
<path d="M36.1005 48.88C30.9607 48.0539 26.0889 46.0517 21.8657 43.0343C21.5907 42.8383 21.3228 43.2934 21.5978 43.4894C25.8562 46.5277 30.7774 48.551 35.9594 49.3841C36.2908 49.4401 36.4389 48.929 36.1005 48.88Z" fill="#B5C3CD"/>
<path d="M47.3175 0.266032C47.2329 1.03612 47.2964 1.82022 47.5079 2.56231C47.5995 2.88435 48.1072 2.75133 48.0155 2.42229C47.8181 1.71521 47.7687 0.987118 47.8463 0.266032C47.8604 0.126015 47.7123 0 47.5784 0C47.4233 0 47.3316 0.119014 47.3105 0.266032H47.3175Z" fill="#B5C3CD"/>
<path d="M43.6234 4.41758L45.5411 4.5296C45.6821 4.5366 45.809 4.40358 45.809 4.26356C45.809 4.11655 45.6892 4.01153 45.5411 3.99753L43.6234 3.88552C43.4824 3.87852 43.3555 4.01153 43.3555 4.15155C43.3555 4.29857 43.4753 4.40358 43.6234 4.41758Z" fill="#B5C3CD"/>
<path d="M47.9447 5.55867C47.9024 6.39877 47.9447 7.23187 48.0645 8.06497C48.0857 8.20499 48.262 8.282 48.3889 8.24699C48.544 8.20499 48.5933 8.06497 48.5722 7.92495C48.4664 7.14086 48.4382 6.34977 48.4735 5.55867C48.4876 5.22263 47.9588 5.22263 47.9447 5.55867Z" fill="#B5C3CD"/>
<path d="M50.7724 3.80827H53.0144C53.3528 3.80827 53.3528 3.2832 53.0144 3.2832H50.7724C50.4339 3.2832 50.4339 3.80827 50.7724 3.80827Z" fill="#B5C3CD"/>
<path d="M93.5254 61.8453V64.0436C93.5254 64.3796 94.0542 64.3796 94.0542 64.0436V61.8453C94.0542 61.5093 93.5254 61.5093 93.5254 61.8453Z" fill="#B5C3CD"/>
<path d="M89.0204 66.1789H91.1285C91.4669 66.1789 91.4669 65.6538 91.1285 65.6538H89.0204C88.682 65.6538 88.682 66.1789 89.0204 66.1789Z" fill="#B5C3CD"/>
<path d="M93.8574 67.3482V69.8825C93.8574 70.2186 94.3862 70.2186 94.3862 69.8825V67.3482C94.3862 67.0122 93.8574 67.0122 93.8574 67.3482Z" fill="#B5C3CD"/>
<path d="M96.3388 66.0808C97.2624 66.0318 98.193 66.0458 99.1166 66.1298C99.2576 66.1438 99.3846 65.9968 99.3846 65.8637C99.3846 65.7097 99.2647 65.6117 99.1166 65.5977C98.193 65.5137 97.2694 65.4997 96.3388 65.5487C96.0004 65.5697 96.0004 66.0948 96.3388 66.0738V66.0808Z" fill="#B5C3CD"/>
<path d="M6.15067 42.6983L6.29168 45.9957C6.30578 46.3318 6.83456 46.3318 6.82045 45.9957L6.67945 42.6983C6.66535 42.3623 6.13657 42.3623 6.15067 42.6983Z" fill="#B5C3CD"/>
<path d="M1.23624 48.5789C2.12459 48.5229 3.01293 48.5439 3.90128 48.6349C4.04229 48.6489 4.1692 48.5019 4.1692 48.3689C4.1692 48.2149 4.04934 48.1239 3.90128 48.1029C3.01293 48.0119 2.12459 47.9978 1.23624 48.0469C0.897817 48.0679 0.897817 48.5929 1.23624 48.5719V48.5789Z" fill="#B5C3CD"/>
<path d="M6.93289 49.629L7.0598 52.1563C7.0739 52.4923 7.60268 52.4923 7.58858 52.1563L7.46167 49.629C7.44757 49.2929 6.91879 49.2929 6.93289 49.629Z" fill="#B5C3CD"/>
<path d="M9.43588 47.9206C10.2537 47.8716 11.0645 47.8856 11.8824 47.9626C12.0234 47.9766 12.1503 47.8296 12.1503 47.6966C12.1503 47.5426 12.0304 47.4516 11.8824 47.4306C11.0716 47.3536 10.2537 47.3326 9.43588 47.3886C9.29488 47.3956 9.16797 47.5006 9.16797 47.6546C9.16797 47.7876 9.28783 47.9276 9.43588 47.9206Z" fill="#B5C3CD"/>
</g>
<defs>
<clipPath id="clip0_3033_36278">
<rect width="122" height="75" fill="white" transform="translate(0.982422)"/>
</clipPath>
</defs>
</svg>
