<svg width="299" height="250" viewBox="0 0 299 250" fill="none" xmlns="http://www.w3.org/2000/svg">
<g clip-path="url(#clip0_1754_41388)">
<path d="M131.278 162.221C130.918 188.85 133.905 215.759 141.973 241.213C149.099 263.651 161.229 284.245 176.412 302.157C182.623 309.47 189.17 316.48 195.664 323.539C202.159 330.598 210.068 337.914 213.258 347.319L214.529 346.269C187.946 327.437 166.221 302.087 151.432 273.095C144.014 258.547 138.289 243.107 134.596 227.195C130.702 210.401 129.164 192.964 127.449 175.855C126.946 170.945 126.687 166.023 125.99 161.126C125.447 157.231 124.889 152.146 122.762 148.72C121.411 146.563 119.024 146.199 116.984 147.647C113.7 149.984 114.179 154.73 110.969 157.009L112.28 157.313C110.739 154.519 109.885 151.588 109.671 148.418C109.617 147.694 108.498 147.428 108.138 148.065C107.374 149.409 106.545 150.608 105.435 151.684C104.981 152.115 104.497 152.534 103.964 152.9C102.902 154.08 101.734 154.036 100.499 152.799C101.281 152.046 100.3 150.819 99.4097 151.497C97.0539 153.239 94.582 154.559 91.8284 155.532L92.9877 156.603C93.5736 154.592 96.5953 148.482 92.4756 148.205C90.649 148.085 88.4143 149.322 86.7542 149.9C83.7654 150.905 80.7859 151.932 77.7971 152.937L78.9565 154.008C79.2681 153.044 79.5591 152.089 79.8708 151.124C80.0446 150.571 79.7065 150.101 79.1517 149.978C77.0527 149.533 74.9745 149.078 72.8755 148.633L73.3363 150.145C75.4725 148.029 77.7775 146.286 80.4264 144.861C80.9253 144.585 81.0596 144 80.7309 143.55L79.0389 141.249L78.7343 142.559C83.2851 141.145 87.2521 138.773 90.6372 135.393C91.1232 134.923 90.9868 134.237 90.3983 133.93C81.62 129.652 73.1347 137.365 64.4124 137.726L65.3554 138.87C65.9463 137.256 66.7588 135.964 67.8949 134.726C68.3414 134.224 67.8627 133.443 67.2852 133.381C64.0328 133.034 60.8617 132.426 57.7117 131.534L58.2088 132.631C58.3286 131.629 58.845 130.896 59.7581 130.432C60.291 130.066 60.0701 129.193 59.5192 128.969C57.5823 128.275 56.1029 127.324 54.6845 125.847L54.3799 127.157C58.9322 124.645 63.7166 122.975 68.8556 122.142C69.3674 122.06 69.7877 121.446 69.4911 120.956C65.7766 114.358 56.2071 119.569 51.9171 114.18L51.6125 115.49C54.9874 114.235 59.1899 111.557 57.0487 107.439L56.4131 108.625C58.0162 108.472 59.4145 108.087 60.9035 107.462C61.8353 107.04 61.3233 105.8 60.4164 105.837C57.3798 105.967 54.8607 104.539 53.2385 102.007L52.4936 103.392C56.6958 103.907 60.4889 100.766 60.7521 96.5554L59.6054 97.2747L63.9386 98.3539C64.3617 98.4614 64.8849 98.349 65.036 97.8564L66.7705 92.1561L65.3065 92.3956L70.17 97.9489C70.5213 98.3385 71.2117 98.3747 71.5152 97.8879L74.2298 93.6891L73.2417 93.9873C75.7412 94.6004 77.5136 95.8674 78.9068 98.0048C79.1565 98.3905 79.7773 98.3835 80.1032 98.1111C81.2783 97.1793 81.7799 96.3034 82.0602 94.8293L80.3594 94.8768C81.542 99.8536 83.5133 104.423 86.279 108.707C86.692 109.343 87.7254 108.924 87.7921 108.246L88.453 100.562C88.556 99.4681 86.8537 99.2918 86.7507 100.386L86.0898 108.069L87.603 107.608C85.0101 103.595 83.172 99.2644 82.0586 94.6055C81.8303 93.6613 80.5472 93.6941 80.3579 94.653L79.0043 96.7882L80.2007 96.8945C78.6836 94.5389 76.554 93.0346 73.8233 92.3517C73.4603 92.2668 73.052 92.3022 72.8352 92.6499L70.1206 96.8488L71.4659 96.7878L66.6023 91.2345C66.2022 90.7923 65.3461 90.8311 65.1384 91.4741L63.4039 97.1744L64.5014 96.6769L60.1682 95.5978C59.6642 95.477 59.0656 95.6984 59.0216 96.3171C58.8028 99.6341 55.9325 102.058 52.6219 101.638C51.8018 101.535 51.4921 102.449 51.877 103.023C53.856 106.067 57.0428 107.591 60.6401 107.432L60.1531 105.807C58.8392 106.378 57.535 106.694 56.105 106.844C55.5745 106.885 55.2123 107.573 55.4695 108.03C56.4641 109.949 55.0941 111.717 53.5314 112.675C52.6879 113.182 51.8108 113.505 50.8922 113.846C50.3558 114.04 50.257 114.758 50.5876 115.157C52.4509 117.505 55.2965 118.111 58.1652 118.382C61.3781 118.697 66.0838 118.285 67.9327 121.538L68.5682 120.352C63.2956 121.22 58.3474 122.914 53.6502 125.493C53.1927 125.75 52.9341 126.391 53.3456 126.803C54.9501 128.47 56.7264 129.636 58.8833 130.429L58.6444 128.966C57.5372 129.717 56.9246 130.569 56.5993 131.889C56.4916 132.312 56.6131 132.855 57.0965 132.985C60.3876 133.913 63.6997 134.557 67.1045 134.91L66.4948 133.565C65.2419 134.931 64.3935 136.363 63.7572 138.098C63.508 138.76 64.0586 139.259 64.7002 139.242C73.0763 138.888 81.4862 131.284 89.7945 135.351L89.5556 133.888C86.2966 137.161 82.4652 139.446 78.048 140.825C77.4814 141.007 77.4429 141.748 77.7434 142.136L79.4354 144.437L79.74 143.126C76.9669 144.608 74.4963 146.426 72.2847 148.651C71.7347 149.2 71.9989 150.003 72.7456 150.163C74.8446 150.609 76.9228 151.064 79.0218 151.509L78.3027 150.363C77.9911 151.328 77.7001 152.283 77.3884 153.247C77.1561 154.001 77.8364 154.566 78.5478 154.318C81.7023 153.238 84.8455 152.187 88 151.106C89.3401 150.649 92.4616 148.834 92.8444 151.056C93.0423 152.263 91.7919 154.626 91.431 155.812C91.2194 156.557 91.8583 157.14 92.5904 156.883C95.489 155.844 98.0965 154.437 100.558 152.598L99.4682 151.296C97.9255 152.794 98.801 155.166 100.883 155.519C104.511 156.144 108.035 151.529 109.572 148.861L108.039 148.508C108.278 151.843 109.167 154.907 110.795 157.836C111.08 158.355 111.635 158.478 112.106 158.14C114.866 156.19 114.834 153.037 116.563 150.407C117.038 149.693 117.884 148.586 118.786 148.427C121.275 147.972 121.88 150.517 122.361 152.02C123.171 154.521 123.701 157.124 124.131 159.724C125.437 167.837 125.831 176.14 126.831 184.293C128.798 200.638 130.128 216.898 134.347 232.87C142.01 262 156.252 289.344 175.611 312.449C186.71 325.702 199.503 337.514 213.617 347.505C214.35 348.021 215.134 347.217 214.888 346.455C212.172 338.482 206.192 332.337 200.648 326.219C195.104 320.101 189.297 313.953 183.748 307.713C172.131 294.694 161.831 281.003 154.029 265.332C145.936 249.02 140.466 232.217 137.209 214.237C134.082 197.095 132.838 179.649 133.058 162.237C133.069 161.16 131.378 160.954 131.356 162.061L131.278 162.221Z" fill="#B5C3CD" fill-opacity="0.5"/>
<path d="M100.28 105.454C101.799 102.47 103.067 102.295 104.136 104.928C104.239 105.43 104.823 105.839 105.322 105.563C106.214 105.109 107.118 104.624 108.01 104.17L106.824 103.535C108.787 113.372 112.81 122.524 118.694 130.658C119.158 131.296 120.08 130.853 120.207 130.196C121.755 121.662 123.65 108.331 115.894 102.068C109.658 97.012 100.764 99.4721 93.9038 101.684L95.0632 102.755C95.6881 101.05 96.6604 99.8355 98.1442 98.8137C98.8861 98.3028 98.2347 97.2511 97.4689 97.3238C92.8855 97.7301 88.4067 97.2658 84.0137 95.8895L84.2526 97.3527C85.5031 96.3119 86.733 95.2805 87.9741 94.219C88.3941 93.879 88.38 93.1869 87.9138 92.8744C86.1582 91.6996 84.2284 91.352 82.2822 90.6377C80.9978 90.1722 79.4954 89.5561 78.9592 88.1528C77.911 85.5098 80.3068 84.8479 82.3165 84.4358C87.6703 83.3062 93.156 83.5137 98.4597 84.7515C99.4377 84.9817 99.6993 83.4663 98.8381 83.1083C94.6318 81.373 90.8346 79.0531 87.3768 76.1055L87.4371 77.4501C88.3693 76.7532 89.3014 76.0563 90.2242 75.3387C90.7477 74.9517 90.5663 74.111 89.9853 73.8754C87.6593 72.9841 85.3125 72.1021 82.9865 71.2108C82.0745 70.8509 81.1098 70.5398 80.2092 70.1498C79.5078 69.8691 78.8498 69.5188 78.2258 69.0782C76.6048 67.0441 76.8 65.9329 78.8528 65.7258C79.4995 66.1062 80.6122 65.4771 80.1241 64.6756C78.6297 62.2598 77.1446 59.8648 75.6295 57.4584L74.994 58.6445C77.5855 57.9188 80.0353 57.7064 82.7082 58.0414C83.7917 58.1739 83.9688 56.4722 82.8854 56.3397C80.1109 56.0008 77.4485 56.1849 74.7328 56.9668C74.2698 57.1019 73.7612 57.6318 74.0973 58.1529C75.5917 60.5687 77.0767 62.9638 78.5918 65.3702L79.863 64.32C77.4267 62.855 74.778 65.6022 75.5254 68.132C76.0742 70.0036 77.9994 71.0018 79.6295 71.7346C82.8109 73.1363 86.147 74.2184 89.4057 75.4602L89.1668 73.997C88.2346 74.6939 87.3025 75.3908 86.3797 76.1085C85.9183 76.4673 86.036 77.1124 86.44 77.4531C90.0162 80.4967 93.9432 82.8825 98.2698 84.663L98.6482 83.0198C94.7757 82.1309 90.8424 81.7686 86.8743 82.0456C84.3136 82.2335 79.2339 82.3159 77.517 84.6407C76.2619 86.3322 77.0377 88.6496 78.2945 90.1005C80.4961 92.6447 84.2778 92.4521 86.977 94.222L86.9167 92.8774C85.6662 93.9182 84.4363 94.9496 83.1952 96.0111C82.7224 96.3999 82.821 97.2782 83.4341 97.4743C88.1091 98.9223 92.8814 99.4282 97.7715 98.9827L97.0962 97.4928C95.3619 98.678 94.2256 100.191 93.51 102.137C93.2268 102.889 93.9693 103.425 94.6694 103.208C101.005 101.159 109.615 98.6781 115.252 103.681C122.021 109.693 120.009 122.104 118.588 129.983L120.101 129.521C114.411 121.649 110.53 112.756 108.606 103.226C108.503 102.724 107.919 102.316 107.42 102.592C106.528 103.046 105.624 103.53 104.732 103.985L105.918 104.619C104.985 99.7538 98.2226 100.749 98.7054 105.669C98.8056 106.771 100.495 106.479 100.384 105.407L100.28 105.454Z" fill="#B5C3CD" fill-opacity="0.5"/>
<path d="M83.9782 57.2151C83.671 56.2069 84.003 55.5077 84.9742 55.1173C86.1128 54.8756 87.0079 55.1434 87.639 55.9299C88.5862 56.6979 89.1115 57.8568 89.6707 58.9253C90.031 59.6101 91.254 59.5547 91.2984 58.6615C91.3883 56.0514 91.8788 53.609 92.8169 51.1632L91.5202 51.5515C94.0319 52.9074 96.342 54.4795 98.4994 56.3204C98.9917 56.7458 99.7617 56.297 99.8453 55.7103C100.134 53.2095 102.973 55.0659 103.698 55.7848C104.335 56.4191 104.778 57.3409 105.247 58.101C106.205 59.6626 107.151 61.2542 108.067 62.8346C109.908 66.016 111.656 69.2651 113.32 72.5516C113.69 73.2571 114.559 73.1375 114.899 72.5096C117.36 67.7521 113.974 62.6513 111.127 58.903C106.537 52.8517 100.749 47.7922 96.8709 41.2186L96.2354 42.4047C98.2147 42.2559 100.215 42.0976 102.194 41.9488C102.745 41.8984 103.066 41.2292 102.83 40.7627C101.081 37.2899 99.3225 33.7963 97.5736 30.3235L97.1432 31.4665C98.4965 30.9279 99.6253 30.9401 100.979 31.4489C101.551 31.6638 102.263 31.1415 102.124 30.5058C102.064 30.2087 101.768 29.4449 101.891 29.1648L104.91 27.6215L105.873 28.5324C106.461 29.114 107.035 29.7764 107.72 30.2395C108.682 30.8759 109.632 31.3186 110.511 30.396C111.21 29.6801 111.182 28.5705 111.166 27.6547C111.145 26.6167 110.6 25.691 111.741 25.3986C113.323 24.9805 115.053 27.639 115.954 28.8019C116.38 29.357 117.429 29.0814 117.467 28.3405C117.568 25.9749 117.473 23.6731 117.115 21.341L116.183 22.3125C117.467 22.5034 118.752 22.6944 120.037 22.8853C120.543 22.9553 121.093 22.4067 120.969 21.9139C120.37 19.4913 122.96 18.5418 124.731 19.5851C125.934 20.3119 126.397 21.4989 126.61 22.8492C126.683 23.3401 127.307 23.7806 127.796 23.4839C129.118 22.7102 130.419 21.9459 131.731 21.1515L130.545 20.5168C130.984 23.1367 132.067 26.7369 135.41 26.5684C135.828 26.5537 136.869 25.9321 137.132 25.9624C138.428 26.1233 137.104 28.5443 136.93 29.097C135.988 31.9189 135.027 34.6994 134.054 37.51C133.733 38.4537 134.952 39.049 135.54 38.3085C138.296 34.8638 141.423 31.8499 144.933 29.1862L143.623 28.8824C144.148 30.0412 144.551 31.2055 144.828 32.477C145.011 33.267 146.162 33.4935 146.47 32.6306C147.662 30.1945 148.96 30.5791 150.342 33.794C150.213 34.2264 150.367 34.7305 150.839 34.8907L152.616 35.5071C153.019 36.6715 152.707 37.6359 151.7 38.4418C151.329 38.8346 151.264 39.4626 151.76 39.7864C153.258 40.7787 152.704 43.0254 151.719 44.0458C151.082 44.7335 150.263 45.1296 149.424 45.5351C148.191 46.119 146.894 46.5072 145.71 47.1438C143.799 48.1596 142.128 49.5404 140.753 51.1866C137.906 54.5975 136.581 58.8896 136.86 63.3034C136.906 63.956 137.801 64.2237 138.244 63.8235C143.29 59.3162 147.251 53.9035 150.021 47.7339L148.557 47.9735C149.667 49.2663 150.228 50.5586 150.397 52.2531C150.445 52.8549 151.336 53.2242 151.781 52.7732C154.852 49.6352 157.902 46.5067 160.972 43.3687L159.661 43.0649L161.177 47.5661C161.359 48.1323 162.091 48.1498 162.488 47.8699C164.486 46.715 165.456 47.1483 165.408 49.1905C166.177 50.1145 166.168 50.8667 165.394 51.417C164.927 51.9281 165.449 52.6394 166.004 52.7621L167.118 53.9533C167.101 55.1832 166.6 56.0591 165.664 56.583C165.065 57.079 164.331 57.3868 163.657 57.7172C163.036 57.9988 162.953 59.0838 163.698 59.295C165.974 59.9098 167.484 61.3703 168.172 63.603L168.602 62.46C167.053 63.0624 165.474 63.6535 163.925 64.2559C163.389 64.4492 163.29 65.1675 163.62 65.5664C163.811 67.7498 162.995 68.8681 161.184 68.8911C160.591 68.9602 159.989 69.0086 159.389 69.0062C158.696 69.0207 158.509 69.9288 158.868 70.3899C159.923 71.7823 161.509 71.5372 162.703 72.5179C165.168 74.5433 158.994 79.0384 157.448 80.0884C152.321 83.535 146.024 84.568 140.927 88.0259C133.239 93.2569 129.007 102.534 129.723 111.713C129.771 112.315 130.672 112.705 131.107 112.233C136.1 107.002 139.614 100.769 141.409 93.7693L140.112 94.1576L142.553 96.2939C142.878 96.5706 143.533 96.4733 143.731 96.0842C145.064 93.6839 146.511 90.9828 149.407 90.2686C151.05 89.8731 152.321 90.145 153.775 89.1118C155.114 88.1557 155.893 86.6802 156.897 85.4267C157.677 84.4494 158.692 82.6675 160.189 84.4834C160.908 85.3547 160.377 88.5887 160.359 89.5948C160.337 90.7024 161.848 90.8409 162.061 89.771C162.361 88.3383 164.494 86.8225 165.331 85.6948C166.778 83.7666 167.664 81.3697 168.613 79.1684L167.515 79.6658C169.559 80.4855 169.891 82.7047 170.956 84.3924C171.196 84.7574 171.856 84.7824 172.152 84.4987C173.399 83.2848 174.595 82.0691 175.931 80.94L174.547 80.4199C175.107 83.8579 175.463 87.2882 175.687 90.7542C175.729 91.5083 176.84 91.7029 177.219 91.1071C180.028 86.8406 182.538 82.4102 184.83 77.8293L183.187 77.6756C183.852 80.5176 184.22 83.3688 184.343 86.2817C184.379 86.9136 185.303 87.2435 185.727 86.8019C186.944 85.5768 186.748 85.366 188.657 86.272C190.565 87.1781 190.386 87.0595 189.032 88.4218C188.418 89.0494 188.851 89.9505 189.707 89.9117C191.715 89.8249 190.791 92.6882 190.13 93.4868C189.468 94.2855 187.891 94.5513 186.997 94.7819C185.816 95.0931 184.686 95.3555 183.561 95.7908C182.9 96.0404 182.98 96.8773 183.424 97.25C185.066 98.7256 186.678 100.19 188.321 101.666L188.458 100.206C186.596 101.275 184.664 101.253 182.848 100.055C182.303 99.6787 181.309 100.129 181.504 100.889C182.077 102.924 182.893 104.725 184.046 106.497L184.567 105.113L179.12 105.487C178.365 105.53 178.191 106.631 178.766 107.019C178.581 109.199 177.708 110.193 176.119 109.99C175.507 110.018 174.887 110.025 174.277 110.002C173.534 110.014 172.87 110.091 172.143 110.196C171.652 110.269 171.401 110.707 171.435 111.166C171.62 115.098 173.453 117.16 175.428 120.306C176.625 121.46 176.47 122.328 175.001 122.944C174.219 124.247 173.227 124.372 172.027 123.32C171.181 122.83 170.529 122.053 169.843 121.366C168.021 119.548 166.271 117.672 164.481 115.814C163.962 115.276 163.108 115.539 162.968 116.276C162.577 118.498 162.896 120.524 163.949 122.516L164.585 121.33C162.835 121.599 161.358 121.37 159.738 120.658C158.888 120.27 158.358 121.359 158.771 121.995C159.762 123.466 161.074 124.268 162.674 124.99C163.795 125.479 164.993 125.81 166.015 126.469C166.861 126.958 167.538 127.624 168.033 128.497C167.998 131.008 166.966 131.925 164.967 131.259C164.145 130.933 163.527 131.937 164 132.595C164.599 133.421 165.411 134.276 165.895 135.179C166.747 136.838 166.461 137.143 164.938 137.583C163.003 138.161 160.971 138.359 158.943 138.18C154.846 137.842 151.048 136.072 148.17 133.136C147.554 132.492 146.65 132.976 146.679 133.811C146.855 139.32 140.112 137.661 137.545 135.632C136.883 135.109 135.885 135.935 136.274 136.682C136.955 138.02 137.388 139.47 135.705 140.108C134.559 140.553 132.153 140.146 130.883 140.098C128.191 139.997 125.527 139.682 122.868 139.266C122.17 139.159 121.593 140.144 122.123 140.652C127.916 146.383 131.194 154.001 131.218 162.148C131.216 163.246 132.918 163.422 132.92 162.324C132.884 153.709 129.563 145.611 123.426 139.562L122.681 140.947C125.35 141.384 128.004 141.678 130.696 141.779C132.504 141.858 135.044 142.229 136.826 141.645C139.483 140.79 138.831 137.918 137.838 135.948L136.567 136.998C138.769 138.719 141.669 140.049 144.503 139.088C146.976 138.267 148.454 136.075 148.369 133.519L146.878 134.195C150.805 138.177 156.219 140.264 161.82 139.845C163.605 139.709 167.73 139.336 168.519 137.332C169.251 135.479 166.284 132.733 165.326 131.446L164.359 132.782C166.945 133.805 170.074 132.063 169.903 129.097C169.599 124.021 162.355 124.286 160.076 120.854L159.109 122.19C160.989 123.034 162.771 123.275 164.827 122.966C165.339 122.884 165.729 122.258 165.463 121.78C164.513 120.015 164.271 118.379 164.631 116.42L163.118 116.881C165.466 119.309 167.677 122.148 170.364 124.223C172.054 125.527 174.425 126.298 176.378 124.989C177.986 123.911 178.18 122.027 177.4 120.36C176.884 119.222 175.973 118.313 175.238 117.299C173.828 115.344 173.197 113.236 173.064 110.851L172.356 111.821C174.936 111.4 178.802 112.441 180.512 109.77C181.443 108.3 181.114 106.528 179.707 105.57L179.353 107.102L184.8 106.729C185.524 106.675 185.638 105.825 185.321 105.345C184.331 103.823 183.647 102.313 183.154 100.565L181.81 101.399C184.092 102.909 186.71 103.069 189.113 101.706C189.706 101.362 189.752 100.693 189.25 100.247C187.608 98.7709 185.995 97.3066 184.353 95.831L184.216 97.2901C187.075 96.2187 192.015 96.0496 192.822 92.2667C193.304 90.0274 191.619 88.0722 189.397 88.1814L190.073 89.6713C191.532 88.2113 193.311 85.8583 191.504 83.9086C189.325 81.5788 186.24 83.7502 184.579 85.4263L185.963 85.9464C185.841 83.0334 185.451 80.1917 184.808 77.3403C184.617 76.4789 183.541 76.4179 183.165 77.1867C180.96 81.6286 178.487 85.9179 175.753 90.0754L177.286 90.4283C177.063 86.9623 176.697 83.5113 176.146 80.0939C176.059 79.4601 175.246 79.1549 174.762 79.5738C173.438 80.6729 172.221 81.898 170.984 83.1325L172.18 83.2387C170.81 81.0412 170.611 79.0609 168.037 78.0076C167.606 77.8286 167.128 78.0953 166.939 78.5051C165.822 81.1068 164.748 83.639 162.885 85.8057C161.949 86.8787 160.591 88.068 160.28 89.5308L161.983 89.707C162.051 87.6554 162.708 83.2669 160.736 81.8906C159.24 80.8476 157.502 82.1344 156.454 83.1829C155.407 84.2314 154.66 85.6675 153.62 86.7874C151.945 88.5443 150.296 88.0447 148.224 88.7595C145.339 89.7181 143.664 92.5225 142.286 95.0431L143.464 94.8335L141.023 92.6971C140.639 92.3471 139.856 92.6022 139.726 93.0854C137.994 99.7823 134.699 105.841 129.929 110.846L131.313 111.367C130.862 105.634 132.474 99.9396 135.797 95.2655C139.755 89.6798 145.264 87.4069 151.412 84.9446C156.423 82.9478 161.459 80.0164 164.426 75.3288C165.109 74.2461 165.684 73.0374 164.813 71.8859C163.691 70.3486 161.255 70.7547 160.103 69.2061L159.582 70.5898C161.61 70.4936 163.968 70.298 165.129 68.3997C165.976 67.0182 165.867 65.6209 164.856 64.3827L164.552 65.6931C166.101 65.0907 167.68 64.4996 169.229 63.8972C169.694 63.7114 169.785 63.1963 169.659 62.7543C168.856 60.1002 166.922 58.2576 164.233 57.5559L164.274 59.1337C166.243 58.1913 168.694 56.8807 168.79 54.3928C168.858 52.6158 167.81 51.2948 166.104 50.9456L166.714 52.2906C170.114 48.5041 165.387 43.6374 161.322 46.453L162.633 46.7568L161.117 42.2555C160.942 41.7608 160.156 41.5684 159.806 41.9517C156.735 45.0897 153.685 48.2183 150.615 51.3563L151.999 51.8764C151.79 49.8754 151.098 48.2933 149.793 46.7897C149.364 46.2854 148.595 46.4597 148.329 47.0293C145.67 52.9489 141.892 58.1041 137.047 62.3952L138.431 62.9154C137.995 55.4551 142.617 50.0674 149.182 47.3158C151.323 46.4205 153.565 45.2545 154.226 42.8593C154.724 41.0375 154.24 39.3108 152.663 38.2546L152.724 39.5992C154.08 38.1861 154.656 36.7028 154.589 34.7377C154.58 34.4424 154.326 34.1583 154.044 34.0866L151.353 33.1611L151.85 34.2578C153.207 29.3771 146.571 27.0719 144.789 31.8959L146.431 32.0495C146.109 30.6238 145.68 29.3466 145.08 28.0223C144.845 27.505 144.198 27.3991 143.769 27.7185C140.123 30.4686 136.921 33.5914 134.068 37.1546L135.553 37.9531C136.505 35.1519 137.457 32.3507 138.429 29.5402C138.866 28.2448 139.735 26.5286 139.24 25.1066C138.967 24.2827 138.441 23.673 137.504 23.6986C137.056 23.702 136.768 24.0571 136.378 24.1339C132.801 24.8325 132.531 22.5851 132.118 20.078C132.046 19.5872 131.422 19.1466 130.932 19.4434C129.61 20.2171 128.309 20.9814 126.997 21.7758L128.183 22.4105C127.775 19.8019 125.922 16.9251 122.943 17.1277C120.496 17.2893 118.606 19.6178 119.195 22.0196L120.128 21.0482C118.843 20.8572 117.558 20.6662 116.273 20.4753C115.717 20.4034 115.259 20.9352 115.341 21.4467C115.684 23.6359 115.794 25.8061 115.699 28.0194L117.212 27.558C116.01 26.0075 112.897 21.7814 110.372 23.1503C108.388 24.2243 109.973 26.3995 109.416 27.9241C108.691 29.8492 106.892 26.8728 105.832 26.131C104.872 25.4438 103.622 24.8881 102.4 25.1673C99.8352 25.7313 99.9462 28.6743 100.369 30.653L101.514 29.7099C99.7388 29.0428 98.1302 29.0734 96.374 29.7697C95.9505 29.9367 95.756 30.4988 95.9436 30.9127C97.6925 34.3855 99.4507 37.879 101.2 41.3518L101.835 40.1658C99.8558 40.3146 97.8558 40.4728 95.8765 40.6217C95.3666 40.6533 94.9631 41.36 95.2409 41.8078C98.3364 47.04 102.524 51.3779 106.49 55.9413C109.862 59.8009 116.086 66.209 113.227 71.7956L114.805 71.7536C113.12 68.4764 111.403 65.2387 109.552 62.0366C108.131 59.5626 106.773 56.7859 104.945 54.571C103.117 52.3562 98.5507 51.5327 98.0866 55.4099L99.4326 54.7998C97.2545 52.9683 94.935 51.3756 92.4534 50.0309C91.9853 49.7691 91.3813 49.8683 91.1567 50.4191C90.1732 52.9852 89.6261 55.578 89.5304 58.3404L91.1581 58.0765C89.9551 55.7531 87.8882 52.3496 84.7415 53.2272C82.5509 53.846 81.229 56.2163 82.6092 58.1599C83.2365 59.048 84.5397 57.9584 83.9125 57.0703L83.9782 57.2151Z" fill="#B5C3CD" fill-opacity="0.5"/>
<path d="M93.6992 224.753C89.625 216.922 92.8328 208.084 95.8509 200.48C96.1321 199.779 95.3635 199.129 94.6915 199.409C92.7583 200.21 91.4117 201.369 90.3558 203.17L91.8156 203.307L88.9666 198.013C88.7395 197.567 88.0589 197.277 87.6557 197.709C86.6704 198.729 86.1896 199.596 85.9526 201L87.6534 200.953C87.4989 199.676 87.1159 199.051 86.182 198.202C85.8475 197.905 85.2208 198.064 85.004 198.412C84.3462 199.384 83.6977 200.376 83.0399 201.348L84.5727 201.701C84.0471 197.898 82.8174 194.414 80.8068 191.135C80.4145 190.489 79.5603 190.477 79.2283 191.177L77.4116 195.043L78.8756 194.804L76.2085 191.398C75.8986 190.99 75.1254 190.991 74.8633 191.459C73.9695 193.012 72.864 193.987 71.1793 194.676C70.9308 194.788 70.6652 195.083 70.6949 195.369C70.7464 197.74 70.8186 200.102 70.87 202.474L72.3832 202.012C70.0691 199.22 69.3072 196.272 69.2497 192.731C69.2143 191.001 69.1433 189.138 67.7565 187.895C65.8285 186.175 62.5326 187.494 63.1292 190.242L64.6201 189.567C63.0871 187.892 61.4561 186.386 59.6782 184.997C59.4113 184.793 58.8826 184.784 58.649 185.039C57.7165 186.011 57.2884 186.828 57.0948 188.163L58.4407 187.553C56.4635 186.055 54.316 185.282 51.8573 185.199C51.4302 185.193 50.9313 185.469 50.9232 185.947C50.876 190.359 51.6928 194.528 53.3882 198.599L54.4602 197.44C47.4184 194.57 41.0195 190.586 35.3219 185.56C34.7412 185.05 33.922 185.721 33.9775 186.394C34.1915 188.243 34.6598 189.827 35.5325 191.476L36.8037 190.426C32.4323 186.895 28.1706 194.564 33.7421 196.778C34.7744 197.183 35.3427 195.628 34.3424 195.184C30.4503 193.481 26.5488 191.757 22.6567 190.054C21.8162 189.686 21.2768 190.754 21.6898 191.39L25.3101 196.734L25.8311 195.35L20.046 196.85C19.5322 196.983 19.1459 197.507 19.4105 198.036C20.2136 199.642 21.128 200.999 22.3699 202.307L22.6745 200.997L19.4685 202.624C19.1372 202.775 18.8883 203.162 18.9857 203.542C19.3148 205.039 20.2827 205.797 21.512 206.637C21.8786 206.895 22.6495 207.219 22.9086 207.625C23.4944 208.532 23.1339 209.444 22.871 210.461C22.7273 211.025 22.3882 211.379 22.425 212.01C22.485 213.63 23.8878 214.191 25.2381 214.527C28.1514 215.227 31.3099 215.367 34.2879 215.439L33.8271 213.926C31.3632 216.365 28.8692 218.793 26.4052 221.232C26.0888 221.525 26.0564 221.839 26.1631 222.24C26.5509 223.536 27.1609 224.606 28.2472 225.461C29.185 226.208 33.4713 227.184 33.1593 228.423C32.9796 229.128 33.5845 229.801 34.3186 229.494C40.728 226.838 47.3378 224.79 54.1368 223.379L53.4615 221.889C51.0604 223.751 48.6706 225.582 46.2695 227.444C46.0492 227.619 45.9039 227.959 45.9751 228.226C46.4899 230.188 46.3201 231.961 45.285 233.752C45.0775 234.121 45.0655 234.7 45.4942 234.93C47.2462 235.932 48.7874 237.129 50.1023 238.653C51.173 239.914 51.7863 241.432 52.7327 242.749C53.8144 244.254 55.6946 245.098 57.1377 243.546L55.8269 243.242C56.9078 245.297 57.9794 247.33 59.0604 249.385C59.3645 249.945 60.1525 250.087 60.5201 249.521C62.339 246.926 64.8588 247.804 67.0372 249.361C67.8586 249.962 68.6217 250.489 69.6563 250.569C71.2684 250.711 72.5413 249.885 72.8763 248.311L71.3631 248.772C73.4573 251.465 78.3888 253.919 80.0785 249.387L78.5 249.429C79.7165 251.397 81.6635 251.562 83.7846 250.9C86.0507 250.172 87.7295 249.635 90.1352 250.042C92.2681 250.397 94.3007 251.247 96.3032 252.085C96.7037 252.253 97.2722 252.02 97.4007 251.588C98.1814 248.739 98.2244 246.026 97.4492 243.159L96.3042 244.102C98.7283 244.824 101.143 245.526 103.567 246.248C104.522 246.538 105.075 245.39 104.367 244.763C104.072 244.498 105.67 241.802 105.724 241.204C105.774 240.159 105.305 239.399 104.527 238.729C100.774 235.516 95.6634 234.814 93.8397 229.579C93.4723 228.548 91.9193 229.252 92.2867 230.283C93.7711 234.549 97.6383 236.638 101.33 238.781C102.923 239.705 104.079 240.603 103.34 242.609C103.136 243.151 102.745 243.553 102.64 244.149C102.474 245.047 102.729 245.555 103.388 246.129L104.188 244.644C101.764 243.922 99.3493 243.221 96.9252 242.499C96.3723 242.325 95.5929 242.753 95.7801 243.442C96.4654 246 96.4942 248.431 95.8061 250.988L96.9036 250.491C94.3802 249.439 91.7552 248.384 88.9956 248.188C86.915 248.059 81.1062 250.442 80.053 248.725C79.6794 248.121 78.7577 248.015 78.4745 248.767C77.7496 250.692 75.3986 250.186 74.1713 249.295C73.568 248.845 73.1322 248.27 72.6664 247.683C72.1819 247.054 71.3008 247.478 71.1532 248.144C70.6573 250.464 66.5946 246.843 66.0155 246.556C65.2071 246.15 64.4003 245.967 63.4934 246.003C61.6496 246.066 60.1471 247.046 59.0935 248.522L60.5532 248.658C59.4723 246.604 58.4007 244.57 57.3197 242.516C57.0926 242.07 56.412 241.78 56.0088 242.212C54.5563 243.743 53.3134 240.341 52.891 239.684C52.3446 238.809 51.7456 237.983 51.043 237.204C49.7167 235.71 48.1455 234.501 46.3934 233.499L46.6026 234.677C47.6264 232.916 47.8052 231.438 47.9112 229.469C47.9809 227.916 48.7264 227.578 49.9844 226.608C51.4834 225.455 52.9824 224.301 54.472 223.127C55.1217 222.633 54.6172 221.465 53.7967 221.637C46.8433 223.093 40.0999 225.177 33.5456 227.898L34.705 228.969C35.017 227.73 34.7793 226.765 33.7325 225.943C32.962 225.344 31.9988 225.257 31.0943 224.968C29.3059 224.382 28.2387 223.294 27.6974 221.494L27.4553 222.502C29.9192 220.063 32.4132 217.636 34.8771 215.197C35.3631 214.727 35.2082 213.724 34.4163 213.684C32.0892 213.617 29.7452 213.457 27.4392 213.105C25.2949 212.78 24.1923 212.881 24.7675 210.35C24.8546 209.936 25.1429 209.581 25.2112 209.126C25.7066 205.759 21.2345 205.915 20.636 203.218L20.1532 204.135L23.3592 202.507C23.8261 202.271 24.0546 201.618 23.6638 201.197C22.5497 200.005 21.6915 198.773 20.9541 197.311L20.3185 198.497L26.1037 196.998C26.7718 196.819 27.0002 196.167 26.6247 195.614L23.0044 190.27L22.0376 191.607L33.7233 196.737L34.3237 195.142C32.994 194.797 32.6978 194.034 33.4048 192.84C33.2491 191.065 34.0359 190.708 35.7861 191.761C36.4476 192.284 37.4458 191.457 37.0573 190.71C36.2804 189.217 35.8176 187.755 35.6279 186.07L34.2835 186.904C40.0789 192.035 46.6489 196.066 53.811 198.981C54.5124 199.262 55.1624 198.493 54.883 197.822C53.3189 194.041 52.5319 190.157 52.5673 186.05L51.6332 186.797C53.838 186.871 55.6545 187.519 57.4137 188.867C57.9474 189.274 58.6647 188.874 58.7596 188.257L59.7104 186.279L58.6812 186.322C60.3615 187.606 61.8741 189.015 63.3094 190.585C63.8467 191.164 64.991 190.77 64.8003 189.909L67.2082 189.99L67.5018 191.354C67.6024 192.181 67.4884 193.031 67.508 193.845C67.5441 195.026 67.6837 196.16 67.9965 197.291C68.575 199.448 69.643 201.309 71.0424 203.019C71.4707 203.524 72.5565 203.331 72.5556 202.558C72.5292 201.123 71.7106 197.004 72.7224 195.822C72.6696 195.871 74.4546 194.688 74.4339 194.697C75.2118 194.045 75.7508 193.252 76.2317 192.385L74.8865 192.446L77.5535 195.852C77.9705 196.387 78.7421 196.162 79.0175 195.613L80.8342 191.746L79.2558 191.788C81.18 194.932 82.3854 198.252 82.8754 201.921C82.9799 202.647 83.9973 202.909 84.4083 202.274C85.0661 201.302 85.7146 200.31 86.3724 199.338L85.1944 199.548L85.9354 201.183C86.0809 202.164 87.4902 202.024 87.6569 201.126L88.7565 198.981L87.4456 198.677L90.2946 203.971C90.5799 204.49 91.4055 204.715 91.7543 204.108C92.6574 202.576 93.7537 201.58 95.3969 200.91L94.2375 199.839C91.0609 207.864 87.8449 217.18 92.1274 225.416C92.6398 226.381 94.1928 225.677 93.6804 224.712L93.6992 224.753Z" fill="#B5C3CD" fill-opacity="0.5"/>
<path d="M93.1001 230.588C100.912 231.412 108.887 230.392 116.626 232.047C124.365 233.703 131.785 238.672 137.526 244.4C138.301 245.172 139.604 244.082 138.83 243.311C133.088 237.582 126.073 232.679 118.093 230.659C110.114 228.639 101.524 229.788 93.2867 228.907C92.1825 228.784 92.0261 230.476 93.1095 230.609L93.1001 230.588Z" fill="#B5C3CD" fill-opacity="0.5"/>
<path d="M92.8004 225.909C100.3 227.2 107.95 226.401 115.432 227.599C122.915 228.797 129.399 231.87 135.073 236.457C135.932 237.14 136.901 235.753 136.063 235.061C130.468 230.537 123.812 227.418 116.7 226.101C108.872 224.636 100.81 225.571 92.9569 224.217C91.8754 224.034 91.6982 225.735 92.7797 225.919L92.8004 225.909Z" fill="#B5C3CD" fill-opacity="0.5"/>
<path d="M156.454 217.436C156.145 213.011 155.681 208.132 152.454 204.756C149.647 201.813 144.422 200.639 143.21 196.424L142.502 197.394C143.747 197.278 144.963 197.151 146.208 197.036C146.73 196.974 147.122 196.297 146.844 195.849C146.271 194.862 145.708 193.895 145.136 192.907L144.894 193.915C145.687 193.131 145.887 192.417 145.614 191.318C145.447 190.621 145.053 190.026 144.783 189.375C144.528 188.867 144.314 188.34 144.204 187.767C144.837 186.357 145.602 186.06 146.464 186.917C147.001 187.496 147.798 187.16 147.977 186.455C148.465 184.338 148.47 182.366 148.032 180.244L147.1 181.216C149.299 181.441 150.9 180.017 151.679 177.992C152.189 176.639 152.11 175.253 152.134 173.82C152.154 173.038 152.123 172.253 152.296 171.477C152.538 170.469 155.037 166.842 156.168 169.722C156.464 170.485 157.439 170.268 157.746 169.68C158.459 168.334 159.172 166.988 159.864 165.651L158.567 166.04C159.552 166.616 160.537 167.192 161.532 167.789C161.87 167.985 162.247 167.989 162.561 167.747C163.284 167.194 163.672 166.619 163.98 165.756C164.664 163.85 163.885 162.133 166.741 162.21C167.3 162.231 167.658 162.692 168.368 162.495C170.156 162.034 171.686 158.472 173.595 162.022C173.88 162.541 174.726 162.756 175.055 162.158C176.603 159.461 178.581 157.217 181.044 155.328L179.66 154.807C179.871 156.483 181.217 156.92 182.678 157.281C184.764 157.807 185.04 158.306 185.622 160.362C185.873 161.246 185.967 161.727 186.749 162.296C187.482 162.811 188.392 162.673 189.141 163.057C191.525 164.297 189.805 165.625 190.061 167.455C190.331 169.428 191.99 170.721 193.894 170.955L193.284 169.61C192.037 171.373 190.759 173.125 189.511 174.888C189.081 175.482 189.618 176.336 190.345 176.231C193.077 175.816 195.678 175.111 198.23 174.079L197.044 173.444C197.553 176.606 198.512 179.987 198.297 183.203C198.148 185.241 197.491 186.711 195.635 187.628C194.837 188.014 193.911 188.284 193.402 189.089C192.624 190.29 193.066 191.486 194.145 192.269C194.917 192.817 195.922 192.886 196.717 193.373C200.896 195.819 196.323 198.616 194.038 199.577C193.499 199.821 193.434 200.449 193.733 200.887C194.253 201.649 194.794 202.402 195.314 203.164L195.619 201.854C194 202.687 192.372 203.226 190.559 203.523C189.658 203.682 189.687 204.792 190.405 205.165C191.941 205.965 193.477 206.766 195.013 207.566L194.467 206.691C194.281 207.823 192.525 208.245 191.803 209.021C191.082 209.797 191.264 210.363 190.956 211.226C189.339 215.975 182.167 216.232 178.113 215.052C177.137 214.771 176.605 215.91 177.313 216.537C178.739 217.811 180.154 219.115 181.581 220.39L181.52 219.045C179.297 220.527 176.949 221.791 174.421 222.712C172.925 223.266 170.394 223.465 169.205 224.752C167.953 226.118 168.264 228.072 165.933 228.381C162.866 228.773 159.03 228.791 157.956 225.211C157.63 224.162 156.087 224.886 156.403 225.915C157.063 228.086 158.76 229.462 160.926 230.001C163.093 230.541 166.775 230.568 168.691 229.4C169.337 229.008 169.71 228.564 169.961 227.852C170.077 227.5 169.996 226.938 170.13 226.628C170.726 225.409 172.096 225.238 173.167 224.902C176.564 223.861 179.667 222.28 182.6 220.327C183.101 220 182.914 219.311 182.54 218.982C181.114 217.708 179.699 216.403 178.273 215.129L177.473 216.614C181.9 217.9 186.79 217.455 190.646 214.784C192.433 213.55 192.192 212.412 193.073 210.665C193.888 209.049 195.811 208.776 196.141 206.805C196.207 206.401 195.914 206.085 195.595 205.93C194.059 205.13 192.523 204.33 190.987 203.529L190.832 205.171C192.808 204.849 194.539 204.264 196.324 203.355C196.853 203.09 196.957 202.494 196.629 202.044C196.109 201.282 195.568 200.53 195.048 199.768L194.743 201.078C197.277 200.004 200.31 198.38 200.148 195.161C200.085 194.141 199.692 193.272 198.934 192.593C197.842 191.616 195.769 191.832 195.686 190.273C195.635 188.95 197.556 188.727 198.482 187.684C199.29 186.769 199.69 185.615 199.878 184.432C200.507 180.754 199.329 176.724 198.745 173.122C198.665 172.56 198.065 172.283 197.559 172.487C195.131 173.463 192.705 174.114 190.115 174.514L190.949 175.857C192.197 174.095 193.475 172.343 194.722 170.58C195.109 170.056 194.75 169.32 194.113 169.235C190.072 168.747 193.187 164.99 192.036 162.892C191.115 161.19 188.864 161.786 187.889 160.407C186.992 159.142 187.579 157.629 186.113 156.597C185.152 155.91 181.604 155.847 181.44 154.549C181.364 153.885 180.559 153.652 180.056 154.029C177.457 156.005 175.383 158.368 173.769 161.195L175.229 161.331C174.564 160.086 173.619 159.267 172.203 159.061C170.22 158.762 168.903 160.756 167.257 160.43C165.974 160.188 165.399 159.525 164.156 160.638C162.45 162.16 163.304 165.09 161.543 166.437L162.572 166.395C161.587 165.818 160.602 165.242 159.608 164.645C159.091 164.331 158.584 164.535 158.311 165.033C157.598 166.379 156.885 167.725 156.193 169.062L157.771 169.02C156.873 166.708 153.923 166.698 152.189 168.158C149.435 170.453 152.051 179.969 147.339 179.486C146.812 179.425 146.294 179.934 146.407 180.457C146.82 182.415 146.789 184.275 146.328 186.23L147.841 185.769C146.65 184.463 144.49 184.269 143.224 185.716C141.436 187.774 145.062 191.369 143.857 192.564C143.614 192.799 143.435 193.229 143.615 193.571C144.187 194.559 144.75 195.526 145.323 196.514L145.958 195.328C144.713 195.443 143.497 195.57 142.252 195.686C141.823 195.731 141.427 196.234 141.543 196.656C142.539 200.12 145.318 201.68 148.187 203.547C153.367 206.937 154.382 211.765 154.787 217.668C154.857 218.759 156.556 218.487 156.465 217.406L156.454 217.436Z" fill="#B5C3CD" fill-opacity="0.5"/>
<path d="M155.215 217.399C149.469 223.446 146.347 230.823 147.114 239.231C147.88 247.639 151.755 256.135 152.171 264.927C152.22 266.027 153.91 265.735 153.85 264.665C153.463 256.708 150.338 249.319 149.101 241.523C147.735 232.838 150.219 225.102 156.283 218.711C157.026 217.925 155.947 216.593 155.194 217.409L155.215 217.399Z" fill="#B5C3CD" fill-opacity="0.5"/>
<path d="M156.238 224.719C144.068 240.438 161.13 259.52 158.545 276.506C158.392 277.599 160.085 277.754 160.248 276.682C161.597 267.764 158.257 259.35 155.822 250.95C153.388 242.549 151.972 233.039 157.635 225.707C158.309 224.828 156.922 223.86 156.238 224.719Z" fill="#B5C3CD" fill-opacity="0.5"/>
<path d="M84.0713 165.459L85.8159 169.308C86.0035 169.722 86.5244 169.935 86.9592 169.738C87.394 169.54 87.596 169.05 87.3896 168.595L85.645 164.746C85.4574 164.332 84.9365 164.119 84.5017 164.316C84.0669 164.513 83.8649 165.004 84.0713 165.459Z" fill="#B5C3CD" fill-opacity="0.5"/>
<path d="M82.1798 173.899L84.6536 172.528C84.8607 172.434 85.0095 172.267 85.1095 172.047C85.1888 171.837 85.1778 171.592 85.084 171.385C84.9058 170.992 84.3662 170.738 83.9408 170.956L81.4669 172.326C81.2599 172.42 81.111 172.587 81.011 172.807C80.9317 173.018 80.9427 173.262 81.0365 173.469C81.2147 173.863 81.7543 174.117 82.1798 173.899Z" fill="#B5C3CD" fill-opacity="0.5"/>
<path d="M87.2158 172.889L88.6322 176.014C88.8197 176.428 89.3406 176.641 89.7754 176.444C90.2103 176.247 90.4122 175.756 90.2059 175.301L88.7895 172.176C88.6019 171.762 88.0811 171.549 87.6462 171.746C87.2114 171.943 87.0095 172.434 87.2158 172.889Z" fill="#B5C3CD" fill-opacity="0.5"/>
<path d="M90.2434 171.143C90.8892 170.751 91.5819 170.462 92.3027 170.235L92.0957 170.328C92.282 170.244 92.4571 170.19 92.6622 170.147C93.0931 170.051 93.4549 169.638 93.3708 169.177C93.2754 168.746 92.8526 168.364 92.401 168.469C91.4055 168.696 90.4248 169.065 89.5399 169.591C89.3422 169.706 89.1746 169.832 89.084 170.072C89.0047 170.283 89.0157 170.527 89.1095 170.734C89.2033 170.941 89.3799 171.11 89.5905 171.19C89.7917 171.248 90.0551 171.278 90.2528 171.164L90.2434 171.143Z" fill="#B5C3CD" fill-opacity="0.5"/>
<path d="M159.953 30.4355L161.961 29.5251C162.376 29.3373 162.589 28.8166 162.392 28.3821C162.195 27.9475 161.704 27.7459 161.249 27.9524L159.24 28.8628C158.826 29.0505 158.613 29.5713 158.81 30.0058C159.007 30.4404 159.497 30.642 159.953 30.4355Z" fill="#B5C3CD" fill-opacity="0.5"/>
<path d="M163.129 25.9286L161.516 22.3694C161.328 21.9555 160.808 21.7426 160.373 21.9397C159.938 22.1368 159.736 22.6275 159.942 23.0827L161.556 26.6419C161.743 27.0558 162.264 27.2687 162.699 27.0716C163.134 26.8745 163.336 26.3839 163.129 25.9286Z" fill="#B5C3CD" fill-opacity="0.5"/>
<path d="M163.708 30.7299L165.021 33.627C165.209 34.0408 165.73 34.2537 166.164 34.0566C166.599 33.8595 166.801 33.3689 166.595 32.9136L165.282 30.0166C165.094 29.6027 164.573 29.3898 164.138 29.5869C163.704 29.784 163.502 30.2747 163.708 30.7299Z" fill="#B5C3CD" fill-opacity="0.5"/>
<path d="M165.961 27.7136L169.067 26.3057C169.481 26.118 169.694 25.5972 169.497 25.1627C169.3 24.7281 168.809 24.5265 168.354 24.733L165.248 26.1409C164.834 26.3286 164.62 26.8493 164.817 27.2839C165.014 27.7185 165.505 27.9201 165.961 27.7136Z" fill="#B5C3CD" fill-opacity="0.5"/>
</g>
<defs>
<clipPath id="clip0_1754_41388">
<rect width="212" height="340" fill="white" transform="translate(-35 87.5237) rotate(-24.3839)"/>
</clipPath>
</defs>
</svg>
