<svg width="17" height="21" viewBox="0 0 17 21" fill="none" xmlns="http://www.w3.org/2000/svg">
<path d="M14.5 7.5L13.66 15.898C13.533 17.171 13.47 17.807 13.18 18.288C12.9257 18.7114 12.5516 19.05 12.105 19.261C11.598 19.5 10.96 19.5 9.68 19.5H7.32C6.041 19.5 5.402 19.5 4.895 19.26C4.44805 19.0491 4.07361 18.7106 3.819 18.287C3.531 17.807 3.467 17.171 3.339 15.898L2.5 7.5M10 14V9M7 14V9M1 5H5.615M5.615 5L6.001 2.328C6.113 1.842 6.517 1.5 6.981 1.5H10.019C10.483 1.5 10.886 1.842 10.999 2.328L11.385 5M5.615 5H11.385M11.385 5H16" stroke="#627479" stroke-width="1.5" stroke-linecap="round" stroke-linejoin="round"/>
</svg>
