<svg width="21" height="20" viewBox="0 0 21 20" fill="none" xmlns="http://www.w3.org/2000/svg">
<path d="M5.97993 0H14.3799C17.5799 0 20.1799 2.6 20.1799 5.8V14.2C20.1799 15.7383 19.5689 17.2135 18.4812 18.3012C17.3934 19.3889 15.9182 20 14.3799 20H5.97993C2.77993 20 0.179932 17.4 0.179932 14.2V5.8C0.179932 4.26174 0.791001 2.78649 1.87871 1.69878C2.96642 0.61107 4.44168 0 5.97993 0ZM5.77993 2C4.82515 2 3.90948 2.37928 3.23435 3.05442C2.55922 3.72955 2.17993 4.64522 2.17993 5.6V14.4C2.17993 16.39 3.78993 18 5.77993 18H14.5799C15.5347 18 16.4504 17.6207 17.1255 16.9456C17.8006 16.2705 18.1799 15.3548 18.1799 14.4V5.6C18.1799 3.61 16.5699 2 14.5799 2H5.77993ZM15.4299 3.5C15.7615 3.5 16.0794 3.6317 16.3138 3.86612C16.5482 4.10054 16.6799 4.41848 16.6799 4.75C16.6799 5.08152 16.5482 5.39946 16.3138 5.63388C16.0794 5.8683 15.7615 6 15.4299 6C15.0984 6 14.7805 5.8683 14.546 5.63388C14.3116 5.39946 14.1799 5.08152 14.1799 4.75C14.1799 4.41848 14.3116 4.10054 14.546 3.86612C14.7805 3.6317 15.0984 3.5 15.4299 3.5ZM10.1799 5C11.506 5 12.7778 5.52678 13.7155 6.46447C14.6531 7.40215 15.1799 8.67392 15.1799 10C15.1799 11.3261 14.6531 12.5979 13.7155 13.5355C12.7778 14.4732 11.506 15 10.1799 15C8.85385 15 7.58208 14.4732 6.6444 13.5355C5.70672 12.5979 5.17993 11.3261 5.17993 10C5.17993 8.67392 5.70672 7.40215 6.6444 6.46447C7.58208 5.52678 8.85385 5 10.1799 5ZM10.1799 7C9.38428 7 8.62122 7.31607 8.05861 7.87868C7.496 8.44129 7.17993 9.20435 7.17993 10C7.17993 10.7956 7.496 11.5587 8.05861 12.1213C8.62122 12.6839 9.38428 13 10.1799 13C10.9756 13 11.7386 12.6839 12.3013 12.1213C12.8639 11.5587 13.1799 10.7956 13.1799 10C13.1799 9.20435 12.8639 8.44129 12.3013 7.87868C11.7386 7.31607 10.9756 7 10.1799 7Z" fill="#121212"/>
</svg>
