<svg width="17" height="18" viewBox="0 0 17 18" fill="none" xmlns="http://www.w3.org/2000/svg">
<path d="M12.94 2.82C12.2564 2.03962 11.8797 1.03743 11.88 0H8.79V12.4C8.76617 13.071 8.48287 13.7066 7.99977 14.1729C7.51666 14.6393 6.87145 14.8999 6.2 14.9C4.78 14.9 3.6 13.74 3.6 12.3C3.6 10.58 5.26 9.29 6.97 9.82V6.66C3.52 6.2 0.5 8.88 0.5 12.3C0.5 15.63 3.26 18 6.19 18C9.33 18 11.88 15.45 11.88 12.3V6.01C13.133 6.90985 14.6374 7.39265 16.18 7.39V4.3C16.18 4.3 14.3 4.39 12.94 2.82Z" fill="#121212"/>
</svg>
