<svg width="40" height="40" viewBox="0 0 40 40" fill="none" xmlns="http://www.w3.org/2000/svg">
<rect width="39.999" height="40" rx="19.9995" fill="#B5C3CD"/>
<path d="M24.484 20.0326L30.635 14.6886V25.3156L24.484 20.0326ZM16.558 20.9376L18.718 22.8126C19.057 23.1006 19.499 23.2746 19.982 23.2746H19.999H20.012C20.496 23.2746 20.938 23.0996 21.281 22.8096L21.278 22.8116L23.438 20.9366L30.004 26.5756H9.995L16.558 20.9376ZM9.986 13.4216H30.016L20.395 21.7776C20.2868 21.8632 20.1529 21.9097 20.015 21.9096H20.001H19.988C19.8496 21.9098 19.7152 21.8629 19.607 21.7766L19.608 21.7776L9.986 13.4216ZM9.365 14.6876L15.515 20.0316L9.365 25.3116V14.6876ZM30.965 12.2466C30.725 12.1266 30.443 12.0566 30.144 12.0566H9.859C9.56916 12.0567 9.28331 12.1242 9.024 12.2536L9.035 12.2486C8.72457 12.4018 8.46315 12.6386 8.28025 12.9325C8.09736 13.2264 8.00029 13.5655 8 13.9116V26.0836C8.00053 26.5763 8.19645 27.0485 8.54478 27.3969C8.89311 27.7452 9.36539 27.9411 9.858 27.9416H30.141C30.6336 27.9411 31.1059 27.7452 31.4542 27.3969C31.8025 27.0485 31.9985 26.5763 31.999 26.0836V13.9116C31.999 13.1846 31.58 12.5546 30.97 12.2516L30.959 12.2466H30.965Z" fill="#121212"/>
</svg>
